{"glyphs":{"0":{"ha":833,"x_min":67,"x_max":767,"o":"m 417 -11 q 156 117 246 -11 q 67 489 67 244 q 156 863 67 735 q 417 990 246 990 q 677 863 588 990 q 767 490 767 736 q 677 117 767 244 q 417 -11 588 -11 m 417 104 q 574 197 524 104 q 624 490 624 290 q 574 783 624 690 q 417 875 524 875 q 260 783 310 875 q 210 490 210 690 q 260 198 210 292 q 417 104 310 104 z "},"1":{"ha":833,"x_min":156,"x_max":756,"o":"m 689 118 q 739 103 722 118 q 756 60 756 88 q 689 0 756 0 l 225 0 q 157 60 157 0 q 174 103 157 88 q 225 118 192 118 l 385 118 l 385 811 l 242 721 q 214 713 228 713 q 173 733 190 713 q 156 781 156 754 q 183 831 156 813 l 397 967 q 458 986 429 986 q 508 967 489 986 q 528 914 528 947 l 528 118 l 689 118 z "},"2":{"ha":833,"x_min":81,"x_max":767,"o":"m 699 118 q 749 103 732 118 q 767 60 767 88 q 699 0 767 0 l 163 0 q 115 17 132 0 q 97 61 97 35 q 122 119 97 93 l 449 476 q 543 606 514 547 q 572 721 572 664 q 530 834 572 794 q 410 874 488 874 q 175 783 292 874 q 149 769 160 774 q 128 764 139 764 q 94 782 108 764 q 81 825 81 800 q 108 881 81 860 q 249 960 167 931 q 414 990 331 990 q 633 920 551 990 q 714 731 714 850 q 677 569 714 646 q 554 399 640 493 l 292 118 l 699 118 z "},"3":{"ha":833,"x_min":65,"x_max":738,"o":"m 557 503 q 692 417 646 478 q 738 265 738 357 q 648 64 738 138 q 406 -10 558 -10 q 233 19 315 -10 q 93 100 150 49 q 65 156 65 122 q 79 198 65 181 q 113 215 93 215 q 160 197 133 215 q 277 130 219 153 q 401 107 335 107 q 599 275 599 107 q 547 398 599 357 q 389 439 494 439 l 313 439 q 271 456 286 439 q 256 497 256 474 q 271 537 256 519 q 313 554 286 554 l 367 554 q 522 597 468 554 q 575 721 575 639 q 531 833 575 793 q 408 874 488 874 q 175 783 292 874 q 128 765 149 765 q 94 783 108 765 q 81 825 81 800 q 108 881 81 858 q 247 961 165 932 q 414 990 328 990 q 633 922 551 990 q 714 738 714 854 q 673 592 714 654 q 557 503 632 531 z "},"4":{"ha":833,"x_min":51,"x_max":803,"o":"m 735 317 q 803 260 803 317 q 735 203 803 203 l 646 203 l 646 65 q 626 12 646 31 q 575 -7 607 -7 q 525 12 544 -7 q 506 65 506 31 l 506 203 l 115 203 q 68 219 85 203 q 51 263 51 236 q 69 317 51 290 l 513 954 q 575 986 535 986 q 625 967 604 986 q 646 914 646 949 l 646 317 l 735 317 m 506 317 l 506 750 l 206 317 l 506 317 z "},"5":{"ha":833,"x_min":96,"x_max":771,"o":"m 461 619 q 623 581 553 619 q 732 471 693 542 q 771 308 771 400 q 728 143 771 215 q 608 31 685 71 q 431 -10 531 -10 q 262 19 344 -10 q 124 100 179 49 q 96 156 96 124 q 110 198 96 181 q 143 215 124 215 q 166 211 156 215 q 190 197 176 207 q 305 130 247 153 q 426 107 363 107 q 578 159 524 107 q 632 306 632 211 q 577 450 632 396 q 431 504 522 504 q 324 484 371 504 q 235 421 276 464 q 185 401 214 401 q 145 416 161 401 q 129 454 129 431 l 129 911 q 147 961 129 943 q 197 979 164 979 l 675 979 q 725 964 707 979 q 743 922 743 949 q 725 879 743 894 q 675 864 707 864 l 271 864 l 271 556 q 461 619 347 619 z "},"6":{"ha":832,"x_min":69,"x_max":772,"o":"m 467 621 q 624 581 554 621 q 731 471 693 542 q 769 308 769 400 q 728 144 769 217 q 613 30 686 71 q 447 -11 540 -11 q 167 113 265 -11 q 69 468 69 238 q 115 748 69 631 q 247 928 161 865 q 451 990 333 990 q 610 961 531 990 q 744 881 689 932 q 772 825 772 857 q 758 783 772 800 q 725 765 744 765 q 702 769 713 765 q 678 783 692 774 q 456 874 561 874 q 276 767 340 874 q 213 471 213 661 l 213 468 q 312 580 243 539 q 467 621 381 621 m 440 106 q 578 160 526 106 q 631 306 631 215 q 578 449 631 394 q 440 504 526 504 q 298 449 353 504 q 243 306 243 394 q 297 160 243 215 q 440 106 351 106 z "},"7":{"ha":833,"x_min":72,"x_max":761,"o":"m 699 979 q 745 963 729 979 q 761 919 761 946 q 746 867 761 894 l 292 28 q 231 -11 269 -11 q 183 8 204 -11 q 161 54 161 26 q 172 93 161 71 l 590 861 l 139 861 q 89 876 106 861 q 72 919 72 892 q 139 979 72 979 l 699 979 z "},"8":{"ha":833,"x_min":58,"x_max":775,"o":"m 594 503 q 728 414 681 478 q 775 261 775 350 q 681 62 775 133 q 417 -10 588 -10 q 152 62 246 -10 q 58 261 58 133 q 106 415 58 351 q 240 503 154 479 q 124 590 167 531 q 82 729 82 650 q 171 920 82 850 q 417 990 260 990 q 663 920 574 990 q 751 729 751 850 q 709 590 751 650 q 594 503 667 529 m 417 875 q 269 834 319 875 q 219 717 219 793 q 269 596 219 638 q 417 554 319 554 q 564 596 514 554 q 614 717 614 638 q 564 834 614 793 q 417 875 514 875 m 417 106 q 638 271 638 106 q 417 438 638 438 q 196 271 196 438 q 417 106 196 106 z "},"9":{"ha":833,"x_min":61,"x_max":764,"o":"m 386 990 q 666 866 568 990 q 764 511 764 742 q 718 231 764 349 q 586 51 672 114 q 382 -11 500 -11 q 224 18 303 -11 q 89 99 144 47 q 61 154 61 122 q 75 197 61 179 q 108 214 89 214 q 131 210 121 214 q 156 196 142 206 q 378 106 272 106 q 557 212 493 106 q 621 508 621 318 l 621 511 q 522 399 590 440 q 367 358 453 358 q 210 398 279 358 q 102 508 140 438 q 64 671 64 579 q 106 835 64 763 q 220 949 147 908 q 386 990 293 990 m 393 475 q 535 530 481 475 q 590 674 590 585 q 536 819 590 764 q 393 874 482 874 q 255 819 307 874 q 203 674 203 764 q 255 530 203 585 q 393 475 307 475 z "},"\u0000":{"ha":0,"x_min":0,"x_max":0,"o":""},"\r":{"ha":367,"x_min":0,"x_max":0,"o":""}," ":{"ha":367,"x_min":0,"x_max":0,"o":""},"A":{"ha":1019,"x_min":35,"x_max":985,"o":"m 978 83 q 985 56 985 67 q 963 11 985 29 q 915 -7 942 -7 q 881 3 897 -7 q 857 33 865 14 l 765 242 l 257 242 l 165 33 q 140 3 157 14 q 106 -7 124 -7 q 56 11 78 -7 q 35 56 35 29 q 42 83 35 67 l 433 940 q 465 975 443 963 q 510 988 486 988 q 555 975 533 988 q 586 940 576 963 l 978 83 m 715 356 l 511 815 l 308 356 l 715 356 z "},"Á":{"ha":1019,"x_min":35,"x_max":985,"o":"m 978 83 q 985 56 985 67 q 963 11 985 29 q 915 -7 942 -7 q 881 3 897 -7 q 857 33 865 14 l 765 242 l 257 242 l 165 33 q 140 3 157 14 q 106 -7 124 -7 q 56 11 78 -7 q 35 56 35 29 q 42 83 35 67 l 433 940 q 465 975 443 963 q 510 988 486 988 q 555 975 533 988 q 586 940 576 963 l 978 83 m 715 356 l 511 815 l 308 356 l 715 356 m 531 1061 q 510 1056 521 1056 q 484 1065 494 1056 q 474 1089 474 1075 q 486 1115 474 1103 l 618 1256 q 672 1282 644 1282 q 713 1265 696 1282 q 729 1225 729 1249 q 690 1168 729 1192 l 531 1061 z "},"Ă":{"ha":1019,"x_min":35,"x_max":985,"o":"m 978 83 q 985 56 985 67 q 963 11 985 29 q 915 -7 942 -7 q 881 3 897 -7 q 857 33 865 14 l 765 242 l 257 242 l 165 33 q 140 3 157 14 q 106 -7 124 -7 q 56 11 78 -7 q 35 56 35 29 q 42 83 35 67 l 433 940 q 465 975 443 963 q 510 988 486 988 q 555 975 533 988 q 586 940 576 963 l 978 83 m 715 356 l 511 815 l 308 356 l 715 356 m 510 1078 q 378 1108 435 1078 q 292 1193 321 1138 q 283 1221 283 1208 q 296 1249 283 1238 q 325 1261 308 1261 q 371 1238 351 1261 q 510 1171 419 1171 q 649 1238 600 1171 q 693 1261 668 1261 q 723 1249 710 1261 q 736 1221 736 1238 q 728 1193 736 1208 q 642 1108 700 1139 q 510 1078 585 1078 z "},"Ắ":{"ha":1019,"x_min":35,"x_max":985,"o":"m 978 83 q 985 56 985 67 q 963 11 985 29 q 915 -7 942 -7 q 881 3 897 -7 q 857 33 865 14 l 765 242 l 257 242 l 165 33 q 140 3 157 14 q 106 -7 124 -7 q 56 11 78 -7 q 35 56 35 29 q 42 83 35 67 l 433 940 q 465 975 443 963 q 510 988 486 988 q 555 975 533 988 q 586 940 576 963 l 978 83 m 715 356 l 511 815 l 308 356 l 715 356 m 526 1204 q 507 1199 517 1199 q 485 1208 494 1199 q 475 1231 475 1217 q 490 1261 475 1247 l 614 1386 q 665 1410 639 1410 q 701 1395 686 1410 q 715 1360 715 1381 q 679 1304 715 1325 l 526 1204 m 510 1056 q 378 1085 435 1056 q 292 1171 321 1115 q 283 1200 283 1188 q 294 1226 283 1217 q 321 1236 304 1236 q 364 1214 343 1236 q 510 1140 419 1140 q 656 1214 600 1140 q 699 1236 676 1236 q 725 1226 714 1236 q 736 1199 736 1215 q 728 1171 736 1186 q 642 1086 700 1117 q 510 1056 585 1056 z "},"Ặ":{"ha":1019,"x_min":35,"x_max":985,"o":"m 978 83 q 985 56 985 67 q 963 11 985 29 q 915 -7 942 -7 q 881 3 897 -7 q 857 33 865 14 l 765 242 l 257 242 l 165 33 q 140 3 157 14 q 106 -7 124 -7 q 56 11 78 -7 q 35 56 35 29 q 42 83 35 67 l 433 940 q 465 975 443 963 q 510 988 486 988 q 555 975 533 988 q 586 940 576 963 l 978 83 m 715 356 l 511 815 l 308 356 l 715 356 m 510 -267 q 451 -245 474 -267 q 429 -189 429 -224 q 451 -133 429 -154 q 510 -112 474 -112 q 567 -134 544 -112 q 590 -189 590 -156 q 568 -245 590 -224 q 510 -267 546 -267 m 510 1078 q 378 1108 435 1078 q 292 1193 321 1138 q 283 1221 283 1208 q 296 1249 283 1238 q 325 1261 308 1261 q 371 1238 351 1261 q 510 1171 419 1171 q 649 1238 600 1171 q 693 1261 668 1261 q 723 1249 710 1261 q 736 1221 736 1238 q 728 1193 736 1208 q 642 1108 700 1139 q 510 1078 585 1078 z "},"Ằ":{"ha":1019,"x_min":35,"x_max":985,"o":"m 978 83 q 985 56 985 67 q 963 11 985 29 q 915 -7 942 -7 q 881 3 897 -7 q 857 33 865 14 l 765 242 l 257 242 l 165 33 q 140 3 157 14 q 106 -7 124 -7 q 56 11 78 -7 q 35 56 35 29 q 42 83 35 67 l 433 940 q 465 975 443 963 q 510 988 486 988 q 555 975 533 988 q 586 940 576 963 l 978 83 m 715 356 l 511 815 l 308 356 l 715 356 m 340 1304 q 304 1360 304 1326 q 319 1394 304 1379 q 354 1410 333 1410 q 406 1386 381 1410 l 529 1261 q 544 1231 544 1247 q 535 1208 544 1217 q 513 1199 525 1199 q 493 1204 503 1199 l 340 1304 m 510 1056 q 378 1085 436 1056 q 292 1171 321 1115 q 283 1200 283 1188 q 294 1226 283 1217 q 321 1236 304 1236 q 364 1214 343 1236 q 510 1140 419 1140 q 656 1214 600 1140 q 699 1236 676 1236 q 725 1226 714 1236 q 736 1199 736 1215 q 728 1171 736 1186 q 642 1085 700 1115 q 510 1056 585 1056 z "},"Ẳ":{"ha":1019,"x_min":35,"x_max":985,"o":"m 978 83 q 985 56 985 67 q 963 11 985 29 q 915 -7 942 -7 q 881 3 897 -7 q 857 33 865 14 l 765 242 l 257 242 l 165 33 q 140 3 157 14 q 106 -7 124 -7 q 56 11 78 -7 q 35 56 35 29 q 42 83 35 67 l 433 940 q 465 975 443 963 q 510 988 486 988 q 555 975 533 988 q 586 940 576 963 l 978 83 m 715 356 l 511 815 l 308 356 l 715 356 m 551 1224 q 538 1206 550 1213 q 513 1200 526 1200 q 484 1208 496 1200 q 472 1235 472 1217 q 488 1270 472 1258 q 532 1294 504 1282 q 545 1301 536 1296 q 559 1310 554 1306 q 564 1319 564 1314 q 508 1340 564 1340 q 438 1332 488 1340 q 407 1338 419 1328 q 394 1363 394 1347 q 418 1393 394 1385 q 517 1410 458 1410 q 622 1386 583 1410 q 661 1326 661 1363 q 644 1285 661 1299 q 597 1258 628 1271 q 565 1242 575 1249 q 551 1224 554 1235 m 510 1056 q 378 1085 436 1056 q 292 1171 321 1115 q 283 1200 283 1188 q 294 1226 283 1217 q 321 1236 304 1236 q 364 1214 343 1236 q 510 1140 419 1140 q 656 1214 600 1140 q 699 1236 676 1236 q 725 1226 714 1236 q 736 1199 736 1215 q 728 1171 736 1186 q 642 1085 700 1115 q 510 1056 585 1056 z "},"Ẵ":{"ha":1019,"x_min":35,"x_max":985,"o":"m 978 83 q 985 56 985 67 q 963 11 985 29 q 915 -7 942 -7 q 881 3 897 -7 q 857 33 865 14 l 765 242 l 257 242 l 165 33 q 140 3 157 14 q 106 -7 124 -7 q 56 11 78 -7 q 35 56 35 29 q 42 83 35 67 l 433 940 q 465 975 443 963 q 510 988 486 988 q 555 975 533 988 q 586 940 576 963 l 978 83 m 715 356 l 511 815 l 308 356 l 715 356 m 610 1269 q 559 1277 585 1269 q 494 1299 533 1285 q 449 1315 471 1308 q 411 1322 426 1322 q 378 1314 390 1322 q 354 1292 365 1306 q 336 1274 343 1279 q 319 1269 329 1269 q 294 1279 304 1269 q 285 1304 285 1289 q 301 1350 285 1325 q 345 1392 317 1375 q 410 1408 374 1408 q 460 1401 435 1408 q 525 1379 486 1393 q 571 1363 549 1369 q 608 1356 593 1356 q 642 1364 629 1356 q 665 1386 654 1372 q 683 1403 676 1399 q 700 1408 690 1408 q 725 1399 715 1408 q 735 1374 735 1389 q 719 1328 735 1353 q 674 1287 703 1304 q 610 1269 646 1269 m 510 1056 q 378 1085 436 1056 q 292 1171 321 1115 q 285 1197 285 1183 q 297 1224 285 1214 q 325 1233 308 1233 q 364 1214 349 1233 q 510 1140 419 1140 q 656 1214 600 1140 q 696 1233 671 1233 q 724 1224 713 1233 q 736 1197 736 1214 q 728 1171 736 1186 q 642 1085 700 1115 q 510 1056 585 1056 z "},"Â":{"ha":1019,"x_min":35,"x_max":985,"o":"m 978 83 q 985 56 985 67 q 963 11 985 29 q 915 -7 942 -7 q 881 3 897 -7 q 857 33 865 14 l 765 242 l 257 242 l 165 33 q 140 3 157 14 q 106 -7 124 -7 q 56 11 78 -7 q 35 56 35 29 q 42 83 35 67 l 433 940 q 465 975 443 963 q 510 988 486 988 q 555 975 533 988 q 586 940 576 963 l 978 83 m 715 356 l 511 815 l 308 356 l 715 356 m 399 1072 q 361 1056 382 1056 q 328 1069 342 1056 q 315 1101 315 1083 q 333 1139 315 1121 l 453 1257 q 510 1281 478 1281 q 567 1257 542 1281 l 686 1139 q 704 1101 704 1121 q 690 1069 704 1083 q 657 1056 676 1056 q 621 1072 638 1056 l 510 1192 l 399 1072 z "},"Ấ":{"ha":1019,"x_min":35,"x_max":985,"o":"m 978 83 q 985 56 985 67 q 963 11 985 29 q 915 -7 942 -7 q 881 3 897 -7 q 857 33 865 14 l 765 242 l 257 242 l 165 33 q 140 3 157 14 q 106 -7 124 -7 q 56 11 78 -7 q 35 56 35 29 q 42 83 35 67 l 433 940 q 465 975 443 963 q 510 988 486 988 q 555 975 533 988 q 586 940 576 963 l 978 83 m 715 356 l 511 815 l 308 356 l 715 356 m 693 1206 q 674 1200 683 1200 q 648 1210 658 1200 q 638 1235 638 1221 q 647 1260 638 1249 l 743 1383 q 794 1411 765 1411 q 835 1394 818 1411 q 853 1353 853 1376 q 817 1297 853 1318 l 693 1206 m 394 1069 q 363 1057 382 1057 q 329 1070 343 1057 q 315 1101 315 1083 q 338 1142 315 1125 l 453 1249 q 510 1271 481 1271 q 567 1249 536 1271 l 682 1142 q 706 1101 706 1124 q 691 1069 706 1083 q 657 1056 676 1056 q 626 1068 642 1056 l 510 1183 l 394 1069 z "},"Ậ":{"ha":1019,"x_min":35,"x_max":985,"o":"m 978 83 q 985 56 985 67 q 963 11 985 29 q 915 -7 942 -7 q 881 3 897 -7 q 857 33 865 14 l 765 242 l 257 242 l 165 33 q 140 3 157 14 q 106 -7 124 -7 q 56 11 78 -7 q 35 56 35 29 q 42 83 35 67 l 433 940 q 465 975 443 963 q 510 988 486 988 q 555 975 533 988 q 586 940 576 963 l 978 83 m 715 356 l 511 815 l 308 356 l 715 356 m 510 -267 q 451 -245 474 -267 q 429 -189 429 -224 q 451 -133 429 -154 q 510 -112 474 -112 q 567 -134 544 -112 q 590 -189 590 -156 q 568 -245 590 -224 q 510 -267 546 -267 m 399 1072 q 361 1056 382 1056 q 328 1069 342 1056 q 315 1101 315 1083 q 333 1139 315 1121 l 453 1257 q 510 1281 478 1281 q 567 1257 542 1281 l 686 1139 q 704 1101 704 1121 q 690 1069 704 1083 q 657 1056 676 1056 q 621 1072 638 1056 l 510 1192 l 399 1072 z "},"Ầ":{"ha":1019,"x_min":35,"x_max":985,"o":"m 978 83 q 985 56 985 67 q 963 11 985 29 q 915 -7 942 -7 q 881 3 897 -7 q 857 33 865 14 l 765 242 l 257 242 l 165 33 q 140 3 157 14 q 106 -7 124 -7 q 56 11 78 -7 q 35 56 35 29 q 42 83 35 67 l 433 940 q 465 975 443 963 q 510 988 486 988 q 555 975 533 988 q 586 940 576 963 l 978 83 m 715 356 l 511 815 l 308 356 l 715 356 m 574 1300 q 540 1353 540 1324 q 559 1393 540 1375 q 601 1411 578 1411 q 651 1382 632 1411 l 743 1256 q 751 1232 751 1243 q 742 1209 751 1218 q 717 1200 732 1200 q 690 1208 703 1200 l 574 1300 m 394 1069 q 363 1057 382 1057 q 329 1070 343 1057 q 315 1101 315 1083 q 338 1142 315 1125 l 453 1249 q 510 1271 481 1271 q 567 1249 536 1271 l 682 1142 q 706 1101 706 1124 q 691 1069 706 1083 q 657 1056 676 1056 q 626 1068 642 1056 l 510 1183 l 394 1069 z "},"Ẩ":{"ha":1019,"x_min":35,"x_max":985,"o":"m 978 83 q 985 56 985 67 q 963 11 985 29 q 915 -7 942 -7 q 881 3 897 -7 q 857 33 865 14 l 765 242 l 257 242 l 165 33 q 140 3 157 14 q 106 -7 124 -7 q 56 11 78 -7 q 35 56 35 29 q 42 83 35 67 l 433 940 q 465 975 443 963 q 510 988 486 988 q 555 975 533 988 q 586 940 576 963 l 978 83 m 715 356 l 511 815 l 308 356 l 715 356 m 713 1224 q 699 1206 711 1213 q 674 1200 688 1200 q 645 1208 657 1200 q 633 1235 633 1217 q 649 1270 633 1258 q 693 1294 665 1282 q 706 1301 697 1296 q 720 1310 715 1306 q 725 1319 725 1314 q 669 1340 725 1340 q 599 1332 649 1340 q 567 1339 579 1329 q 556 1363 556 1349 q 579 1393 556 1385 q 678 1410 619 1410 q 783 1386 744 1410 q 822 1326 822 1363 q 806 1285 822 1299 q 758 1258 789 1272 q 726 1242 736 1249 q 713 1224 715 1235 m 394 1069 q 363 1057 382 1057 q 329 1070 343 1057 q 315 1101 315 1083 q 338 1142 315 1125 l 453 1249 q 510 1271 481 1271 q 567 1249 536 1271 l 682 1142 q 706 1101 706 1124 q 691 1069 706 1083 q 657 1056 676 1056 q 626 1068 642 1056 l 510 1183 l 394 1069 z "},"Ẫ":{"ha":1019,"x_min":35,"x_max":985,"o":"m 978 83 q 985 56 985 67 q 963 11 985 29 q 915 -7 942 -7 q 881 3 897 -7 q 857 33 865 14 l 765 242 l 257 242 l 165 33 q 140 3 157 14 q 106 -7 124 -7 q 56 11 78 -7 q 35 56 35 29 q 42 83 35 67 l 433 940 q 465 975 443 963 q 510 988 486 988 q 555 975 533 988 q 586 940 576 963 l 978 83 m 715 356 l 511 815 l 308 356 l 715 356 m 610 1269 q 559 1277 585 1269 q 494 1299 533 1285 q 449 1315 471 1308 q 411 1322 426 1322 q 378 1314 390 1322 q 354 1292 365 1306 q 336 1274 343 1279 q 319 1269 329 1269 q 294 1279 304 1269 q 285 1304 285 1289 q 301 1350 285 1325 q 345 1392 317 1375 q 410 1408 374 1408 q 460 1401 435 1408 q 525 1379 486 1393 q 571 1363 549 1369 q 608 1356 593 1356 q 642 1364 629 1356 q 665 1386 654 1372 q 683 1403 676 1399 q 700 1408 690 1408 q 725 1399 715 1408 q 735 1374 735 1389 q 719 1328 735 1353 q 674 1287 703 1304 q 610 1269 646 1269 m 394 1069 q 363 1057 382 1057 q 329 1070 343 1057 q 315 1101 315 1083 q 338 1142 315 1125 l 453 1249 q 510 1271 481 1271 q 567 1249 536 1271 l 682 1142 q 706 1101 706 1124 q 691 1069 706 1083 q 657 1056 676 1056 q 626 1068 642 1056 l 510 1183 l 394 1069 z "},"Ȁ":{"ha":1019,"x_min":35,"x_max":985,"o":"m 978 83 q 985 56 985 67 q 963 11 985 29 q 915 -7 942 -7 q 881 3 897 -7 q 857 33 865 14 l 765 242 l 257 242 l 165 33 q 140 3 157 14 q 106 -7 124 -7 q 56 11 78 -7 q 35 56 35 29 q 42 83 35 67 l 433 940 q 465 975 443 963 q 510 988 486 988 q 555 975 533 988 q 586 940 576 963 l 978 83 m 715 356 l 511 815 l 308 356 l 715 356 m 296 1188 q 278 1229 278 1207 q 294 1266 278 1250 q 332 1282 311 1282 q 382 1244 367 1282 l 450 1104 q 454 1086 454 1094 q 445 1064 454 1072 q 424 1056 436 1056 q 396 1069 408 1056 l 296 1188 m 471 1188 q 453 1229 453 1207 q 469 1266 453 1250 q 506 1282 485 1282 q 557 1244 539 1282 l 625 1104 q 629 1088 629 1096 q 620 1065 629 1074 q 599 1056 611 1056 q 569 1069 582 1056 l 471 1188 z "},"Ä":{"ha":1019,"x_min":35,"x_max":985,"o":"m 978 83 q 985 56 985 67 q 963 11 985 29 q 915 -7 942 -7 q 881 3 897 -7 q 857 33 865 14 l 765 242 l 257 242 l 165 33 q 140 3 157 14 q 106 -7 124 -7 q 56 11 78 -7 q 35 56 35 29 q 42 83 35 67 l 433 940 q 465 975 443 963 q 510 988 486 988 q 555 975 533 988 q 586 940 576 963 l 978 83 m 715 356 l 511 815 l 308 356 l 715 356 m 388 1094 q 331 1115 353 1094 q 308 1169 308 1136 q 331 1225 308 1204 q 388 1246 353 1246 q 444 1224 421 1246 q 467 1169 467 1203 q 444 1115 467 1136 q 388 1094 422 1094 m 632 1094 q 576 1115 599 1094 q 554 1169 554 1136 q 576 1224 554 1203 q 632 1246 599 1246 q 689 1225 667 1246 q 711 1169 711 1204 q 689 1115 711 1136 q 632 1094 667 1094 z "},"Ạ":{"ha":1019,"x_min":35,"x_max":985,"o":"m 978 83 q 985 56 985 67 q 963 11 985 29 q 915 -7 942 -7 q 881 3 897 -7 q 857 33 865 14 l 765 242 l 257 242 l 165 33 q 140 3 157 14 q 106 -7 124 -7 q 56 11 78 -7 q 35 56 35 29 q 42 83 35 67 l 433 940 q 465 975 443 963 q 510 988 486 988 q 555 975 533 988 q 586 940 576 963 l 978 83 m 715 356 l 511 815 l 308 356 l 715 356 m 510 -267 q 451 -245 474 -267 q 429 -189 429 -224 q 451 -133 429 -154 q 510 -112 474 -112 q 567 -134 544 -112 q 590 -189 590 -156 q 568 -245 590 -224 q 510 -267 546 -267 z "},"À":{"ha":1019,"x_min":35,"x_max":985,"o":"m 978 83 q 985 56 985 67 q 963 11 985 29 q 915 -7 942 -7 q 881 3 897 -7 q 857 33 865 14 l 765 242 l 257 242 l 165 33 q 140 3 157 14 q 106 -7 124 -7 q 56 11 78 -7 q 35 56 35 29 q 42 83 35 67 l 433 940 q 465 975 443 963 q 510 988 486 988 q 555 975 533 988 q 586 940 576 963 l 978 83 m 715 356 l 511 815 l 308 356 l 715 356 m 329 1168 q 290 1225 290 1192 q 307 1265 290 1249 q 347 1282 324 1282 q 401 1256 375 1282 l 533 1115 q 546 1089 546 1103 q 535 1065 546 1075 q 510 1056 525 1056 q 489 1061 499 1056 l 329 1168 z "},"Ả":{"ha":1019,"x_min":35,"x_max":985,"o":"m 978 83 q 985 56 985 67 q 963 11 985 29 q 915 -7 942 -7 q 881 3 897 -7 q 857 33 865 14 l 765 242 l 257 242 l 165 33 q 140 3 157 14 q 106 -7 124 -7 q 56 11 78 -7 q 35 56 35 29 q 42 83 35 67 l 433 940 q 465 975 443 963 q 510 988 486 988 q 555 975 533 988 q 586 940 576 963 l 978 83 m 715 356 l 511 815 l 308 356 l 715 356 m 553 1082 q 540 1063 551 1069 q 514 1056 529 1056 q 484 1065 497 1056 q 471 1093 471 1075 q 485 1130 471 1117 q 528 1156 500 1143 q 554 1171 547 1165 q 561 1185 561 1176 q 547 1203 561 1196 q 508 1210 533 1210 q 438 1199 478 1210 q 407 1206 419 1194 q 394 1232 394 1217 q 401 1251 394 1242 q 418 1264 407 1260 q 517 1281 458 1281 q 622 1256 583 1281 q 661 1193 661 1232 q 645 1149 661 1164 q 599 1121 629 1135 q 565 1102 575 1110 q 553 1082 556 1094 z "},"Ȃ":{"ha":1019,"x_min":35,"x_max":985,"o":"m 978 83 q 985 56 985 67 q 963 11 985 29 q 915 -7 942 -7 q 881 3 897 -7 q 857 33 865 14 l 765 242 l 257 242 l 165 33 q 140 3 157 14 q 106 -7 124 -7 q 56 11 78 -7 q 35 56 35 29 q 42 83 35 67 l 433 940 q 465 975 443 963 q 510 988 486 988 q 555 975 533 988 q 586 940 576 963 l 978 83 m 715 356 l 511 815 l 308 356 l 715 356 m 371 1100 q 326 1076 351 1076 q 297 1088 310 1076 q 283 1118 283 1100 q 292 1146 283 1132 q 377 1231 319 1200 q 510 1261 435 1261 q 641 1231 583 1261 q 728 1146 699 1201 q 736 1117 736 1129 q 724 1088 736 1100 q 694 1076 711 1076 q 649 1100 668 1076 q 510 1167 600 1167 q 371 1100 419 1167 z "},"Ā":{"ha":1019,"x_min":35,"x_max":985,"o":"m 978 83 q 985 56 985 67 q 963 11 985 29 q 915 -7 942 -7 q 881 3 897 -7 q 857 33 865 14 l 765 242 l 257 242 l 165 33 q 140 3 157 14 q 106 -7 124 -7 q 56 11 78 -7 q 35 56 35 29 q 42 83 35 67 l 433 940 q 465 975 443 963 q 510 988 486 988 q 555 975 533 988 q 586 940 576 963 l 978 83 m 715 356 l 511 815 l 308 356 l 715 356 m 342 1121 q 301 1134 317 1121 q 286 1169 286 1147 q 301 1206 286 1193 q 342 1218 317 1218 l 678 1218 q 718 1206 703 1218 q 733 1169 733 1193 q 718 1134 733 1147 q 678 1121 703 1121 l 342 1121 z "},"Ą":{"ha":1019,"x_min":35,"x_max":1047,"o":"m 1001 -171 q 1017 -168 1007 -168 q 1039 -178 1031 -168 q 1047 -203 1047 -189 q 1025 -242 1047 -229 q 917 -269 975 -269 q 797 -227 843 -269 q 750 -118 750 -185 q 777 -29 750 -69 q 856 36 804 11 l 765 242 l 257 242 l 165 33 q 140 3 157 14 q 106 -7 124 -7 q 56 11 78 -7 q 35 56 35 29 q 42 83 35 67 l 433 940 q 465 975 443 963 q 510 988 486 988 q 555 975 533 988 q 586 940 576 963 l 978 83 q 985 56 985 67 q 973 22 985 36 q 944 0 961 7 q 876 -37 901 -11 q 851 -103 851 -64 q 875 -164 851 -142 q 935 -186 899 -186 q 1001 -171 964 -186 m 715 356 l 511 815 l 308 356 l 715 356 z "},"Å":{"ha":1019,"x_min":35,"x_max":985,"o":"m 978 83 q 985 56 985 67 q 963 11 985 29 q 915 -7 942 -7 q 881 3 897 -7 q 857 33 865 14 l 765 242 l 257 242 l 165 33 q 140 3 157 14 q 106 -7 124 -7 q 56 11 78 -7 q 35 56 35 29 q 42 83 35 67 l 440 953 q 387 1003 407 971 q 367 1075 367 1035 q 408 1176 367 1135 q 510 1217 450 1217 q 613 1176 571 1217 q 654 1075 654 1135 q 634 1003 654 1035 q 581 953 614 971 l 978 83 m 510 1143 q 464 1124 482 1143 q 446 1075 446 1104 q 464 1026 446 1046 q 510 1007 482 1007 q 556 1027 538 1007 q 575 1075 575 1047 q 556 1123 575 1103 q 510 1143 538 1143 m 715 356 l 511 815 l 308 356 l 715 356 z "},"Ǻ":{"ha":1019,"x_min":35,"x_max":985,"o":"m 978 83 q 985 56 985 67 q 963 11 985 29 q 915 -7 942 -7 q 881 3 897 -7 q 857 33 865 14 l 765 242 l 257 242 l 165 33 q 140 3 157 14 q 106 -7 124 -7 q 56 11 78 -7 q 35 56 35 29 q 42 83 35 67 l 440 953 q 387 1003 407 971 q 367 1075 367 1035 q 408 1176 367 1135 q 510 1217 450 1217 q 586 1196 549 1217 l 721 1299 q 767 1315 743 1315 q 810 1297 792 1315 q 828 1254 828 1279 q 816 1220 828 1236 q 779 1196 804 1204 l 640 1138 q 654 1075 654 1106 q 634 1003 654 1035 q 581 953 614 971 l 978 83 m 510 1143 q 464 1124 482 1143 q 446 1075 446 1104 q 464 1026 446 1046 q 510 1007 482 1007 q 556 1027 538 1007 q 575 1075 575 1047 q 556 1123 575 1103 q 510 1143 538 1143 m 715 356 l 511 815 l 308 356 l 715 356 z "},"Ã":{"ha":1019,"x_min":35,"x_max":985,"o":"m 978 83 q 985 56 985 67 q 963 11 985 29 q 915 -7 942 -7 q 881 3 897 -7 q 857 33 865 14 l 765 242 l 257 242 l 165 33 q 140 3 157 14 q 106 -7 124 -7 q 56 11 78 -7 q 35 56 35 29 q 42 83 35 67 l 433 940 q 465 975 443 963 q 510 988 486 988 q 555 975 533 988 q 586 940 576 963 l 978 83 m 715 356 l 511 815 l 308 356 l 715 356 m 610 1094 q 560 1102 586 1094 q 500 1124 535 1110 q 411 1147 440 1147 q 378 1139 390 1147 q 354 1115 365 1131 q 345 1106 351 1113 q 333 1097 339 1100 q 319 1093 326 1093 q 294 1104 304 1093 q 285 1132 285 1115 q 301 1184 285 1157 q 345 1229 317 1211 q 410 1247 374 1247 q 459 1240 433 1247 q 519 1218 485 1232 q 608 1194 579 1194 q 642 1203 629 1194 q 665 1225 654 1211 q 683 1242 676 1238 q 700 1247 690 1247 q 725 1237 715 1247 q 735 1210 735 1226 q 719 1158 735 1185 q 674 1113 703 1131 q 610 1094 646 1094 z "},"Æ":{"ha":1381,"x_min":13,"x_max":1331,"o":"m 1264 117 q 1313 101 1296 117 q 1331 58 1331 86 q 1313 15 1331 31 q 1264 0 1296 0 l 850 0 q 805 14 822 0 q 782 51 788 28 l 740 242 l 274 242 l 146 33 q 115 2 133 13 q 76 -8 96 -8 q 32 7 51 -8 q 13 44 13 22 q 26 83 13 64 l 563 940 q 596 969 575 960 q 643 979 617 979 l 1264 979 q 1313 964 1296 979 q 1331 921 1331 949 q 1313 878 1331 893 q 1264 863 1296 863 l 738 863 l 804 556 l 1236 556 q 1285 540 1268 556 q 1303 497 1303 525 q 1285 454 1303 469 q 1236 439 1268 439 l 829 439 l 899 117 l 1264 117 m 717 356 l 619 808 l 343 356 l 717 356 z "},"Ǽ":{"ha":1381,"x_min":13,"x_max":1331,"o":"m 1264 117 q 1313 101 1296 117 q 1331 58 1331 86 q 1313 15 1331 31 q 1264 0 1296 0 l 850 0 q 805 14 822 0 q 782 51 788 28 l 740 242 l 274 242 l 146 33 q 115 2 133 13 q 76 -8 96 -8 q 32 7 51 -8 q 13 44 13 22 q 26 83 13 64 l 563 940 q 596 969 575 960 q 643 979 617 979 l 1264 979 q 1313 964 1296 979 q 1331 921 1331 949 q 1313 878 1331 893 q 1264 863 1296 863 l 738 863 l 804 556 l 1236 556 q 1285 540 1268 556 q 1303 497 1303 525 q 1285 454 1303 469 q 1236 439 1268 439 l 829 439 l 899 117 l 1264 117 m 717 356 l 619 808 l 343 356 l 717 356 m 715 1061 q 694 1056 706 1056 q 669 1065 679 1056 q 658 1089 658 1075 q 671 1115 658 1103 l 803 1256 q 857 1282 829 1282 q 897 1265 881 1282 q 914 1225 914 1249 q 875 1168 914 1192 l 715 1061 z "},"B":{"ha":942,"x_min":114,"x_max":868,"o":"m 690 504 q 822 419 775 481 q 868 267 868 358 q 781 70 868 140 q 539 0 694 0 l 185 0 q 133 19 151 0 q 114 69 114 38 l 114 910 q 133 960 114 942 q 185 979 151 979 l 524 979 q 760 912 675 979 q 846 724 846 844 q 805 589 846 646 q 690 504 764 532 m 254 556 l 501 556 q 707 711 707 556 q 656 826 707 789 q 501 864 606 864 l 254 864 l 254 556 m 524 115 q 681 154 631 115 q 731 275 731 193 q 680 399 731 358 q 524 440 629 440 l 254 440 l 254 115 l 524 115 z "},"C":{"ha":940,"x_min":81,"x_max":883,"o":"m 540 -11 q 296 49 400 -11 q 136 223 192 110 q 81 490 81 336 q 136 756 81 643 q 296 930 192 869 q 540 990 400 990 q 714 962 632 990 q 857 879 796 933 q 883 824 883 858 q 869 781 883 799 q 836 764 856 764 q 790 782 813 764 q 669 852 724 832 q 544 872 614 872 q 310 774 392 872 q 228 490 228 675 q 310 206 228 304 q 544 107 392 107 q 666 128 611 107 q 790 197 721 149 q 836 215 818 215 q 869 198 856 215 q 883 156 883 181 q 857 100 883 121 q 714 17 796 46 q 540 -11 632 -11 z "},"Ć":{"ha":940,"x_min":81,"x_max":883,"o":"m 540 -11 q 296 49 400 -11 q 136 223 192 110 q 81 490 81 336 q 136 756 81 643 q 296 930 192 869 q 540 990 400 990 q 714 962 632 990 q 857 879 796 933 q 883 824 883 858 q 869 781 883 799 q 836 764 856 764 q 790 782 813 764 q 669 852 724 832 q 544 872 614 872 q 310 774 392 872 q 228 490 228 675 q 310 206 228 304 q 544 107 392 107 q 666 128 611 107 q 790 197 721 149 q 836 215 818 215 q 869 198 856 215 q 883 156 883 181 q 857 100 883 121 q 714 17 796 46 q 540 -11 632 -11 m 561 1061 q 540 1056 551 1056 q 515 1065 525 1056 q 504 1089 504 1075 q 517 1115 504 1103 l 649 1256 q 703 1282 675 1282 q 743 1265 726 1282 q 760 1225 760 1249 q 721 1168 760 1192 l 561 1061 z "},"Č":{"ha":940,"x_min":81,"x_max":883,"o":"m 540 -11 q 296 49 400 -11 q 136 223 192 110 q 81 490 81 336 q 136 756 81 643 q 296 930 192 869 q 540 990 400 990 q 714 962 632 990 q 857 879 796 933 q 883 824 883 858 q 869 781 883 799 q 836 764 856 764 q 790 782 813 764 q 669 852 724 832 q 544 872 614 872 q 310 774 392 872 q 228 490 228 675 q 310 206 228 304 q 544 107 392 107 q 666 128 611 107 q 790 197 721 149 q 836 215 818 215 q 869 198 856 215 q 883 156 883 181 q 857 100 883 121 q 714 17 796 46 q 540 -11 632 -11 m 540 1056 q 483 1079 508 1056 l 364 1197 q 346 1235 346 1215 q 359 1267 346 1254 q 392 1281 372 1281 q 429 1264 413 1281 l 540 1144 l 651 1264 q 689 1281 668 1281 q 721 1267 707 1281 q 735 1235 735 1254 q 717 1197 735 1215 l 597 1079 q 540 1056 572 1056 z "},"Ç":{"ha":940,"x_min":81,"x_max":883,"o":"m 836 215 q 869 198 856 215 q 883 156 883 181 q 857 100 883 121 q 727 22 801 50 q 569 -10 653 -6 l 563 -61 q 597 -57 582 -57 q 670 -82 640 -57 q 700 -153 700 -107 q 656 -237 700 -204 q 529 -269 611 -269 q 433 -254 475 -269 q 408 -219 408 -244 q 420 -192 408 -203 q 451 -186 432 -181 q 529 -197 493 -197 q 585 -186 565 -197 q 604 -153 604 -175 q 594 -127 604 -136 q 564 -118 583 -118 q 526 -124 550 -118 q 497 -129 503 -129 q 477 -122 486 -129 q 469 -101 468 -114 l 481 -8 q 267 68 357 4 q 128 240 176 132 q 81 490 81 347 q 136 756 81 643 q 296 930 192 869 q 540 990 400 990 q 714 962 632 990 q 857 879 796 933 q 883 824 883 858 q 869 781 883 799 q 836 764 856 764 q 790 782 813 764 q 669 852 724 832 q 544 872 614 872 q 310 774 392 872 q 228 490 228 675 q 310 206 228 304 q 544 107 392 107 q 666 128 611 107 q 790 197 721 149 q 836 215 818 215 z "},"Ḉ":{"ha":940,"x_min":81,"x_max":883,"o":"m 561 1061 q 540 1056 551 1056 q 515 1065 525 1056 q 504 1089 504 1075 q 517 1115 504 1103 l 649 1256 q 703 1282 675 1282 q 743 1265 726 1282 q 760 1225 760 1249 q 721 1168 760 1192 l 561 1061 m 836 215 q 869 198 856 215 q 883 156 883 181 q 857 100 883 121 q 727 22 801 50 q 569 -10 653 -6 l 563 -61 q 597 -57 582 -57 q 670 -82 640 -57 q 700 -153 700 -107 q 656 -237 700 -204 q 529 -269 611 -269 q 433 -254 475 -269 q 408 -219 408 -244 q 420 -192 408 -203 q 451 -186 432 -181 q 529 -197 493 -197 q 585 -186 565 -197 q 604 -153 604 -175 q 594 -127 604 -136 q 564 -118 583 -118 q 526 -124 550 -118 q 497 -129 503 -129 q 477 -122 486 -129 q 469 -101 468 -114 l 481 -8 q 267 68 357 4 q 128 240 176 132 q 81 490 81 347 q 136 756 81 643 q 296 930 192 869 q 540 990 400 990 q 714 962 632 990 q 857 879 796 933 q 883 824 883 858 q 869 781 883 799 q 836 764 856 764 q 790 782 813 764 q 669 852 724 832 q 544 872 614 872 q 310 774 392 872 q 228 490 228 675 q 310 206 228 304 q 544 107 392 107 q 666 128 611 107 q 790 197 721 149 q 836 215 818 215 z "},"Ĉ":{"ha":940,"x_min":81,"x_max":883,"o":"m 540 -11 q 296 49 400 -11 q 136 223 192 110 q 81 490 81 336 q 136 756 81 643 q 296 930 192 869 q 540 990 400 990 q 714 962 632 990 q 857 879 796 933 q 883 824 883 858 q 869 781 883 799 q 836 764 856 764 q 790 782 813 764 q 669 852 724 832 q 544 872 614 872 q 310 774 392 872 q 228 490 228 675 q 310 206 228 304 q 544 107 392 107 q 666 128 611 107 q 790 197 721 149 q 836 215 818 215 q 869 198 856 215 q 883 156 883 181 q 857 100 883 121 q 714 17 796 46 q 540 -11 632 -11 m 429 1072 q 392 1056 413 1056 q 359 1069 372 1056 q 346 1101 346 1083 q 364 1139 346 1121 l 483 1257 q 540 1281 508 1281 q 597 1257 572 1281 l 717 1139 q 735 1101 735 1121 q 721 1069 735 1083 q 688 1056 707 1056 q 651 1072 668 1056 l 540 1192 l 429 1072 z "},"Ċ":{"ha":940,"x_min":81,"x_max":883,"o":"m 540 -11 q 296 49 400 -11 q 136 223 192 110 q 81 490 81 336 q 136 756 81 643 q 296 930 192 869 q 540 990 400 990 q 714 962 632 990 q 857 879 796 933 q 883 824 883 858 q 869 781 883 799 q 836 764 856 764 q 790 782 813 764 q 669 852 724 832 q 544 872 614 872 q 310 774 392 872 q 228 490 228 675 q 310 206 228 304 q 544 107 392 107 q 666 128 611 107 q 790 197 721 149 q 836 215 818 215 q 869 198 856 215 q 883 156 883 181 q 857 100 883 121 q 714 17 796 46 q 540 -11 632 -11 m 540 1089 q 476 1111 500 1089 q 453 1169 453 1133 q 476 1228 453 1207 q 540 1250 500 1250 q 603 1228 579 1250 q 628 1169 628 1207 q 604 1111 628 1133 q 540 1089 581 1089 z "},"D":{"ha":1036,"x_min":114,"x_max":956,"o":"m 185 0 q 133 19 151 0 q 114 69 114 38 l 114 910 q 133 960 114 942 q 185 979 151 979 l 457 979 q 825 851 694 979 q 956 490 956 724 q 825 128 956 257 q 457 0 694 0 l 185 0 m 449 119 q 810 490 810 119 q 449 860 810 860 l 257 860 l 257 119 l 449 119 z "},"Ǆ":{"ha":1842,"x_min":114,"x_max":1806,"o":"m 185 0 q 133 19 151 0 q 114 69 114 38 l 114 910 q 133 960 114 942 q 185 979 151 979 l 457 979 q 825 851 694 979 q 956 490 956 724 q 825 128 956 257 q 457 0 694 0 l 185 0 m 449 119 q 810 490 810 119 q 449 860 810 860 l 257 860 l 257 119 l 449 119 m 1739 117 q 1806 58 1806 117 q 1739 0 1806 0 l 1131 0 q 1084 17 1101 0 q 1067 60 1067 33 q 1085 114 1067 88 l 1614 863 l 1135 863 q 1068 921 1068 863 q 1135 979 1068 979 l 1725 979 q 1773 962 1756 979 q 1790 918 1790 944 q 1772 867 1790 890 l 1242 117 l 1739 117 m 1429 1056 q 1372 1079 1397 1056 l 1253 1197 q 1235 1235 1235 1215 q 1248 1267 1235 1254 q 1281 1281 1261 1281 q 1318 1264 1301 1281 l 1429 1144 l 1540 1264 q 1578 1281 1557 1281 q 1610 1267 1596 1281 q 1624 1235 1624 1254 q 1606 1197 1624 1215 l 1486 1079 q 1429 1056 1461 1056 z "},"Ð":{"ha":1061,"x_min":0,"x_max":981,"o":"m 482 979 q 850 851 719 979 q 981 490 981 724 q 850 128 981 257 q 482 0 719 0 l 210 0 q 158 19 176 0 q 139 69 139 38 l 139 440 l 65 440 q 17 455 35 440 q 0 496 0 469 q 17 538 0 522 q 65 553 35 553 l 139 553 l 139 910 q 158 960 139 942 q 210 979 176 979 l 482 979 m 474 119 q 835 490 835 119 q 474 860 835 860 l 282 860 l 282 553 l 497 553 q 543 538 526 553 q 560 496 560 522 q 543 455 560 469 q 497 440 526 440 l 282 440 l 282 119 l 474 119 z "},"Ď":{"ha":1036,"x_min":114,"x_max":956,"o":"m 185 0 q 133 19 151 0 q 114 69 114 38 l 114 910 q 133 960 114 942 q 185 979 151 979 l 457 979 q 825 851 694 979 q 956 490 956 724 q 825 128 956 257 q 457 0 694 0 l 185 0 m 449 119 q 810 490 810 119 q 449 860 810 860 l 257 860 l 257 119 l 449 119 m 517 1056 q 460 1079 485 1056 l 340 1197 q 322 1235 322 1215 q 335 1267 322 1254 q 368 1281 349 1281 q 406 1264 389 1281 l 517 1144 l 628 1264 q 665 1281 644 1281 q 697 1267 683 1281 q 711 1235 711 1254 q 693 1197 711 1215 l 574 1079 q 517 1056 549 1056 z "},"Đ":{"ha":1061,"x_min":0,"x_max":981,"o":"m 482 979 q 850 851 719 979 q 981 490 981 724 q 850 128 981 257 q 482 0 719 0 l 210 0 q 158 19 176 0 q 139 69 139 38 l 139 440 l 65 440 q 17 455 35 440 q 0 496 0 469 q 17 538 0 522 q 65 553 35 553 l 139 553 l 139 910 q 158 960 139 942 q 210 979 176 979 l 482 979 m 474 119 q 835 490 835 119 q 474 860 835 860 l 282 860 l 282 553 l 497 553 q 543 538 526 553 q 560 496 560 522 q 543 455 560 469 q 497 440 526 440 l 282 440 l 282 119 l 474 119 z "},"Ḍ":{"ha":1036,"x_min":114,"x_max":956,"o":"m 185 0 q 133 19 151 0 q 114 69 114 38 l 114 910 q 133 960 114 942 q 185 979 151 979 l 457 979 q 825 851 694 979 q 956 490 956 724 q 825 128 956 257 q 457 0 694 0 l 185 0 m 449 119 q 810 490 810 119 q 449 860 810 860 l 257 860 l 257 119 l 449 119 m 518 -267 q 460 -245 482 -267 q 438 -189 438 -224 q 460 -133 438 -154 q 518 -112 482 -112 q 576 -134 553 -112 q 599 -189 599 -156 q 576 -245 599 -224 q 518 -267 554 -267 z "},"Ḏ":{"ha":1036,"x_min":114,"x_max":956,"o":"m 185 0 q 133 19 151 0 q 114 69 114 38 l 114 910 q 133 960 114 942 q 185 979 151 979 l 457 979 q 825 851 694 979 q 956 490 956 724 q 825 128 956 257 q 457 0 694 0 l 185 0 m 449 119 q 810 490 810 119 q 449 860 810 860 l 257 860 l 257 119 l 449 119 m 350 -236 q 310 -224 325 -236 q 294 -190 294 -212 q 310 -156 294 -168 q 350 -143 325 -143 l 686 -143 q 726 -156 711 -143 q 742 -190 742 -168 q 726 -224 742 -212 q 686 -236 711 -236 l 350 -236 z "},"ǅ":{"ha":1739,"x_min":114,"x_max":1697,"o":"m 185 0 q 133 19 151 0 q 114 69 114 38 l 114 910 q 133 960 114 942 q 185 979 151 979 l 457 979 q 825 851 694 979 q 956 490 956 724 q 825 128 956 257 q 457 0 694 0 l 185 0 m 449 119 q 810 490 810 119 q 449 860 810 860 l 257 860 l 257 119 l 449 119 m 1635 108 q 1681 94 1665 108 q 1697 54 1697 79 q 1681 15 1697 29 q 1635 0 1665 0 l 1160 0 q 1111 17 1129 0 q 1093 61 1093 35 q 1114 113 1093 88 l 1500 569 l 1151 569 q 1106 584 1122 569 q 1090 624 1090 599 q 1106 663 1090 649 q 1151 678 1122 678 l 1613 678 q 1660 660 1642 678 q 1679 617 1679 642 q 1658 565 1679 590 l 1272 108 l 1635 108 m 1394 760 q 1362 769 1375 760 q 1333 797 1349 778 l 1208 975 q 1197 1007 1197 990 q 1213 1040 1197 1026 q 1247 1054 1228 1054 q 1290 1028 1272 1054 l 1394 861 l 1499 1028 q 1542 1054 1517 1054 q 1576 1040 1561 1054 q 1592 1007 1592 1026 q 1581 975 1592 990 l 1456 796 q 1428 769 1442 778 q 1394 760 1414 760 z "},"E":{"ha":813,"x_min":114,"x_max":763,"o":"m 185 0 q 133 19 151 0 q 114 69 114 38 l 114 910 q 133 960 114 942 q 185 979 151 979 l 696 979 q 745 964 728 979 q 763 921 763 949 q 745 878 763 893 q 696 864 728 864 l 254 864 l 254 556 l 668 556 q 717 540 700 556 q 735 497 735 525 q 717 454 735 469 q 668 439 700 439 l 254 439 l 254 115 l 696 115 q 763 58 763 115 q 745 15 763 31 q 696 0 728 0 l 185 0 z "},"É":{"ha":813,"x_min":114,"x_max":763,"o":"m 185 0 q 133 19 151 0 q 114 69 114 38 l 114 910 q 133 960 114 942 q 185 979 151 979 l 696 979 q 745 964 728 979 q 763 921 763 949 q 745 878 763 893 q 696 864 728 864 l 254 864 l 254 556 l 668 556 q 717 540 700 556 q 735 497 735 525 q 717 454 735 469 q 668 439 700 439 l 254 439 l 254 115 l 696 115 q 763 58 763 115 q 745 15 763 31 q 696 0 728 0 l 185 0 m 474 1061 q 453 1056 464 1056 q 427 1065 438 1056 q 417 1089 417 1075 q 429 1115 417 1103 l 561 1256 q 615 1282 588 1282 q 656 1265 639 1282 q 672 1225 672 1249 q 633 1168 672 1192 l 474 1061 z "},"Ĕ":{"ha":813,"x_min":114,"x_max":763,"o":"m 185 0 q 133 19 151 0 q 114 69 114 38 l 114 910 q 133 960 114 942 q 185 979 151 979 l 696 979 q 745 964 728 979 q 763 921 763 949 q 745 878 763 893 q 696 864 728 864 l 254 864 l 254 556 l 668 556 q 717 540 700 556 q 735 497 735 525 q 717 454 735 469 q 668 439 700 439 l 254 439 l 254 115 l 696 115 q 763 58 763 115 q 745 15 763 31 q 696 0 728 0 l 185 0 m 453 1078 q 321 1108 378 1078 q 235 1193 264 1138 q 226 1221 226 1208 q 239 1249 226 1238 q 268 1261 251 1261 q 314 1238 294 1261 q 453 1171 363 1171 q 592 1238 543 1171 q 636 1261 611 1261 q 666 1249 653 1261 q 679 1221 679 1238 q 671 1193 679 1208 q 585 1108 643 1139 q 453 1078 528 1078 z "},"Ě":{"ha":813,"x_min":114,"x_max":763,"o":"m 185 0 q 133 19 151 0 q 114 69 114 38 l 114 910 q 133 960 114 942 q 185 979 151 979 l 696 979 q 745 964 728 979 q 763 921 763 949 q 745 878 763 893 q 696 864 728 864 l 254 864 l 254 556 l 668 556 q 717 540 700 556 q 735 497 735 525 q 717 454 735 469 q 668 439 700 439 l 254 439 l 254 115 l 696 115 q 763 58 763 115 q 745 15 763 31 q 696 0 728 0 l 185 0 m 453 1056 q 396 1079 421 1056 l 276 1197 q 258 1235 258 1215 q 272 1267 258 1254 q 304 1281 285 1281 q 342 1264 325 1281 l 453 1144 l 564 1264 q 601 1281 581 1281 q 633 1267 619 1281 q 647 1235 647 1254 q 629 1197 647 1215 l 510 1079 q 453 1056 485 1056 z "},"Ȩ":{"ha":813,"x_min":114,"x_max":763,"o":"m 696 115 q 763 58 763 115 q 745 15 763 31 q 696 0 728 0 l 485 0 l 476 -61 q 511 -57 496 -57 q 584 -82 554 -57 q 614 -153 614 -107 q 569 -237 614 -204 q 443 -269 525 -269 q 347 -254 389 -269 q 322 -219 322 -244 q 334 -192 322 -203 q 365 -186 346 -181 q 443 -197 407 -197 q 499 -186 479 -197 q 518 -153 518 -175 q 508 -127 518 -136 q 478 -118 497 -118 q 440 -124 464 -118 q 411 -129 417 -129 q 391 -122 400 -129 q 383 -101 382 -114 l 396 0 l 185 0 q 133 19 151 0 q 114 69 114 38 l 114 910 q 133 960 114 942 q 185 979 151 979 l 696 979 q 745 964 728 979 q 763 921 763 949 q 745 878 763 893 q 696 864 728 864 l 254 864 l 254 556 l 668 556 q 717 540 700 556 q 735 497 735 525 q 717 454 735 469 q 668 439 700 439 l 254 439 l 254 115 l 696 115 z "},"Ḝ":{"ha":813,"x_min":114,"x_max":763,"o":"m 453 1078 q 321 1108 378 1078 q 235 1193 264 1138 q 226 1221 226 1208 q 239 1249 226 1238 q 268 1261 251 1261 q 314 1238 294 1261 q 453 1171 363 1171 q 592 1238 543 1171 q 636 1261 611 1261 q 666 1249 653 1261 q 679 1221 679 1238 q 671 1193 679 1208 q 585 1108 643 1139 q 453 1078 528 1078 m 696 115 q 763 58 763 115 q 745 15 763 31 q 696 0 728 0 l 485 0 l 476 -61 q 511 -57 496 -57 q 584 -82 554 -57 q 614 -153 614 -107 q 569 -237 614 -204 q 443 -269 525 -269 q 347 -254 389 -269 q 322 -219 322 -244 q 334 -192 322 -203 q 365 -186 346 -181 q 443 -197 407 -197 q 499 -186 479 -197 q 518 -153 518 -175 q 508 -127 518 -136 q 478 -118 497 -118 q 440 -124 464 -118 q 411 -129 417 -129 q 391 -122 400 -129 q 383 -101 382 -114 l 396 0 l 185 0 q 133 19 151 0 q 114 69 114 38 l 114 910 q 133 960 114 942 q 185 979 151 979 l 696 979 q 745 964 728 979 q 763 921 763 949 q 745 878 763 893 q 696 864 728 864 l 254 864 l 254 556 l 668 556 q 717 540 700 556 q 735 497 735 525 q 717 454 735 469 q 668 439 700 439 l 254 439 l 254 115 l 696 115 z "},"Ê":{"ha":813,"x_min":114,"x_max":763,"o":"m 185 0 q 133 19 151 0 q 114 69 114 38 l 114 910 q 133 960 114 942 q 185 979 151 979 l 696 979 q 745 964 728 979 q 763 921 763 949 q 745 878 763 893 q 696 864 728 864 l 254 864 l 254 556 l 668 556 q 717 540 700 556 q 735 497 735 525 q 717 454 735 469 q 668 439 700 439 l 254 439 l 254 115 l 696 115 q 763 58 763 115 q 745 15 763 31 q 696 0 728 0 l 185 0 m 342 1072 q 304 1056 325 1056 q 272 1069 285 1056 q 258 1101 258 1083 q 276 1139 258 1121 l 396 1257 q 453 1281 421 1281 q 510 1257 485 1281 l 629 1139 q 647 1101 647 1121 q 633 1069 647 1083 q 600 1056 619 1056 q 564 1072 581 1056 l 453 1192 l 342 1072 z "},"Ế":{"ha":813,"x_min":114,"x_max":796,"o":"m 185 0 q 133 19 151 0 q 114 69 114 38 l 114 910 q 133 960 114 942 q 185 979 151 979 l 696 979 q 745 964 728 979 q 763 921 763 949 q 745 878 763 893 q 696 864 728 864 l 254 864 l 254 556 l 668 556 q 717 540 700 556 q 735 497 735 525 q 717 454 735 469 q 668 439 700 439 l 254 439 l 254 115 l 696 115 q 763 58 763 115 q 745 15 763 31 q 696 0 728 0 l 185 0 m 636 1206 q 617 1200 626 1200 q 591 1210 601 1200 q 581 1235 581 1221 q 590 1260 581 1249 l 686 1383 q 738 1411 708 1411 q 778 1394 761 1411 q 796 1353 796 1376 q 760 1297 796 1318 l 636 1206 m 338 1069 q 306 1057 325 1057 q 272 1070 286 1057 q 258 1101 258 1083 q 281 1142 258 1125 l 396 1249 q 453 1271 424 1271 q 510 1249 479 1271 l 625 1142 q 649 1101 649 1124 q 634 1069 649 1083 q 600 1056 619 1056 q 569 1068 585 1056 l 453 1183 l 338 1069 z "},"Ệ":{"ha":813,"x_min":114,"x_max":763,"o":"m 185 0 q 133 19 151 0 q 114 69 114 38 l 114 910 q 133 960 114 942 q 185 979 151 979 l 696 979 q 745 964 728 979 q 763 921 763 949 q 745 878 763 893 q 696 864 728 864 l 254 864 l 254 556 l 668 556 q 717 540 700 556 q 735 497 735 525 q 717 454 735 469 q 668 439 700 439 l 254 439 l 254 115 l 696 115 q 763 58 763 115 q 745 15 763 31 q 696 0 728 0 l 185 0 m 453 -267 q 394 -245 417 -267 q 372 -189 372 -224 q 394 -133 372 -154 q 453 -112 417 -112 q 510 -134 488 -112 q 533 -189 533 -156 q 511 -245 533 -224 q 453 -267 489 -267 m 342 1072 q 304 1056 325 1056 q 272 1069 285 1056 q 258 1101 258 1083 q 276 1139 258 1121 l 396 1257 q 453 1281 421 1281 q 510 1257 485 1281 l 629 1139 q 647 1101 647 1121 q 633 1069 647 1083 q 600 1056 619 1056 q 564 1072 581 1056 l 453 1192 l 342 1072 z "},"Ề":{"ha":813,"x_min":114,"x_max":763,"o":"m 185 0 q 133 19 151 0 q 114 69 114 38 l 114 910 q 133 960 114 942 q 185 979 151 979 l 696 979 q 745 964 728 979 q 763 921 763 949 q 745 878 763 893 q 696 864 728 864 l 254 864 l 254 556 l 668 556 q 717 540 700 556 q 735 497 735 525 q 717 454 735 469 q 668 439 700 439 l 254 439 l 254 115 l 696 115 q 763 58 763 115 q 745 15 763 31 q 696 0 728 0 l 185 0 m 517 1300 q 483 1353 483 1324 q 502 1393 483 1375 q 544 1411 521 1411 q 594 1382 575 1411 l 686 1256 q 694 1232 694 1243 q 685 1209 694 1218 q 660 1200 675 1200 q 633 1208 646 1200 l 517 1300 m 338 1069 q 306 1057 325 1057 q 272 1070 286 1057 q 258 1101 258 1083 q 281 1142 258 1125 l 396 1249 q 453 1271 424 1271 q 510 1249 479 1271 l 625 1142 q 649 1101 649 1124 q 634 1069 649 1083 q 600 1056 619 1056 q 569 1068 585 1056 l 453 1183 l 338 1069 z "},"Ể":{"ha":813,"x_min":114,"x_max":765,"o":"m 185 0 q 133 19 151 0 q 114 69 114 38 l 114 910 q 133 960 114 942 q 185 979 151 979 l 696 979 q 745 964 728 979 q 763 921 763 949 q 745 878 763 893 q 696 864 728 864 l 254 864 l 254 556 l 668 556 q 717 540 700 556 q 735 497 735 525 q 717 454 735 469 q 668 439 700 439 l 254 439 l 254 115 l 696 115 q 763 58 763 115 q 745 15 763 31 q 696 0 728 0 l 185 0 m 656 1224 q 642 1206 654 1213 q 617 1200 631 1200 q 588 1208 600 1200 q 576 1235 576 1217 q 592 1270 576 1258 q 636 1294 608 1282 q 649 1301 640 1296 q 663 1310 658 1306 q 668 1319 668 1314 q 613 1340 668 1340 q 542 1332 592 1340 q 510 1339 522 1329 q 499 1363 499 1349 q 522 1393 499 1385 q 621 1410 563 1410 q 726 1386 688 1410 q 765 1326 765 1363 q 749 1285 765 1299 q 701 1258 732 1272 q 669 1242 679 1249 q 656 1224 658 1235 m 338 1069 q 306 1057 325 1057 q 272 1070 286 1057 q 258 1101 258 1083 q 281 1142 258 1125 l 396 1249 q 453 1271 424 1271 q 510 1249 479 1271 l 625 1142 q 649 1101 649 1124 q 634 1069 649 1083 q 600 1056 619 1056 q 569 1068 585 1056 l 453 1183 l 338 1069 z "},"Ễ":{"ha":813,"x_min":114,"x_max":763,"o":"m 185 0 q 133 19 151 0 q 114 69 114 38 l 114 910 q 133 960 114 942 q 185 979 151 979 l 696 979 q 745 964 728 979 q 763 921 763 949 q 745 878 763 893 q 696 864 728 864 l 254 864 l 254 556 l 668 556 q 717 540 700 556 q 735 497 735 525 q 717 454 735 469 q 668 439 700 439 l 254 439 l 254 115 l 696 115 q 763 58 763 115 q 745 15 763 31 q 696 0 728 0 l 185 0 m 553 1269 q 502 1277 528 1269 q 438 1299 476 1285 q 392 1315 414 1308 q 354 1322 369 1322 q 321 1314 333 1322 q 297 1292 308 1306 q 279 1274 286 1279 q 263 1269 272 1269 q 238 1279 247 1269 q 228 1304 228 1289 q 244 1350 228 1325 q 288 1392 260 1375 q 353 1408 317 1408 q 403 1401 378 1408 q 468 1379 429 1393 q 514 1363 492 1369 q 551 1356 536 1356 q 585 1364 572 1356 q 608 1386 597 1372 q 626 1403 619 1399 q 643 1408 633 1408 q 668 1399 658 1408 q 678 1374 678 1389 q 662 1328 678 1353 q 617 1287 646 1304 q 553 1269 589 1269 m 338 1069 q 306 1057 325 1057 q 272 1070 286 1057 q 258 1101 258 1083 q 281 1142 258 1125 l 396 1249 q 453 1271 424 1271 q 510 1249 479 1271 l 625 1142 q 649 1101 649 1124 q 634 1069 649 1083 q 600 1056 619 1056 q 569 1068 585 1056 l 453 1183 l 338 1069 z "},"Ȅ":{"ha":813,"x_min":114,"x_max":763,"o":"m 185 0 q 133 19 151 0 q 114 69 114 38 l 114 910 q 133 960 114 942 q 185 979 151 979 l 696 979 q 745 964 728 979 q 763 921 763 949 q 745 878 763 893 q 696 864 728 864 l 254 864 l 254 556 l 668 556 q 717 540 700 556 q 735 497 735 525 q 717 454 735 469 q 668 439 700 439 l 254 439 l 254 115 l 696 115 q 763 58 763 115 q 745 15 763 31 q 696 0 728 0 l 185 0 m 239 1188 q 221 1229 221 1207 q 238 1266 221 1250 q 275 1282 254 1282 q 325 1244 310 1282 l 393 1104 q 397 1086 397 1094 q 388 1064 397 1072 q 367 1056 379 1056 q 339 1069 351 1056 l 239 1188 m 414 1188 q 396 1229 396 1207 q 412 1266 396 1250 q 449 1282 428 1282 q 500 1244 482 1282 l 568 1104 q 572 1088 572 1096 q 563 1065 572 1074 q 542 1056 554 1056 q 513 1069 525 1056 l 414 1188 z "},"Ë":{"ha":813,"x_min":114,"x_max":763,"o":"m 185 0 q 133 19 151 0 q 114 69 114 38 l 114 910 q 133 960 114 942 q 185 979 151 979 l 696 979 q 745 964 728 979 q 763 921 763 949 q 745 878 763 893 q 696 864 728 864 l 254 864 l 254 556 l 668 556 q 717 540 700 556 q 735 497 735 525 q 717 454 735 469 q 668 439 700 439 l 254 439 l 254 115 l 696 115 q 763 58 763 115 q 745 15 763 31 q 696 0 728 0 l 185 0 m 331 1094 q 274 1115 296 1094 q 251 1169 251 1136 q 274 1225 251 1204 q 331 1246 296 1246 q 387 1224 364 1246 q 410 1169 410 1203 q 388 1115 410 1136 q 331 1094 365 1094 m 575 1094 q 519 1115 542 1094 q 497 1169 497 1136 q 519 1224 497 1203 q 575 1246 542 1246 q 632 1225 610 1246 q 654 1169 654 1204 q 632 1115 654 1136 q 575 1094 610 1094 z "},"Ė":{"ha":813,"x_min":114,"x_max":763,"o":"m 185 0 q 133 19 151 0 q 114 69 114 38 l 114 910 q 133 960 114 942 q 185 979 151 979 l 696 979 q 745 964 728 979 q 763 921 763 949 q 745 878 763 893 q 696 864 728 864 l 254 864 l 254 556 l 668 556 q 717 540 700 556 q 735 497 735 525 q 717 454 735 469 q 668 439 700 439 l 254 439 l 254 115 l 696 115 q 763 58 763 115 q 745 15 763 31 q 696 0 728 0 l 185 0 m 453 1089 q 389 1111 413 1089 q 365 1169 365 1133 q 389 1228 365 1207 q 453 1250 413 1250 q 516 1228 492 1250 q 540 1169 540 1207 q 517 1111 540 1133 q 453 1089 493 1089 z "},"Ẹ":{"ha":813,"x_min":114,"x_max":763,"o":"m 185 0 q 133 19 151 0 q 114 69 114 38 l 114 910 q 133 960 114 942 q 185 979 151 979 l 696 979 q 745 964 728 979 q 763 921 763 949 q 745 878 763 893 q 696 864 728 864 l 254 864 l 254 556 l 668 556 q 717 540 700 556 q 735 497 735 525 q 717 454 735 469 q 668 439 700 439 l 254 439 l 254 115 l 696 115 q 763 58 763 115 q 745 15 763 31 q 696 0 728 0 l 185 0 m 453 -267 q 394 -245 417 -267 q 372 -189 372 -224 q 394 -133 372 -154 q 453 -112 417 -112 q 510 -134 488 -112 q 533 -189 533 -156 q 511 -245 533 -224 q 453 -267 489 -267 z "},"È":{"ha":813,"x_min":114,"x_max":763,"o":"m 185 0 q 133 19 151 0 q 114 69 114 38 l 114 910 q 133 960 114 942 q 185 979 151 979 l 696 979 q 745 964 728 979 q 763 921 763 949 q 745 878 763 893 q 696 864 728 864 l 254 864 l 254 556 l 668 556 q 717 540 700 556 q 735 497 735 525 q 717 454 735 469 q 668 439 700 439 l 254 439 l 254 115 l 696 115 q 763 58 763 115 q 745 15 763 31 q 696 0 728 0 l 185 0 m 272 1168 q 233 1225 233 1192 q 250 1265 233 1249 q 290 1282 267 1282 q 344 1256 318 1282 l 476 1115 q 489 1089 489 1103 q 478 1065 489 1075 q 453 1056 468 1056 q 432 1061 442 1056 l 272 1168 z "},"Ẻ":{"ha":813,"x_min":114,"x_max":763,"o":"m 185 0 q 133 19 151 0 q 114 69 114 38 l 114 910 q 133 960 114 942 q 185 979 151 979 l 696 979 q 745 964 728 979 q 763 921 763 949 q 745 878 763 893 q 696 864 728 864 l 254 864 l 254 556 l 668 556 q 717 540 700 556 q 735 497 735 525 q 717 454 735 469 q 668 439 700 439 l 254 439 l 254 115 l 696 115 q 763 58 763 115 q 745 15 763 31 q 696 0 728 0 l 185 0 m 496 1082 q 483 1063 494 1069 q 457 1056 472 1056 q 427 1065 440 1056 q 414 1093 414 1075 q 428 1130 414 1117 q 471 1156 443 1143 q 497 1171 490 1165 q 504 1185 504 1176 q 490 1203 504 1196 q 451 1210 476 1210 q 381 1199 421 1210 q 350 1206 363 1194 q 338 1232 338 1217 q 344 1251 338 1242 q 361 1264 350 1260 q 460 1281 401 1281 q 565 1256 526 1281 q 604 1193 604 1232 q 588 1149 604 1164 q 542 1121 572 1135 q 508 1102 518 1110 q 496 1082 499 1094 z "},"Ȇ":{"ha":813,"x_min":114,"x_max":763,"o":"m 185 0 q 133 19 151 0 q 114 69 114 38 l 114 910 q 133 960 114 942 q 185 979 151 979 l 696 979 q 745 964 728 979 q 763 921 763 949 q 745 878 763 893 q 696 864 728 864 l 254 864 l 254 556 l 668 556 q 717 540 700 556 q 735 497 735 525 q 717 454 735 469 q 668 439 700 439 l 254 439 l 254 115 l 696 115 q 763 58 763 115 q 745 15 763 31 q 696 0 728 0 l 185 0 m 314 1100 q 269 1076 294 1076 q 240 1088 253 1076 q 226 1118 226 1100 q 235 1146 226 1132 q 320 1231 263 1200 q 453 1261 378 1261 q 584 1231 526 1261 q 671 1146 642 1201 q 679 1117 679 1129 q 667 1088 679 1100 q 638 1076 654 1076 q 592 1100 611 1076 q 453 1167 543 1167 q 314 1100 363 1167 z "},"Ē":{"ha":813,"x_min":114,"x_max":763,"o":"m 185 0 q 133 19 151 0 q 114 69 114 38 l 114 910 q 133 960 114 942 q 185 979 151 979 l 696 979 q 745 964 728 979 q 763 921 763 949 q 745 878 763 893 q 696 864 728 864 l 254 864 l 254 556 l 668 556 q 717 540 700 556 q 735 497 735 525 q 717 454 735 469 q 668 439 700 439 l 254 439 l 254 115 l 696 115 q 763 58 763 115 q 745 15 763 31 q 696 0 728 0 l 185 0 m 285 1121 q 244 1134 260 1121 q 229 1169 229 1147 q 244 1206 229 1193 q 285 1218 260 1218 l 621 1218 q 661 1206 646 1218 q 676 1169 676 1193 q 661 1134 676 1147 q 621 1121 646 1121 l 285 1121 z "},"Ḗ":{"ha":813,"x_min":114,"x_max":763,"o":"m 185 0 q 133 19 151 0 q 114 69 114 38 l 114 910 q 133 960 114 942 q 185 979 151 979 l 696 979 q 745 964 728 979 q 763 921 763 949 q 745 878 763 893 q 696 864 728 864 l 254 864 l 254 556 l 668 556 q 717 540 700 556 q 735 497 735 525 q 717 454 735 469 q 668 439 700 439 l 254 439 l 254 115 l 696 115 q 763 58 763 115 q 745 15 763 31 q 696 0 728 0 l 185 0 m 285 1121 q 244 1134 260 1121 q 229 1169 229 1147 q 244 1206 229 1193 q 285 1218 260 1218 l 621 1218 q 661 1206 646 1218 q 676 1169 676 1193 q 661 1134 676 1147 q 621 1121 646 1121 l 285 1121 m 474 1283 q 453 1278 464 1278 q 427 1288 438 1278 q 417 1311 417 1297 q 429 1338 417 1325 l 561 1478 q 615 1504 588 1504 q 656 1488 639 1504 q 672 1447 672 1471 q 633 1390 672 1414 l 474 1283 z "},"Ḕ":{"ha":813,"x_min":114,"x_max":763,"o":"m 185 0 q 133 19 151 0 q 114 69 114 38 l 114 910 q 133 960 114 942 q 185 979 151 979 l 696 979 q 745 964 728 979 q 763 921 763 949 q 745 878 763 893 q 696 864 728 864 l 254 864 l 254 556 l 668 556 q 717 540 700 556 q 735 497 735 525 q 717 454 735 469 q 668 439 700 439 l 254 439 l 254 115 l 696 115 q 763 58 763 115 q 745 15 763 31 q 696 0 728 0 l 185 0 m 285 1121 q 244 1134 260 1121 q 229 1169 229 1147 q 244 1206 229 1193 q 285 1218 260 1218 l 621 1218 q 661 1206 646 1218 q 676 1169 676 1193 q 661 1134 676 1147 q 621 1121 646 1121 l 285 1121 m 272 1390 q 233 1447 233 1414 q 250 1488 233 1471 q 290 1504 267 1504 q 344 1478 318 1504 l 476 1338 q 489 1311 489 1325 q 478 1288 489 1297 q 453 1278 468 1278 q 432 1283 442 1278 l 272 1390 z "},"Ę":{"ha":813,"x_min":114,"x_max":804,"o":"m 760 -171 q 775 -168 765 -168 q 796 -178 788 -168 q 804 -203 804 -189 q 782 -242 804 -229 q 674 -269 736 -269 q 553 -228 600 -269 q 507 -122 507 -186 q 561 0 507 -49 l 185 0 q 133 19 151 0 q 114 69 114 38 l 114 910 q 133 960 114 942 q 185 979 151 979 l 696 979 q 745 964 728 979 q 763 921 763 949 q 696 864 763 864 l 254 864 l 254 556 l 668 556 q 717 540 700 556 q 735 497 735 525 q 717 454 735 469 q 668 439 700 439 l 254 439 l 254 115 l 696 115 q 763 58 763 115 q 710 0 763 10 q 634 -33 660 -6 q 608 -103 608 -61 q 632 -164 608 -142 q 693 -186 656 -186 q 760 -171 718 -186 z "},"Ẽ":{"ha":813,"x_min":114,"x_max":763,"o":"m 185 0 q 133 19 151 0 q 114 69 114 38 l 114 910 q 133 960 114 942 q 185 979 151 979 l 696 979 q 745 964 728 979 q 763 921 763 949 q 745 878 763 893 q 696 864 728 864 l 254 864 l 254 556 l 668 556 q 717 540 700 556 q 735 497 735 525 q 717 454 735 469 q 668 439 700 439 l 254 439 l 254 115 l 696 115 q 763 58 763 115 q 745 15 763 31 q 696 0 728 0 l 185 0 m 553 1094 q 503 1102 529 1094 q 443 1124 478 1110 q 354 1147 383 1147 q 321 1139 333 1147 q 297 1115 308 1131 q 288 1106 294 1113 q 276 1097 282 1100 q 263 1093 269 1093 q 238 1104 247 1093 q 228 1132 228 1115 q 244 1184 228 1157 q 288 1229 260 1211 q 353 1247 317 1247 q 402 1240 376 1247 q 463 1218 428 1232 q 551 1194 522 1194 q 585 1203 572 1194 q 608 1225 597 1211 q 626 1242 619 1238 q 643 1247 633 1247 q 668 1237 658 1247 q 678 1210 678 1226 q 662 1158 678 1185 q 617 1113 646 1131 q 553 1094 589 1094 z "},"F":{"ha":779,"x_min":114,"x_max":749,"o":"m 185 -7 q 133 13 153 -7 q 114 65 114 33 l 114 910 q 133 960 114 942 q 185 979 151 979 l 682 979 q 749 921 749 979 q 682 863 749 863 l 256 863 l 256 556 l 654 556 q 721 497 721 556 q 654 439 721 439 l 256 439 l 256 65 q 237 13 256 32 q 185 -7 218 -7 z "},"G":{"ha":1011,"x_min":81,"x_max":908,"o":"m 850 519 q 892 504 876 519 q 908 463 908 489 l 908 138 q 895 69 908 90 q 843 36 882 49 q 711 1 788 14 q 560 -11 635 -11 q 303 49 411 -11 q 138 221 194 108 q 81 490 81 333 q 138 757 81 644 q 301 930 194 869 q 550 990 407 990 q 730 962 647 990 q 871 879 813 933 q 899 824 899 857 q 885 781 899 799 q 851 764 871 764 q 829 768 839 764 q 804 782 819 772 q 681 852 736 832 q 553 872 625 872 q 311 774 394 872 q 228 490 228 676 q 313 202 228 300 q 564 104 399 104 q 778 138 675 104 l 778 411 l 596 411 q 552 426 568 411 q 536 465 536 440 q 552 505 536 490 q 596 519 568 519 l 850 519 z "},"Ğ":{"ha":1011,"x_min":81,"x_max":908,"o":"m 850 519 q 892 504 876 519 q 908 463 908 489 l 908 138 q 895 69 908 90 q 843 36 882 49 q 711 1 788 14 q 560 -11 635 -11 q 303 49 411 -11 q 138 221 194 108 q 81 490 81 333 q 138 757 81 644 q 301 930 194 869 q 550 990 407 990 q 730 962 647 990 q 871 879 813 933 q 899 824 899 857 q 885 781 899 799 q 851 764 871 764 q 829 768 839 764 q 804 782 819 772 q 681 852 736 832 q 553 872 625 872 q 311 774 394 872 q 228 490 228 676 q 313 202 228 300 q 564 104 399 104 q 778 138 675 104 l 778 411 l 596 411 q 552 426 568 411 q 536 465 536 440 q 552 505 536 490 q 596 519 568 519 l 850 519 m 550 1078 q 418 1108 475 1078 q 332 1193 361 1138 q 324 1221 324 1208 q 336 1249 324 1238 q 365 1261 349 1261 q 411 1238 392 1261 q 550 1171 460 1171 q 689 1238 640 1171 q 733 1261 708 1261 q 763 1249 750 1261 q 776 1221 776 1238 q 768 1193 776 1208 q 683 1108 740 1139 q 550 1078 625 1078 z "},"Ǧ":{"ha":1011,"x_min":81,"x_max":908,"o":"m 850 519 q 892 504 876 519 q 908 463 908 489 l 908 138 q 895 69 908 90 q 843 36 882 49 q 711 1 788 14 q 560 -11 635 -11 q 303 49 411 -11 q 138 221 194 108 q 81 490 81 333 q 138 757 81 644 q 301 930 194 869 q 550 990 407 990 q 730 962 647 990 q 871 879 813 933 q 899 824 899 857 q 885 781 899 799 q 851 764 871 764 q 829 768 839 764 q 804 782 819 772 q 681 852 736 832 q 553 872 625 872 q 311 774 394 872 q 228 490 228 676 q 313 202 228 300 q 564 104 399 104 q 778 138 675 104 l 778 411 l 596 411 q 552 426 568 411 q 536 465 536 440 q 552 505 536 490 q 596 519 568 519 l 850 519 m 550 1056 q 493 1079 518 1056 l 374 1197 q 356 1235 356 1215 q 369 1267 356 1254 q 401 1281 382 1281 q 439 1264 422 1281 l 550 1144 l 661 1264 q 699 1281 678 1281 q 731 1267 717 1281 q 744 1235 744 1254 q 726 1197 744 1215 l 607 1079 q 550 1056 582 1056 z "},"Ĝ":{"ha":1011,"x_min":81,"x_max":908,"o":"m 850 519 q 892 504 876 519 q 908 463 908 489 l 908 138 q 895 69 908 90 q 843 36 882 49 q 711 1 788 14 q 560 -11 635 -11 q 303 49 411 -11 q 138 221 194 108 q 81 490 81 333 q 138 757 81 644 q 301 930 194 869 q 550 990 407 990 q 730 962 647 990 q 871 879 813 933 q 899 824 899 857 q 885 781 899 799 q 851 764 871 764 q 829 768 839 764 q 804 782 819 772 q 681 852 736 832 q 553 872 625 872 q 311 774 394 872 q 228 490 228 676 q 313 202 228 300 q 564 104 399 104 q 778 138 675 104 l 778 411 l 596 411 q 552 426 568 411 q 536 465 536 440 q 552 505 536 490 q 596 519 568 519 l 850 519 m 439 1072 q 401 1056 422 1056 q 369 1069 382 1056 q 356 1101 356 1083 q 374 1139 356 1121 l 493 1257 q 550 1281 518 1281 q 607 1257 582 1281 l 726 1139 q 744 1101 744 1121 q 731 1069 744 1083 q 697 1056 717 1056 q 661 1072 678 1056 l 550 1192 l 439 1072 z "},"Ģ":{"ha":1011,"x_min":81,"x_max":908,"o":"m 850 519 q 892 504 876 519 q 908 463 908 489 l 908 138 q 895 69 908 90 q 843 36 882 49 q 711 1 788 14 q 560 -11 635 -11 q 303 49 411 -11 q 138 221 194 108 q 81 490 81 333 q 138 757 81 644 q 301 930 194 869 q 550 990 407 990 q 730 962 647 990 q 871 879 813 933 q 899 824 899 857 q 885 781 899 799 q 851 764 871 764 q 829 768 839 764 q 804 782 819 772 q 681 852 736 832 q 553 872 625 872 q 311 774 394 872 q 228 490 228 676 q 313 202 228 300 q 564 104 399 104 q 778 138 675 104 l 778 411 l 596 411 q 552 426 568 411 q 536 465 536 440 q 552 505 536 490 q 596 519 568 519 l 850 519 m 558 -90 q 624 -116 600 -90 q 649 -193 649 -142 q 592 -343 649 -279 q 551 -362 574 -362 q 526 -354 536 -362 q 515 -333 515 -346 q 525 -308 515 -322 q 561 -232 557 -269 l 558 -232 q 504 -214 526 -232 q 482 -164 482 -196 q 503 -110 482 -131 q 558 -90 525 -90 z "},"Ġ":{"ha":1011,"x_min":81,"x_max":908,"o":"m 850 519 q 892 504 876 519 q 908 463 908 489 l 908 138 q 895 69 908 90 q 843 36 882 49 q 711 1 788 14 q 560 -11 635 -11 q 303 49 411 -11 q 138 221 194 108 q 81 490 81 333 q 138 757 81 644 q 301 930 194 869 q 550 990 407 990 q 730 962 647 990 q 871 879 813 933 q 899 824 899 857 q 885 781 899 799 q 851 764 871 764 q 829 768 839 764 q 804 782 819 772 q 681 852 736 832 q 553 872 625 872 q 311 774 394 872 q 228 490 228 676 q 313 202 228 300 q 564 104 399 104 q 778 138 675 104 l 778 411 l 596 411 q 552 426 568 411 q 536 465 536 440 q 552 505 536 490 q 596 519 568 519 l 850 519 m 550 1089 q 486 1111 510 1089 q 463 1169 463 1133 q 486 1228 463 1207 q 550 1250 510 1250 q 613 1228 589 1250 q 638 1169 638 1207 q 614 1111 638 1133 q 550 1089 590 1089 z "},"Ḡ":{"ha":1011,"x_min":81,"x_max":908,"o":"m 850 519 q 892 504 876 519 q 908 463 908 489 l 908 138 q 895 69 908 90 q 843 36 882 49 q 711 1 788 14 q 560 -11 635 -11 q 303 49 411 -11 q 138 221 194 108 q 81 490 81 333 q 138 757 81 644 q 301 930 194 869 q 550 990 407 990 q 730 962 647 990 q 871 879 813 933 q 899 824 899 857 q 885 781 899 799 q 851 764 871 764 q 829 768 839 764 q 804 782 819 772 q 681 852 736 832 q 553 872 625 872 q 311 774 394 872 q 228 490 228 676 q 313 202 228 300 q 564 104 399 104 q 778 138 675 104 l 778 411 l 596 411 q 552 426 568 411 q 536 465 536 440 q 552 505 536 490 q 596 519 568 519 l 850 519 m 382 1121 q 342 1134 357 1121 q 326 1169 326 1147 q 342 1206 326 1193 q 382 1218 357 1218 l 718 1218 q 758 1206 743 1218 q 774 1169 774 1193 q 758 1134 774 1147 q 718 1121 743 1121 l 382 1121 z "},"H":{"ha":1058,"x_min":114,"x_max":944,"o":"m 874 986 q 925 966 906 986 q 944 914 944 946 l 944 65 q 925 13 944 33 q 874 -7 906 -7 q 822 13 842 -7 q 803 65 803 32 l 803 439 l 256 439 l 256 65 q 236 13 256 33 q 185 -7 217 -7 q 133 13 153 -7 q 114 65 114 32 l 114 914 q 133 966 114 946 q 185 986 153 986 q 236 966 217 986 q 256 914 256 946 l 256 556 l 803 556 l 803 914 q 822 966 803 946 q 874 986 842 986 z "},"Ħ":{"ha":1108,"x_min":0,"x_max":1108,"o":"m 1044 826 q 1092 812 1075 826 q 1108 771 1108 797 q 1092 731 1108 746 q 1044 717 1075 717 l 969 717 l 969 65 q 949 12 969 31 q 899 -7 929 -7 q 847 12 867 -7 q 828 65 828 31 l 828 439 l 281 439 l 281 65 q 260 12 281 31 q 210 -7 240 -7 q 158 12 178 -7 q 139 65 139 31 l 139 717 l 65 717 q 17 731 35 717 q 0 771 0 746 q 17 812 0 797 q 65 826 35 826 l 139 826 l 139 914 q 158 967 139 949 q 210 986 178 986 q 260 967 240 986 q 281 914 281 949 l 281 826 l 828 826 l 828 914 q 847 967 828 949 q 899 986 867 986 q 949 967 929 986 q 969 914 969 949 l 969 826 l 1044 826 m 828 717 l 281 717 l 281 556 l 828 556 l 828 717 z "},"Ḫ":{"ha":1058,"x_min":114,"x_max":944,"o":"m 874 986 q 925 966 906 986 q 944 914 944 946 l 944 65 q 925 13 944 33 q 874 -7 906 -7 q 822 13 842 -7 q 803 65 803 32 l 803 439 l 256 439 l 256 65 q 236 13 256 33 q 185 -7 217 -7 q 133 13 153 -7 q 114 65 114 32 l 114 914 q 133 966 114 946 q 185 986 153 986 q 236 966 217 986 q 256 914 256 946 l 256 556 l 803 556 l 803 914 q 822 966 803 946 q 874 986 842 986 m 529 -300 q 394 -262 454 -300 q 307 -158 333 -224 q 301 -135 301 -142 q 315 -103 301 -115 q 346 -90 328 -90 q 393 -119 375 -90 q 529 -200 438 -200 q 665 -119 621 -200 q 713 -90 683 -90 q 743 -103 731 -90 q 756 -135 756 -115 q 751 -158 756 -146 q 665 -262 726 -224 q 529 -300 604 -300 z "},"Ĥ":{"ha":1058,"x_min":114,"x_max":944,"o":"m 874 986 q 925 966 906 986 q 944 914 944 946 l 944 65 q 925 13 944 33 q 874 -7 906 -7 q 822 13 842 -7 q 803 65 803 32 l 803 439 l 256 439 l 256 65 q 236 13 256 33 q 185 -7 217 -7 q 133 13 153 -7 q 114 65 114 32 l 114 914 q 133 966 114 946 q 185 986 153 986 q 236 966 217 986 q 256 914 256 946 l 256 556 l 803 556 l 803 914 q 822 966 803 946 q 874 986 842 986 m 418 1072 q 381 1056 401 1056 q 348 1069 361 1056 q 335 1101 335 1083 q 353 1139 335 1121 l 472 1257 q 529 1281 497 1281 q 586 1257 561 1281 l 706 1139 q 724 1101 724 1121 q 710 1069 724 1083 q 676 1056 696 1056 q 640 1072 657 1056 l 529 1192 l 418 1072 z "},"Ḥ":{"ha":1058,"x_min":114,"x_max":944,"o":"m 874 986 q 925 966 906 986 q 944 914 944 946 l 944 65 q 925 13 944 33 q 874 -7 906 -7 q 822 13 842 -7 q 803 65 803 32 l 803 439 l 256 439 l 256 65 q 236 13 256 33 q 185 -7 217 -7 q 133 13 153 -7 q 114 65 114 32 l 114 914 q 133 966 114 946 q 185 986 153 986 q 236 966 217 986 q 256 914 256 946 l 256 556 l 803 556 l 803 914 q 822 966 803 946 q 874 986 842 986 m 529 -267 q 471 -245 493 -267 q 449 -189 449 -224 q 471 -133 449 -154 q 529 -112 493 -112 q 587 -134 564 -112 q 610 -189 610 -156 q 588 -245 610 -224 q 529 -267 565 -267 z "},"I":{"ha":371,"x_min":114,"x_max":257,"o":"m 185 -7 q 133 13 153 -7 q 114 65 114 32 l 114 914 q 133 966 114 946 q 185 986 153 986 q 238 967 218 986 q 257 914 257 947 l 257 65 q 238 13 257 32 q 185 -7 219 -7 z "},"Í":{"ha":371,"x_min":114,"x_max":404,"o":"m 185 -7 q 133 13 153 -7 q 114 65 114 32 l 114 914 q 133 966 114 946 q 185 986 153 986 q 238 967 218 986 q 257 914 257 947 l 257 65 q 238 13 257 32 q 185 -7 219 -7 m 206 1061 q 185 1056 196 1056 q 159 1065 169 1056 q 149 1089 149 1075 q 161 1115 149 1103 l 293 1256 q 347 1282 319 1282 q 388 1265 371 1282 q 404 1225 404 1249 q 365 1168 404 1192 l 206 1061 z "},"Ĭ":{"ha":371,"x_min":-42,"x_max":411,"o":"m 185 -7 q 133 13 153 -7 q 114 65 114 32 l 114 914 q 133 966 114 946 q 185 986 153 986 q 238 967 218 986 q 257 914 257 947 l 257 65 q 238 13 257 32 q 185 -7 219 -7 m 185 1078 q 53 1108 110 1078 q -33 1193 -4 1138 q -42 1221 -42 1208 q -29 1249 -42 1238 q 0 1261 -17 1261 q 46 1238 26 1261 q 185 1171 94 1171 q 324 1238 275 1171 q 368 1261 343 1261 q 398 1249 385 1261 q 411 1221 411 1238 q 403 1193 411 1208 q 317 1108 375 1139 q 185 1078 260 1078 z "},"Î":{"ha":371,"x_min":-10,"x_max":379,"o":"m 185 -7 q 133 13 153 -7 q 114 65 114 32 l 114 914 q 133 966 114 946 q 185 986 153 986 q 238 967 218 986 q 257 914 257 947 l 257 65 q 238 13 257 32 q 185 -7 219 -7 m 74 1072 q 36 1056 57 1056 q 3 1069 17 1056 q -10 1101 -10 1083 q 8 1139 -10 1121 l 128 1257 q 185 1281 153 1281 q 242 1257 217 1281 l 361 1139 q 379 1101 379 1121 q 365 1069 379 1083 q 332 1056 351 1056 q 296 1072 313 1056 l 185 1192 l 74 1072 z "},"Ȉ":{"ha":371,"x_min":-47,"x_max":304,"o":"m 185 -7 q 133 13 153 -7 q 114 65 114 32 l 114 914 q 133 966 114 946 q 185 986 153 986 q 238 967 218 986 q 257 914 257 947 l 257 65 q 238 13 257 32 q 185 -7 219 -7 m -29 1188 q -47 1229 -47 1207 q -31 1266 -47 1250 q 7 1282 -14 1282 q 57 1244 42 1282 l 125 1104 q 129 1086 129 1094 q 120 1064 129 1072 q 99 1056 111 1056 q 71 1069 83 1056 l -29 1188 m 146 1188 q 128 1229 128 1207 q 144 1266 128 1250 q 181 1282 160 1282 q 232 1244 214 1282 l 300 1104 q 304 1088 304 1096 q 295 1065 304 1074 q 274 1056 286 1056 q 244 1069 257 1056 l 146 1188 z "},"Ï":{"ha":371,"x_min":-17,"x_max":386,"o":"m 185 -7 q 133 13 153 -7 q 114 65 114 32 l 114 914 q 133 966 114 946 q 185 986 153 986 q 238 967 218 986 q 257 914 257 947 l 257 65 q 238 13 257 32 q 185 -7 219 -7 m 63 1094 q 6 1115 28 1094 q -17 1169 -17 1136 q 6 1225 -17 1204 q 63 1246 28 1246 q 119 1224 96 1246 q 142 1169 142 1203 q 119 1115 142 1136 q 63 1094 97 1094 m 307 1094 q 251 1115 274 1094 q 229 1169 229 1136 q 251 1224 229 1203 q 307 1246 274 1246 q 364 1225 342 1246 q 386 1169 386 1204 q 364 1115 386 1136 q 307 1094 342 1094 z "},"Ḯ":{"ha":371,"x_min":-17,"x_max":404,"o":"m 185 -7 q 133 13 153 -7 q 114 65 114 32 l 114 914 q 133 966 114 946 q 185 986 153 986 q 238 967 218 986 q 257 914 257 947 l 257 65 q 238 13 257 32 q 185 -7 219 -7 m 63 1094 q 6 1115 28 1094 q -17 1169 -17 1136 q 6 1225 -17 1204 q 63 1246 28 1246 q 119 1224 96 1246 q 142 1169 142 1203 q 119 1115 142 1136 q 63 1094 97 1094 m 307 1094 q 251 1115 274 1094 q 229 1169 229 1136 q 251 1224 229 1203 q 307 1246 274 1246 q 364 1225 342 1246 q 386 1169 386 1204 q 364 1115 386 1136 q 307 1094 342 1094 m 206 1283 q 185 1278 196 1278 q 159 1288 169 1278 q 149 1311 149 1297 q 161 1338 149 1325 l 293 1478 q 347 1504 319 1504 q 388 1488 371 1504 q 404 1447 404 1471 q 365 1390 404 1414 l 206 1283 z "},"İ":{"ha":371,"x_min":97,"x_max":272,"o":"m 185 -7 q 133 13 153 -7 q 114 65 114 32 l 114 914 q 133 966 114 946 q 185 986 153 986 q 238 967 218 986 q 257 914 257 947 l 257 65 q 238 13 257 32 q 185 -7 219 -7 m 185 1089 q 121 1111 144 1089 q 97 1169 97 1133 q 121 1228 97 1207 q 185 1250 144 1250 q 248 1228 224 1250 q 272 1169 272 1207 q 249 1111 272 1133 q 185 1089 225 1089 z "},"Ị":{"ha":371,"x_min":104,"x_max":265,"o":"m 185 -7 q 133 13 153 -7 q 114 65 114 32 l 114 914 q 133 966 114 946 q 185 986 153 986 q 238 967 218 986 q 257 914 257 947 l 257 65 q 238 13 257 32 q 185 -7 219 -7 m 185 -267 q 126 -245 149 -267 q 104 -189 104 -224 q 126 -133 104 -154 q 185 -112 149 -112 q 242 -134 219 -112 q 265 -189 265 -156 q 243 -245 265 -224 q 185 -267 221 -267 z "},"Ì":{"ha":371,"x_min":-35,"x_max":257,"o":"m 185 -7 q 133 13 153 -7 q 114 65 114 32 l 114 914 q 133 966 114 946 q 185 986 153 986 q 238 967 218 986 q 257 914 257 947 l 257 65 q 238 13 257 32 q 185 -7 219 -7 m 4 1168 q -35 1225 -35 1192 q -18 1265 -35 1249 q 22 1282 -1 1282 q 76 1256 50 1282 l 208 1115 q 221 1089 221 1103 q 210 1065 221 1075 q 185 1056 200 1056 q 164 1061 174 1056 l 4 1168 z "},"Ỉ":{"ha":371,"x_min":69,"x_max":336,"o":"m 185 -7 q 133 13 153 -7 q 114 65 114 32 l 114 914 q 133 966 114 946 q 185 986 153 986 q 238 967 218 986 q 257 914 257 947 l 257 65 q 238 13 257 32 q 185 -7 219 -7 m 228 1082 q 215 1063 226 1069 q 189 1056 204 1056 q 159 1065 172 1056 q 146 1093 146 1075 q 160 1130 146 1117 q 203 1156 175 1143 q 229 1171 222 1165 q 236 1185 236 1176 q 222 1203 236 1196 q 183 1210 208 1210 q 113 1199 153 1210 q 82 1206 94 1194 q 69 1232 69 1217 q 76 1251 69 1242 q 93 1264 82 1260 q 192 1281 133 1281 q 297 1256 258 1281 q 336 1193 336 1232 q 320 1149 336 1164 q 274 1121 304 1135 q 240 1102 250 1110 q 228 1082 231 1094 z "},"Ȋ":{"ha":371,"x_min":-42,"x_max":411,"o":"m 185 -7 q 133 13 153 -7 q 114 65 114 32 l 114 914 q 133 966 114 946 q 185 986 153 986 q 238 967 218 986 q 257 914 257 947 l 257 65 q 238 13 257 32 q 185 -7 219 -7 m 46 1100 q 1 1076 26 1076 q -28 1088 -15 1076 q -42 1118 -42 1100 q -33 1146 -42 1132 q 52 1231 -6 1200 q 185 1261 110 1261 q 316 1231 258 1261 q 403 1146 374 1201 q 411 1117 411 1129 q 399 1088 411 1100 q 369 1076 386 1076 q 324 1100 343 1076 q 185 1167 275 1167 q 46 1100 94 1167 z "},"Ī":{"ha":371,"x_min":-39,"x_max":408,"o":"m 185 -7 q 133 13 153 -7 q 114 65 114 32 l 114 914 q 133 966 114 946 q 185 986 153 986 q 238 967 218 986 q 257 914 257 947 l 257 65 q 238 13 257 32 q 185 -7 219 -7 m 17 1121 q -24 1134 -8 1121 q -39 1169 -39 1147 q -24 1206 -39 1193 q 17 1218 -8 1218 l 353 1218 q 393 1206 378 1218 q 408 1169 408 1193 q 393 1134 408 1147 q 353 1121 378 1121 l 17 1121 z "},"Į":{"ha":371,"x_min":25,"x_max":322,"o":"m 276 -171 q 292 -168 282 -168 q 314 -178 306 -168 q 322 -203 322 -189 q 300 -242 322 -229 q 192 -269 253 -269 q 71 -228 117 -269 q 25 -119 25 -186 q 50 -35 25 -74 q 121 29 75 4 q 114 65 114 46 l 114 914 q 133 966 114 946 q 185 986 153 986 q 238 967 218 986 q 257 914 257 947 l 257 65 q 247 26 257 43 q 219 3 236 8 q 126 -103 126 -24 q 149 -164 126 -142 q 210 -186 172 -186 q 276 -171 240 -186 z "},"Ĩ":{"ha":371,"x_min":-40,"x_max":410,"o":"m 185 -7 q 133 13 153 -7 q 114 65 114 32 l 114 914 q 133 966 114 946 q 185 986 153 986 q 238 967 218 986 q 257 914 257 947 l 257 65 q 238 13 257 32 q 185 -7 219 -7 m 285 1094 q 235 1102 261 1094 q 175 1124 210 1110 q 86 1147 115 1147 q 53 1139 65 1147 q 29 1115 40 1131 q 20 1106 26 1113 q 8 1097 14 1100 q -6 1093 1 1093 q -31 1104 -21 1093 q -40 1132 -40 1115 q -24 1184 -40 1157 q 20 1229 -8 1211 q 85 1247 49 1247 q 134 1240 108 1247 q 194 1218 160 1232 q 283 1194 254 1194 q 317 1203 304 1194 q 340 1225 329 1211 q 358 1242 351 1238 q 375 1247 365 1247 q 400 1237 390 1247 q 410 1210 410 1226 q 394 1158 410 1185 q 349 1113 378 1131 q 285 1094 321 1094 z "},"J":{"ha":474,"x_min":-17,"x_max":360,"o":"m 69 -7 q 6 6 28 -10 q -17 51 -17 21 q 43 110 -17 106 l 86 113 q 183 152 151 115 q 215 268 215 189 l 215 914 q 235 966 215 946 q 288 986 256 986 q 340 966 321 986 q 360 914 360 946 l 360 268 q 298 70 360 138 q 113 -4 236 3 l 69 -7 z "},"Ĵ":{"ha":474,"x_min":-17,"x_max":482,"o":"m 69 -7 q 6 6 28 -10 q -17 51 -17 21 q 43 110 -17 106 l 86 113 q 183 152 151 115 q 215 268 215 189 l 215 914 q 235 966 215 946 q 288 986 256 986 q 340 966 321 986 q 360 914 360 946 l 360 268 q 298 70 360 138 q 113 -4 236 3 l 69 -7 m 176 1072 q 139 1056 160 1056 q 106 1069 119 1056 q 93 1101 93 1083 q 111 1139 93 1121 l 231 1257 q 288 1281 256 1281 q 344 1257 319 1281 l 464 1139 q 482 1101 482 1121 q 468 1069 482 1083 q 435 1056 454 1056 q 399 1072 415 1056 l 288 1192 l 176 1072 z "},"K":{"ha":892,"x_min":114,"x_max":867,"o":"m 843 108 q 867 60 867 86 q 847 14 867 33 q 800 -6 826 -6 q 751 17 774 -6 l 257 463 l 257 65 q 238 13 257 32 q 185 -7 219 -7 q 133 13 153 -7 q 114 65 114 32 l 114 914 q 133 966 114 946 q 185 986 153 986 q 238 967 218 986 q 257 914 257 947 l 257 533 l 731 965 q 776 985 750 985 q 822 965 803 985 q 842 921 842 946 q 818 872 842 894 l 404 503 l 843 108 z "},"Ķ":{"ha":892,"x_min":114,"x_max":867,"o":"m 843 108 q 867 60 867 86 q 847 14 867 33 q 800 -6 826 -6 q 751 17 774 -6 l 257 463 l 257 65 q 238 13 257 32 q 185 -7 219 -7 q 133 13 153 -7 q 114 65 114 32 l 114 914 q 133 966 114 946 q 185 986 153 986 q 238 967 218 986 q 257 914 257 947 l 257 533 l 731 965 q 776 985 750 985 q 822 965 803 985 q 842 921 842 946 q 818 872 842 894 l 404 503 l 843 108 m 447 -90 q 513 -116 489 -90 q 538 -193 538 -142 q 481 -343 538 -279 q 440 -362 463 -362 q 415 -354 425 -362 q 404 -333 404 -346 q 414 -308 404 -322 q 450 -232 446 -269 l 447 -232 q 393 -214 415 -232 q 371 -164 371 -196 q 392 -110 371 -131 q 447 -90 414 -90 z "},"L":{"ha":760,"x_min":114,"x_max":746,"o":"m 183 0 q 133 18 151 0 q 114 67 114 36 l 114 914 q 133 966 114 946 q 185 986 153 986 q 238 967 218 986 q 257 914 257 947 l 257 119 l 679 119 q 728 104 711 119 q 746 60 746 89 q 728 15 746 31 q 679 0 711 0 l 183 0 z "},"Ǉ":{"ha":1233,"x_min":114,"x_max":1119,"o":"m 183 0 q 133 18 151 0 q 114 67 114 36 l 114 914 q 133 966 114 946 q 185 986 153 986 q 238 967 218 986 q 257 914 257 947 l 257 119 l 638 119 q 687 104 669 119 q 704 60 704 89 q 687 15 704 31 q 638 0 669 0 l 183 0 m 829 -7 q 765 6 788 -10 q 743 51 743 21 q 803 110 743 106 l 846 113 q 943 153 911 117 q 975 268 975 190 l 975 914 q 995 966 975 946 q 1047 986 1015 986 q 1100 966 1081 986 q 1119 914 1119 946 l 1119 268 q 1058 70 1119 138 q 872 -4 996 3 l 829 -7 z "},"Ĺ":{"ha":760,"x_min":114,"x_max":746,"o":"m 183 0 q 133 18 151 0 q 114 67 114 36 l 114 914 q 133 966 114 946 q 185 986 153 986 q 238 967 218 986 q 257 914 257 947 l 257 119 l 679 119 q 728 104 711 119 q 746 60 746 89 q 728 15 746 31 q 679 0 711 0 l 183 0 m 206 1061 q 185 1056 196 1056 q 159 1065 169 1056 q 149 1089 149 1075 q 161 1115 149 1103 l 293 1256 q 347 1282 319 1282 q 388 1265 371 1282 q 404 1225 404 1249 q 365 1168 404 1192 l 206 1061 z "},"Ľ":{"ha":760,"x_min":114,"x_max":746,"o":"m 183 0 q 133 18 151 0 q 114 67 114 36 l 114 914 q 133 966 114 946 q 185 986 153 986 q 238 967 218 986 q 257 914 257 947 l 257 119 l 679 119 q 728 104 711 119 q 746 60 746 89 q 728 15 746 31 q 679 0 711 0 l 183 0 m 447 728 q 435 707 444 714 q 411 700 425 700 q 386 710 397 700 q 375 735 375 719 l 375 929 q 392 972 375 957 q 431 988 408 988 q 471 974 454 988 q 488 935 488 960 q 486 918 488 924 l 447 728 z "},"Ļ":{"ha":760,"x_min":114,"x_max":746,"o":"m 183 0 q 133 18 151 0 q 114 67 114 36 l 114 914 q 133 966 114 946 q 185 986 153 986 q 238 967 218 986 q 257 914 257 947 l 257 119 l 679 119 q 728 104 711 119 q 746 60 746 89 q 728 15 746 31 q 679 0 711 0 l 183 0 m 429 -90 q 495 -116 471 -90 q 519 -193 519 -142 q 463 -343 519 -279 q 422 -362 444 -362 q 397 -354 407 -362 q 386 -333 386 -346 q 396 -308 386 -322 q 432 -232 428 -269 l 429 -232 q 375 -214 397 -232 q 353 -164 353 -196 q 374 -110 353 -131 q 429 -90 396 -90 z "},"Ŀ":{"ha":760,"x_min":114,"x_max":746,"o":"m 183 0 q 133 18 151 0 q 114 67 114 36 l 114 914 q 133 966 114 946 q 185 986 153 986 q 238 967 218 986 q 257 914 257 947 l 257 119 l 679 119 q 728 104 711 119 q 746 60 746 89 q 728 15 746 31 q 679 0 711 0 l 183 0 m 503 410 q 439 432 463 410 q 415 490 415 454 q 439 549 415 528 q 503 571 463 571 q 566 549 542 571 q 590 490 590 528 q 567 432 590 454 q 503 410 543 410 z "},"Ḷ":{"ha":760,"x_min":114,"x_max":746,"o":"m 183 0 q 133 18 151 0 q 114 67 114 36 l 114 914 q 133 966 114 946 q 185 986 153 986 q 238 967 218 986 q 257 914 257 947 l 257 119 l 679 119 q 728 104 711 119 q 746 60 746 89 q 728 15 746 31 q 679 0 711 0 l 183 0 m 431 -267 q 372 -245 394 -267 q 350 -189 350 -224 q 372 -133 350 -154 q 431 -112 394 -112 q 488 -134 465 -112 q 511 -189 511 -156 q 489 -245 511 -224 q 431 -267 467 -267 z "},"ǈ":{"ha":1096,"x_min":114,"x_max":1015,"o":"m 183 0 q 133 18 151 0 q 114 67 114 36 l 114 914 q 133 966 114 946 q 185 986 153 986 q 238 967 218 986 q 257 914 257 947 l 257 119 l 679 119 q 728 104 711 119 q 746 60 746 89 q 728 15 746 31 q 679 0 711 0 l 183 0 m 738 -253 q 674 -242 696 -256 q 651 -199 651 -228 q 665 -163 651 -176 q 710 -147 679 -150 l 749 -144 q 830 -111 803 -142 q 857 -14 857 -81 l 857 624 q 877 674 857 657 q 928 692 897 692 q 978 674 958 692 q 997 624 997 657 l 997 -6 q 943 -182 997 -122 q 775 -250 889 -242 l 738 -253 m 928 828 q 864 850 888 828 q 840 908 840 872 q 864 966 840 944 q 928 988 888 988 q 991 966 967 988 q 1015 908 1015 944 q 992 850 1015 872 q 928 828 968 828 z "},"Ḻ":{"ha":760,"x_min":114,"x_max":746,"o":"m 183 0 q 133 18 151 0 q 114 67 114 36 l 114 914 q 133 966 114 946 q 185 986 153 986 q 238 967 218 986 q 257 914 257 947 l 257 119 l 679 119 q 728 104 711 119 q 746 60 746 89 q 728 15 746 31 q 679 0 711 0 l 183 0 m 263 -236 q 222 -224 238 -236 q 207 -190 207 -212 q 222 -156 207 -168 q 263 -143 238 -143 l 599 -143 q 639 -156 624 -143 q 654 -190 654 -168 q 639 -224 654 -212 q 599 -236 624 -236 l 263 -236 z "},"Ł":{"ha":785,"x_min":0,"x_max":771,"o":"m 704 119 q 753 104 736 119 q 771 60 771 89 q 753 15 771 31 q 704 0 736 0 l 208 0 q 158 18 176 0 q 139 67 139 36 l 139 390 l 89 361 q 54 351 71 351 q 15 367 31 351 q 0 406 0 383 q 33 457 0 438 l 139 518 l 139 914 q 158 966 139 946 q 210 986 178 986 q 263 967 243 986 q 282 914 282 947 l 282 600 l 465 706 q 497 715 481 715 q 537 699 521 715 q 553 660 553 682 q 521 611 553 629 l 282 472 l 282 119 l 704 119 z "},"M":{"ha":1168,"x_min":115,"x_max":1053,"o":"m 983 986 q 1033 966 1014 986 q 1053 914 1053 946 l 1053 61 q 1035 11 1053 29 q 988 -7 1018 -7 q 942 11 958 -7 q 925 61 925 29 l 925 707 l 653 189 q 585 140 626 140 q 517 189 543 140 l 243 701 l 243 61 q 226 11 243 29 q 179 -7 210 -7 q 133 12 150 -7 q 115 61 115 31 l 115 914 q 135 966 115 946 q 185 986 154 986 q 254 936 228 986 l 586 301 l 915 936 q 983 986 942 986 z "},"Ṃ":{"ha":1168,"x_min":115,"x_max":1053,"o":"m 983 986 q 1033 966 1014 986 q 1053 914 1053 946 l 1053 61 q 1035 11 1053 29 q 988 -7 1018 -7 q 942 11 958 -7 q 925 61 925 29 l 925 707 l 653 189 q 585 140 626 140 q 517 189 543 140 l 243 701 l 243 61 q 226 11 243 29 q 179 -7 210 -7 q 133 12 150 -7 q 115 61 115 31 l 115 914 q 135 966 115 946 q 185 986 154 986 q 254 936 228 986 l 586 301 l 915 936 q 983 986 942 986 m 583 -267 q 525 -245 547 -267 q 503 -189 503 -224 q 525 -133 503 -154 q 583 -112 547 -112 q 641 -134 618 -112 q 664 -189 664 -156 q 642 -245 664 -224 q 583 -267 619 -267 z "},"N":{"ha":1032,"x_min":114,"x_max":918,"o":"m 850 986 q 899 966 881 986 q 918 914 918 946 l 918 65 q 899 13 918 33 q 849 -7 879 -7 q 793 21 813 -7 l 249 739 l 249 65 q 230 13 249 33 q 181 -7 211 -7 q 132 13 150 -7 q 114 65 114 32 l 114 914 q 133 966 114 946 q 183 986 153 986 q 239 958 219 986 l 783 239 l 783 914 q 801 966 783 946 q 850 986 819 986 z "},"Ǌ":{"ha":1506,"x_min":114,"x_max":1392,"o":"m 850 986 q 899 966 881 986 q 918 914 918 946 l 918 65 q 899 13 918 33 q 849 -7 879 -7 q 793 21 813 -7 l 249 739 l 249 65 q 230 13 249 33 q 181 -7 211 -7 q 132 13 150 -7 q 114 65 114 32 l 114 914 q 133 966 114 946 q 183 986 153 986 q 239 958 219 986 l 783 239 l 783 914 q 801 966 783 946 q 850 986 819 986 m 1101 -7 q 1038 6 1060 -10 q 1015 51 1015 21 q 1075 110 1015 106 l 1118 113 q 1215 152 1183 115 q 1247 268 1247 189 l 1247 914 q 1267 966 1247 946 q 1319 986 1288 986 q 1372 966 1353 986 q 1392 914 1392 946 l 1392 268 q 1330 70 1392 138 q 1144 -4 1268 3 l 1101 -7 z "},"Ń":{"ha":1032,"x_min":114,"x_max":918,"o":"m 850 986 q 899 966 881 986 q 918 914 918 946 l 918 65 q 899 13 918 33 q 849 -7 879 -7 q 793 21 813 -7 l 249 739 l 249 65 q 230 13 249 33 q 181 -7 211 -7 q 132 13 150 -7 q 114 65 114 32 l 114 914 q 133 966 114 946 q 183 986 153 986 q 239 958 219 986 l 783 239 l 783 914 q 801 966 783 946 q 850 986 819 986 m 536 1061 q 515 1056 526 1056 q 490 1065 500 1056 q 479 1089 479 1075 q 492 1115 479 1103 l 624 1256 q 678 1282 650 1282 q 718 1265 701 1282 q 735 1225 735 1249 q 696 1168 735 1192 l 536 1061 z "},"Ň":{"ha":1032,"x_min":114,"x_max":918,"o":"m 850 986 q 899 966 881 986 q 918 914 918 946 l 918 65 q 899 13 918 33 q 849 -7 879 -7 q 793 21 813 -7 l 249 739 l 249 65 q 230 13 249 33 q 181 -7 211 -7 q 132 13 150 -7 q 114 65 114 32 l 114 914 q 133 966 114 946 q 183 986 153 986 q 239 958 219 986 l 783 239 l 783 914 q 801 966 783 946 q 850 986 819 986 m 515 1056 q 458 1079 483 1056 l 339 1197 q 321 1235 321 1215 q 334 1267 321 1254 q 367 1281 347 1281 q 404 1264 388 1281 l 515 1144 l 626 1264 q 664 1281 643 1281 q 696 1267 682 1281 q 710 1235 710 1254 q 692 1197 710 1215 l 572 1079 q 515 1056 547 1056 z "},"Ņ":{"ha":1032,"x_min":114,"x_max":918,"o":"m 850 986 q 899 966 881 986 q 918 914 918 946 l 918 65 q 899 13 918 33 q 849 -7 879 -7 q 793 21 813 -7 l 249 739 l 249 65 q 230 13 249 33 q 181 -7 211 -7 q 132 13 150 -7 q 114 65 114 32 l 114 914 q 133 966 114 946 q 183 986 153 986 q 239 958 219 986 l 783 239 l 783 914 q 801 966 783 946 q 850 986 819 986 m 515 -90 q 581 -116 557 -90 q 606 -193 606 -142 q 549 -343 606 -279 q 508 -362 531 -362 q 483 -354 493 -362 q 472 -333 472 -346 q 482 -308 472 -322 q 518 -232 514 -269 l 515 -232 q 461 -214 483 -232 q 439 -164 439 -196 q 460 -110 439 -131 q 515 -90 482 -90 z "},"Ṅ":{"ha":1032,"x_min":114,"x_max":918,"o":"m 850 986 q 899 966 881 986 q 918 914 918 946 l 918 65 q 899 13 918 33 q 849 -7 879 -7 q 793 21 813 -7 l 249 739 l 249 65 q 230 13 249 33 q 181 -7 211 -7 q 132 13 150 -7 q 114 65 114 32 l 114 914 q 133 966 114 946 q 183 986 153 986 q 239 958 219 986 l 783 239 l 783 914 q 801 966 783 946 q 850 986 819 986 m 515 1089 q 451 1111 475 1089 q 428 1169 428 1133 q 451 1228 428 1207 q 515 1250 475 1250 q 578 1228 554 1250 q 603 1169 603 1207 q 579 1111 603 1133 q 515 1089 556 1089 z "},"Ṇ":{"ha":1032,"x_min":114,"x_max":918,"o":"m 850 986 q 899 966 881 986 q 918 914 918 946 l 918 65 q 899 13 918 33 q 849 -7 879 -7 q 793 21 813 -7 l 249 739 l 249 65 q 230 13 249 33 q 181 -7 211 -7 q 132 13 150 -7 q 114 65 114 32 l 114 914 q 133 966 114 946 q 183 986 153 986 q 239 958 219 986 l 783 239 l 783 914 q 801 966 783 946 q 850 986 819 986 m 517 -267 q 458 -245 481 -267 q 436 -189 436 -224 q 458 -133 436 -154 q 517 -112 481 -112 q 574 -134 551 -112 q 597 -189 597 -156 q 575 -245 597 -224 q 517 -267 553 -267 z "},"Ŋ":{"ha":1032,"x_min":114,"x_max":918,"o":"m 850 986 q 899 966 881 986 q 918 914 918 946 l 918 19 q 856 -178 918 -111 q 671 -254 794 -246 l 629 -257 q 565 -244 588 -258 q 542 -200 542 -229 q 603 -144 542 -149 l 644 -142 q 782 14 782 -133 l 782 33 l 249 739 l 249 65 q 230 13 249 33 q 181 -7 211 -7 q 132 13 150 -7 q 114 65 114 32 l 114 914 q 133 966 114 946 q 183 986 153 986 q 239 958 219 986 l 783 239 l 783 914 q 801 966 783 946 q 850 986 819 986 z "},"ǋ":{"ha":1368,"x_min":114,"x_max":1288,"o":"m 850 986 q 899 966 881 986 q 918 914 918 946 l 918 65 q 899 13 918 33 q 849 -7 879 -7 q 793 21 813 -7 l 249 739 l 249 65 q 230 13 249 33 q 181 -7 211 -7 q 132 13 150 -7 q 114 65 114 32 l 114 914 q 133 966 114 946 q 183 986 153 986 q 239 958 219 986 l 783 239 l 783 914 q 801 966 783 946 q 850 986 819 986 m 1010 -253 q 946 -242 968 -256 q 924 -199 924 -228 q 938 -163 924 -176 q 982 -147 951 -150 l 1021 -144 q 1102 -111 1075 -142 q 1129 -14 1129 -81 l 1129 624 q 1149 674 1129 657 q 1200 692 1169 692 q 1250 674 1231 692 q 1269 624 1269 657 l 1269 -6 q 1215 -182 1269 -122 q 1047 -250 1161 -242 l 1010 -253 m 1200 828 q 1136 850 1160 828 q 1113 908 1113 872 q 1136 966 1113 944 q 1200 988 1160 988 q 1263 966 1239 988 q 1288 908 1288 944 q 1264 850 1288 872 q 1200 828 1240 828 z "},"Ṉ":{"ha":1032,"x_min":114,"x_max":918,"o":"m 850 986 q 899 966 881 986 q 918 914 918 946 l 918 65 q 899 13 918 33 q 849 -7 879 -7 q 793 21 813 -7 l 249 739 l 249 65 q 230 13 249 33 q 181 -7 211 -7 q 132 13 150 -7 q 114 65 114 32 l 114 914 q 133 966 114 946 q 183 986 153 986 q 239 958 219 986 l 783 239 l 783 914 q 801 966 783 946 q 850 986 819 986 m 349 -236 q 308 -224 324 -236 q 293 -190 293 -212 q 308 -156 293 -168 q 349 -143 324 -143 l 685 -143 q 725 -156 710 -143 q 740 -190 740 -168 q 725 -224 740 -212 q 685 -236 710 -236 l 349 -236 z "},"Ñ":{"ha":1032,"x_min":114,"x_max":918,"o":"m 850 986 q 899 966 881 986 q 918 914 918 946 l 918 65 q 899 13 918 33 q 849 -7 879 -7 q 793 21 813 -7 l 249 739 l 249 65 q 230 13 249 33 q 181 -7 211 -7 q 132 13 150 -7 q 114 65 114 32 l 114 914 q 133 966 114 946 q 183 986 153 986 q 239 958 219 986 l 783 239 l 783 914 q 801 966 783 946 q 850 986 819 986 m 615 1094 q 566 1102 592 1094 q 506 1124 540 1110 q 417 1147 446 1147 q 383 1139 396 1147 q 360 1115 371 1131 q 351 1106 357 1113 q 338 1097 344 1100 q 325 1093 332 1093 q 300 1104 310 1093 q 290 1132 290 1115 q 306 1184 290 1157 q 351 1229 322 1211 q 415 1247 379 1247 q 465 1240 439 1247 q 525 1218 490 1232 q 614 1194 585 1194 q 647 1203 635 1194 q 671 1225 660 1211 q 689 1242 682 1238 q 706 1247 696 1247 q 731 1237 721 1247 q 740 1210 740 1226 q 724 1158 740 1185 q 680 1113 708 1131 q 615 1094 651 1094 z "},"O":{"ha":1071,"x_min":81,"x_max":990,"o":"m 535 -11 q 294 50 396 -11 q 136 224 192 111 q 81 489 81 336 q 135 756 81 643 q 293 930 190 869 q 535 990 396 990 q 778 930 675 990 q 935 756 881 869 q 990 490 990 643 q 935 224 990 338 q 778 50 881 111 q 535 -11 675 -11 m 535 106 q 764 206 682 106 q 846 490 846 306 q 765 774 846 675 q 535 874 683 874 q 308 774 389 874 q 226 490 226 675 q 308 206 226 306 q 535 106 389 106 z "},"Ó":{"ha":1071,"x_min":81,"x_max":990,"o":"m 535 -11 q 294 50 396 -11 q 136 224 192 111 q 81 489 81 336 q 135 756 81 643 q 293 930 190 869 q 535 990 396 990 q 778 930 675 990 q 935 756 881 869 q 990 490 990 643 q 935 224 990 338 q 778 50 881 111 q 535 -11 675 -11 m 535 106 q 764 206 682 106 q 846 490 846 306 q 765 774 846 675 q 535 874 683 874 q 308 774 389 874 q 226 490 226 675 q 308 206 226 306 q 535 106 389 106 m 556 1061 q 535 1056 546 1056 q 509 1065 519 1056 q 499 1089 499 1075 q 511 1115 499 1103 l 643 1256 q 697 1282 669 1282 q 738 1265 721 1282 q 754 1225 754 1249 q 715 1168 754 1192 l 556 1061 z "},"Ŏ":{"ha":1071,"x_min":81,"x_max":990,"o":"m 535 -11 q 294 50 396 -11 q 136 224 192 111 q 81 489 81 336 q 135 756 81 643 q 293 930 190 869 q 535 990 396 990 q 778 930 675 990 q 935 756 881 869 q 990 490 990 643 q 935 224 990 338 q 778 50 881 111 q 535 -11 675 -11 m 535 106 q 764 206 682 106 q 846 490 846 306 q 765 774 846 675 q 535 874 683 874 q 308 774 389 874 q 226 490 226 675 q 308 206 226 306 q 535 106 389 106 m 535 1078 q 403 1108 460 1078 q 317 1193 346 1138 q 308 1221 308 1208 q 321 1249 308 1238 q 350 1261 333 1261 q 396 1238 376 1261 q 535 1171 444 1171 q 674 1238 625 1171 q 718 1261 693 1261 q 748 1249 735 1261 q 761 1221 761 1238 q 753 1193 761 1208 q 667 1108 725 1139 q 535 1078 610 1078 z "},"Ô":{"ha":1071,"x_min":81,"x_max":990,"o":"m 535 -11 q 294 50 396 -11 q 136 224 192 111 q 81 489 81 336 q 135 756 81 643 q 293 930 190 869 q 535 990 396 990 q 778 930 675 990 q 935 756 881 869 q 990 490 990 643 q 935 224 990 338 q 778 50 881 111 q 535 -11 675 -11 m 535 106 q 764 206 682 106 q 846 490 846 306 q 765 774 846 675 q 535 874 683 874 q 308 774 389 874 q 226 490 226 675 q 308 206 226 306 q 535 106 389 106 m 424 1072 q 386 1056 407 1056 q 353 1069 367 1056 q 340 1101 340 1083 q 358 1139 340 1121 l 478 1257 q 535 1281 503 1281 q 592 1257 567 1281 l 711 1139 q 729 1101 729 1121 q 715 1069 729 1083 q 682 1056 701 1056 q 646 1072 663 1056 l 535 1192 l 424 1072 z "},"Ố":{"ha":1071,"x_min":81,"x_max":990,"o":"m 535 -11 q 294 50 396 -11 q 136 224 192 111 q 81 489 81 336 q 135 756 81 643 q 293 930 190 869 q 535 990 396 990 q 778 930 675 990 q 935 756 881 869 q 990 490 990 643 q 935 224 990 338 q 778 50 881 111 q 535 -11 675 -11 m 535 106 q 764 206 682 106 q 846 490 846 306 q 765 774 846 675 q 535 874 683 874 q 308 774 389 874 q 226 490 226 675 q 308 206 226 306 q 535 106 389 106 m 718 1206 q 699 1200 708 1200 q 673 1210 683 1200 q 663 1235 663 1221 q 672 1260 663 1249 l 768 1383 q 819 1411 790 1411 q 860 1394 843 1411 q 878 1353 878 1376 q 842 1297 878 1318 l 718 1206 m 419 1069 q 388 1057 407 1057 q 354 1070 368 1057 q 340 1101 340 1083 q 363 1142 340 1125 l 478 1249 q 535 1271 506 1271 q 592 1249 561 1271 l 707 1142 q 731 1101 731 1124 q 716 1069 731 1083 q 682 1056 701 1056 q 651 1068 667 1056 l 535 1183 l 419 1069 z "},"Ộ":{"ha":1071,"x_min":81,"x_max":990,"o":"m 535 -11 q 294 50 396 -11 q 136 224 192 111 q 81 489 81 336 q 135 756 81 643 q 293 930 190 869 q 535 990 396 990 q 778 930 675 990 q 935 756 881 869 q 990 490 990 643 q 935 224 990 338 q 778 50 881 111 q 535 -11 675 -11 m 535 106 q 764 206 682 106 q 846 490 846 306 q 765 774 846 675 q 535 874 683 874 q 308 774 389 874 q 226 490 226 675 q 308 206 226 306 q 535 106 389 106 m 535 -267 q 476 -245 499 -267 q 454 -189 454 -224 q 476 -133 454 -154 q 535 -112 499 -112 q 592 -134 569 -112 q 615 -189 615 -156 q 593 -245 615 -224 q 535 -267 571 -267 m 424 1072 q 386 1056 407 1056 q 353 1069 367 1056 q 340 1101 340 1083 q 358 1139 340 1121 l 478 1257 q 535 1281 503 1281 q 592 1257 567 1281 l 711 1139 q 729 1101 729 1121 q 715 1069 729 1083 q 682 1056 701 1056 q 646 1072 663 1056 l 535 1192 l 424 1072 z "},"Ồ":{"ha":1071,"x_min":81,"x_max":990,"o":"m 535 -11 q 294 50 396 -11 q 136 224 192 111 q 81 489 81 336 q 135 756 81 643 q 293 930 190 869 q 535 990 396 990 q 778 930 675 990 q 935 756 881 869 q 990 490 990 643 q 935 224 990 338 q 778 50 881 111 q 535 -11 675 -11 m 535 106 q 764 206 682 106 q 846 490 846 306 q 765 774 846 675 q 535 874 683 874 q 308 774 389 874 q 226 490 226 675 q 308 206 226 306 q 535 106 389 106 m 599 1300 q 565 1353 565 1324 q 584 1393 565 1375 q 626 1411 603 1411 q 676 1382 657 1411 l 768 1256 q 776 1232 776 1243 q 767 1209 776 1218 q 742 1200 757 1200 q 715 1208 728 1200 l 599 1300 m 419 1069 q 388 1057 407 1057 q 354 1070 368 1057 q 340 1101 340 1083 q 363 1142 340 1125 l 478 1249 q 535 1271 506 1271 q 592 1249 561 1271 l 707 1142 q 731 1101 731 1124 q 716 1069 731 1083 q 682 1056 701 1056 q 651 1068 667 1056 l 535 1183 l 419 1069 z "},"Ổ":{"ha":1071,"x_min":81,"x_max":990,"o":"m 535 -11 q 294 50 396 -11 q 136 224 192 111 q 81 489 81 336 q 135 756 81 643 q 293 930 190 869 q 535 990 396 990 q 778 930 675 990 q 935 756 881 869 q 990 490 990 643 q 935 224 990 338 q 778 50 881 111 q 535 -11 675 -11 m 535 106 q 764 206 682 106 q 846 490 846 306 q 765 774 846 675 q 535 874 683 874 q 308 774 389 874 q 226 490 226 675 q 308 206 226 306 q 535 106 389 106 m 738 1224 q 724 1206 736 1213 q 699 1200 713 1200 q 670 1208 682 1200 q 658 1235 658 1217 q 674 1270 658 1258 q 718 1294 690 1282 q 731 1301 722 1296 q 745 1310 740 1306 q 750 1319 750 1314 q 694 1340 750 1340 q 624 1332 674 1340 q 592 1339 604 1329 q 581 1363 581 1349 q 604 1393 581 1385 q 703 1410 644 1410 q 808 1386 769 1410 q 847 1326 847 1363 q 831 1285 847 1299 q 783 1258 814 1272 q 751 1242 761 1249 q 738 1224 740 1235 m 419 1069 q 388 1057 407 1057 q 354 1070 368 1057 q 340 1101 340 1083 q 363 1142 340 1125 l 478 1249 q 535 1271 506 1271 q 592 1249 561 1271 l 707 1142 q 731 1101 731 1124 q 716 1069 731 1083 q 682 1056 701 1056 q 651 1068 667 1056 l 535 1183 l 419 1069 z "},"Ỗ":{"ha":1071,"x_min":81,"x_max":990,"o":"m 535 -11 q 294 50 396 -11 q 136 224 192 111 q 81 489 81 336 q 135 756 81 643 q 293 930 190 869 q 535 990 396 990 q 778 930 675 990 q 935 756 881 869 q 990 490 990 643 q 935 224 990 338 q 778 50 881 111 q 535 -11 675 -11 m 535 106 q 764 206 682 106 q 846 490 846 306 q 765 774 846 675 q 535 874 683 874 q 308 774 389 874 q 226 490 226 675 q 308 206 226 306 q 535 106 389 106 m 635 1269 q 584 1277 610 1269 q 519 1299 558 1285 q 474 1315 496 1308 q 436 1322 451 1322 q 403 1314 415 1322 q 379 1292 390 1306 q 361 1274 368 1279 q 344 1269 354 1269 q 319 1279 329 1269 q 310 1304 310 1289 q 326 1350 310 1325 q 370 1392 342 1375 q 435 1408 399 1408 q 485 1401 460 1408 q 550 1379 511 1393 q 596 1363 574 1369 q 633 1356 618 1356 q 667 1364 654 1356 q 690 1386 679 1372 q 708 1403 701 1399 q 725 1408 715 1408 q 750 1399 740 1408 q 760 1374 760 1389 q 744 1328 760 1353 q 699 1287 728 1304 q 635 1269 671 1269 m 419 1069 q 388 1057 407 1057 q 354 1070 368 1057 q 340 1101 340 1083 q 363 1142 340 1125 l 478 1249 q 535 1271 506 1271 q 592 1249 561 1271 l 707 1142 q 731 1101 731 1124 q 716 1069 731 1083 q 682 1056 701 1056 q 651 1068 667 1056 l 535 1183 l 419 1069 z "},"Ȍ":{"ha":1071,"x_min":81,"x_max":990,"o":"m 535 -11 q 294 50 396 -11 q 136 224 192 111 q 81 489 81 336 q 135 756 81 643 q 293 930 190 869 q 535 990 396 990 q 778 930 675 990 q 935 756 881 869 q 990 490 990 643 q 935 224 990 338 q 778 50 881 111 q 535 -11 675 -11 m 535 106 q 764 206 682 106 q 846 490 846 306 q 765 774 846 675 q 535 874 683 874 q 308 774 389 874 q 226 490 226 675 q 308 206 226 306 q 535 106 389 106 m 321 1188 q 303 1229 303 1207 q 319 1266 303 1250 q 357 1282 336 1282 q 407 1244 392 1282 l 475 1104 q 479 1086 479 1094 q 470 1064 479 1072 q 449 1056 461 1056 q 421 1069 433 1056 l 321 1188 m 496 1188 q 478 1229 478 1207 q 494 1266 478 1250 q 531 1282 510 1282 q 582 1244 564 1282 l 650 1104 q 654 1088 654 1096 q 645 1065 654 1074 q 624 1056 636 1056 q 594 1069 607 1056 l 496 1188 z "},"Ö":{"ha":1071,"x_min":81,"x_max":990,"o":"m 535 -11 q 294 50 396 -11 q 136 224 192 111 q 81 489 81 336 q 135 756 81 643 q 293 930 190 869 q 535 990 396 990 q 778 930 675 990 q 935 756 881 869 q 990 490 990 643 q 935 224 990 338 q 778 50 881 111 q 535 -11 675 -11 m 535 106 q 764 206 682 106 q 846 490 846 306 q 765 774 846 675 q 535 874 683 874 q 308 774 389 874 q 226 490 226 675 q 308 206 226 306 q 535 106 389 106 m 413 1094 q 356 1115 378 1094 q 333 1169 333 1136 q 356 1225 333 1204 q 413 1246 378 1246 q 469 1224 446 1246 q 492 1169 492 1203 q 469 1115 492 1136 q 413 1094 447 1094 m 657 1094 q 601 1115 624 1094 q 579 1169 579 1136 q 601 1224 579 1203 q 657 1246 624 1246 q 714 1225 692 1246 q 736 1169 736 1204 q 714 1115 736 1136 q 657 1094 692 1094 z "},"Ȫ":{"ha":1071,"x_min":81,"x_max":990,"o":"m 535 -11 q 294 50 396 -11 q 136 224 192 111 q 81 489 81 336 q 135 756 81 643 q 293 930 190 869 q 535 990 396 990 q 778 930 675 990 q 935 756 881 869 q 990 490 990 643 q 935 224 990 338 q 778 50 881 111 q 535 -11 675 -11 m 535 106 q 764 206 682 106 q 846 490 846 306 q 765 774 846 675 q 535 874 683 874 q 308 774 389 874 q 226 490 226 675 q 308 206 226 306 q 535 106 389 106 m 413 1094 q 356 1115 378 1094 q 333 1169 333 1136 q 356 1225 333 1204 q 413 1246 378 1246 q 469 1224 446 1246 q 492 1169 492 1203 q 469 1115 492 1136 q 413 1094 447 1094 m 657 1094 q 601 1115 624 1094 q 579 1169 579 1136 q 601 1224 579 1203 q 657 1246 624 1246 q 714 1225 692 1246 q 736 1169 736 1204 q 714 1115 736 1136 q 657 1094 692 1094 m 367 1343 q 326 1356 342 1343 q 311 1392 311 1369 q 326 1428 311 1415 q 367 1440 342 1440 l 703 1440 q 743 1428 728 1440 q 758 1392 758 1415 q 743 1356 758 1369 q 703 1343 728 1343 l 367 1343 z "},"Ȱ":{"ha":1071,"x_min":81,"x_max":990,"o":"m 535 -11 q 294 50 396 -11 q 136 224 192 111 q 81 489 81 336 q 135 756 81 643 q 293 930 190 869 q 535 990 396 990 q 778 930 675 990 q 935 756 881 869 q 990 490 990 643 q 935 224 990 338 q 778 50 881 111 q 535 -11 675 -11 m 535 106 q 764 206 682 106 q 846 490 846 306 q 765 774 846 675 q 535 874 683 874 q 308 774 389 874 q 226 490 226 675 q 308 206 226 306 q 535 106 389 106 m 535 1089 q 471 1111 494 1089 q 447 1169 447 1133 q 471 1228 447 1207 q 535 1250 494 1250 q 598 1228 574 1250 q 622 1169 622 1207 q 599 1111 622 1133 q 535 1089 575 1089 m 367 1343 q 326 1356 342 1343 q 311 1392 311 1369 q 326 1428 311 1415 q 367 1440 342 1440 l 703 1440 q 743 1428 728 1440 q 758 1392 758 1415 q 743 1356 758 1369 q 703 1343 728 1343 l 367 1343 z "},"Ọ":{"ha":1071,"x_min":81,"x_max":990,"o":"m 535 -11 q 294 50 396 -11 q 136 224 192 111 q 81 489 81 336 q 135 756 81 643 q 293 930 190 869 q 535 990 396 990 q 778 930 675 990 q 935 756 881 869 q 990 490 990 643 q 935 224 990 338 q 778 50 881 111 q 535 -11 675 -11 m 535 106 q 764 206 682 106 q 846 490 846 306 q 765 774 846 675 q 535 874 683 874 q 308 774 389 874 q 226 490 226 675 q 308 206 226 306 q 535 106 389 106 m 535 -267 q 476 -245 499 -267 q 454 -189 454 -224 q 476 -133 454 -154 q 535 -112 499 -112 q 592 -134 569 -112 q 615 -189 615 -156 q 593 -245 615 -224 q 535 -267 571 -267 z "},"Ò":{"ha":1071,"x_min":81,"x_max":990,"o":"m 535 -11 q 294 50 396 -11 q 136 224 192 111 q 81 489 81 336 q 135 756 81 643 q 293 930 190 869 q 535 990 396 990 q 778 930 675 990 q 935 756 881 869 q 990 490 990 643 q 935 224 990 338 q 778 50 881 111 q 535 -11 675 -11 m 535 106 q 764 206 682 106 q 846 490 846 306 q 765 774 846 675 q 535 874 683 874 q 308 774 389 874 q 226 490 226 675 q 308 206 226 306 q 535 106 389 106 m 354 1168 q 315 1225 315 1192 q 332 1265 315 1249 q 372 1282 349 1282 q 426 1256 400 1282 l 558 1115 q 571 1089 571 1103 q 560 1065 571 1075 q 535 1056 550 1056 q 514 1061 524 1056 l 354 1168 z "},"Ỏ":{"ha":1071,"x_min":81,"x_max":990,"o":"m 535 -11 q 294 50 396 -11 q 136 224 192 111 q 81 489 81 336 q 135 756 81 643 q 293 930 190 869 q 535 990 396 990 q 778 930 675 990 q 935 756 881 869 q 990 490 990 643 q 935 224 990 338 q 778 50 881 111 q 535 -11 675 -11 m 535 106 q 764 206 682 106 q 846 490 846 306 q 765 774 846 675 q 535 874 683 874 q 308 774 389 874 q 226 490 226 675 q 308 206 226 306 q 535 106 389 106 m 578 1082 q 565 1063 576 1069 q 539 1056 554 1056 q 509 1065 522 1056 q 496 1093 496 1075 q 510 1130 496 1117 q 553 1156 525 1143 q 579 1171 572 1165 q 586 1185 586 1176 q 572 1203 586 1196 q 533 1210 558 1210 q 463 1199 503 1210 q 432 1206 444 1194 q 419 1232 419 1217 q 426 1251 419 1242 q 443 1264 432 1260 q 542 1281 483 1281 q 647 1256 608 1281 q 686 1193 686 1232 q 670 1149 686 1164 q 624 1121 654 1135 q 590 1102 600 1110 q 578 1082 581 1094 z "},"Ơ":{"ha":1071,"x_min":81,"x_max":990,"o":"m 814 903 q 945 735 900 840 q 990 490 990 631 q 935 224 990 338 q 778 50 881 111 q 535 -11 675 -11 q 294 50 396 -11 q 136 224 192 111 q 81 489 81 336 q 136 756 81 643 q 294 930 192 869 q 539 990 397 990 q 638 985 574 990 q 724 979 696 979 q 829 1006 800 979 q 863 1106 858 1032 q 931 1183 868 1183 q 990 1106 990 1183 q 943 968 990 1024 q 814 903 896 913 m 535 106 q 764 206 682 106 q 846 490 846 306 q 765 774 846 675 q 535 874 683 874 q 308 774 389 874 q 226 490 226 675 q 308 206 226 306 q 535 106 389 106 z "},"Ớ":{"ha":1071,"x_min":81,"x_max":990,"o":"m 814 903 q 945 735 900 840 q 990 490 990 631 q 935 224 990 338 q 778 50 881 111 q 535 -11 675 -11 q 294 50 396 -11 q 136 224 192 111 q 81 489 81 336 q 136 756 81 643 q 294 930 192 869 q 539 990 397 990 q 638 985 574 990 q 724 979 696 979 q 829 1006 800 979 q 863 1106 858 1032 q 931 1183 868 1183 q 990 1106 990 1183 q 943 968 990 1024 q 814 903 896 913 m 535 106 q 764 206 682 106 q 846 490 846 306 q 765 774 846 675 q 535 874 683 874 q 308 774 389 874 q 226 490 226 675 q 308 206 226 306 q 535 106 389 106 m 556 1061 q 535 1056 546 1056 q 509 1065 519 1056 q 499 1089 499 1075 q 511 1115 499 1103 l 643 1256 q 697 1282 669 1282 q 738 1265 721 1282 q 754 1225 754 1249 q 715 1168 754 1192 l 556 1061 z "},"Ợ":{"ha":1071,"x_min":81,"x_max":990,"o":"m 814 903 q 945 735 900 840 q 990 490 990 631 q 935 224 990 338 q 778 50 881 111 q 535 -11 675 -11 q 294 50 396 -11 q 136 224 192 111 q 81 489 81 336 q 136 756 81 643 q 294 930 192 869 q 539 990 397 990 q 638 985 574 990 q 724 979 696 979 q 829 1006 800 979 q 863 1106 858 1032 q 931 1183 868 1183 q 990 1106 990 1183 q 943 968 990 1024 q 814 903 896 913 m 535 106 q 764 206 682 106 q 846 490 846 306 q 765 774 846 675 q 535 874 683 874 q 308 774 389 874 q 226 490 226 675 q 308 206 226 306 q 535 106 389 106 m 536 -267 q 478 -245 500 -267 q 456 -189 456 -224 q 478 -133 456 -154 q 536 -112 500 -112 q 594 -134 571 -112 q 617 -189 617 -156 q 594 -245 617 -224 q 536 -267 572 -267 z "},"Ờ":{"ha":1071,"x_min":81,"x_max":990,"o":"m 814 903 q 945 735 900 840 q 990 490 990 631 q 935 224 990 338 q 778 50 881 111 q 535 -11 675 -11 q 294 50 396 -11 q 136 224 192 111 q 81 489 81 336 q 136 756 81 643 q 294 930 192 869 q 539 990 397 990 q 638 985 574 990 q 724 979 696 979 q 829 1006 800 979 q 863 1106 858 1032 q 931 1183 868 1183 q 990 1106 990 1183 q 943 968 990 1024 q 814 903 896 913 m 535 106 q 764 206 682 106 q 846 490 846 306 q 765 774 846 675 q 535 874 683 874 q 308 774 389 874 q 226 490 226 675 q 308 206 226 306 q 535 106 389 106 m 354 1168 q 315 1225 315 1192 q 332 1265 315 1249 q 372 1282 349 1282 q 426 1256 400 1282 l 558 1115 q 571 1089 571 1103 q 560 1065 571 1075 q 535 1056 550 1056 q 514 1061 524 1056 l 354 1168 z "},"Ở":{"ha":1071,"x_min":81,"x_max":990,"o":"m 814 903 q 945 735 900 840 q 990 490 990 631 q 935 224 990 338 q 778 50 881 111 q 535 -11 675 -11 q 294 50 396 -11 q 136 224 192 111 q 81 489 81 336 q 136 756 81 643 q 294 930 192 869 q 539 990 397 990 q 638 985 574 990 q 724 979 696 979 q 829 1006 800 979 q 863 1106 858 1032 q 931 1183 868 1183 q 990 1106 990 1183 q 943 968 990 1024 q 814 903 896 913 m 535 106 q 764 206 682 106 q 846 490 846 306 q 765 774 846 675 q 535 874 683 874 q 308 774 389 874 q 226 490 226 675 q 308 206 226 306 q 535 106 389 106 m 578 1082 q 565 1063 576 1069 q 539 1056 554 1056 q 509 1065 522 1056 q 496 1093 496 1075 q 510 1130 496 1117 q 553 1156 525 1143 q 579 1171 572 1165 q 586 1185 586 1176 q 572 1203 586 1196 q 533 1210 558 1210 q 463 1199 503 1210 q 432 1206 444 1194 q 419 1232 419 1217 q 426 1251 419 1242 q 443 1264 432 1260 q 542 1281 483 1281 q 647 1256 608 1281 q 686 1193 686 1232 q 670 1149 686 1164 q 624 1121 654 1135 q 590 1102 600 1110 q 578 1082 581 1094 z "},"Ỡ":{"ha":1071,"x_min":81,"x_max":990,"o":"m 814 903 q 945 735 900 840 q 990 490 990 631 q 935 224 990 338 q 778 50 881 111 q 535 -11 675 -11 q 294 50 396 -11 q 136 224 192 111 q 81 489 81 336 q 136 756 81 643 q 294 930 192 869 q 539 990 397 990 q 638 985 574 990 q 724 979 696 979 q 829 1006 800 979 q 863 1106 858 1032 q 931 1183 868 1183 q 990 1106 990 1183 q 943 968 990 1024 q 814 903 896 913 m 535 106 q 764 206 682 106 q 846 490 846 306 q 765 774 846 675 q 535 874 683 874 q 308 774 389 874 q 226 490 226 675 q 308 206 226 306 q 535 106 389 106 m 635 1094 q 585 1102 611 1094 q 525 1124 560 1110 q 436 1147 465 1147 q 403 1139 415 1147 q 379 1115 390 1131 q 370 1106 376 1113 q 358 1097 364 1100 q 344 1093 351 1093 q 319 1104 329 1093 q 310 1132 310 1115 q 326 1184 310 1157 q 370 1229 342 1211 q 435 1247 399 1247 q 484 1240 458 1247 q 544 1218 510 1232 q 633 1194 604 1194 q 667 1203 654 1194 q 690 1225 679 1211 q 708 1242 701 1238 q 725 1247 715 1247 q 750 1237 740 1247 q 760 1210 760 1226 q 744 1158 760 1185 q 699 1113 728 1131 q 635 1094 671 1094 z "},"Ő":{"ha":1071,"x_min":81,"x_max":990,"o":"m 535 -11 q 294 50 396 -11 q 136 224 192 111 q 81 489 81 336 q 135 756 81 643 q 293 930 190 869 q 535 990 396 990 q 778 930 675 990 q 935 756 881 869 q 990 490 990 643 q 935 224 990 338 q 778 50 881 111 q 535 -11 675 -11 m 535 106 q 764 206 682 106 q 846 490 846 306 q 765 774 846 675 q 535 874 683 874 q 308 774 389 874 q 226 490 226 675 q 308 206 226 306 q 535 106 389 106 m 475 1069 q 446 1056 463 1056 q 424 1065 433 1056 q 415 1088 415 1074 q 419 1104 415 1096 l 488 1244 q 538 1282 506 1282 q 575 1266 558 1282 q 592 1229 592 1250 q 574 1188 592 1207 l 475 1069 m 649 1069 q 621 1056 636 1056 q 599 1065 608 1056 q 590 1088 590 1074 q 594 1104 590 1096 l 663 1244 q 713 1282 681 1282 q 750 1266 733 1282 q 767 1229 767 1250 q 749 1188 767 1207 l 649 1069 z "},"Ȏ":{"ha":1071,"x_min":81,"x_max":990,"o":"m 535 -11 q 294 50 396 -11 q 136 224 192 111 q 81 489 81 336 q 135 756 81 643 q 293 930 190 869 q 535 990 396 990 q 778 930 675 990 q 935 756 881 869 q 990 490 990 643 q 935 224 990 338 q 778 50 881 111 q 535 -11 675 -11 m 535 106 q 764 206 682 106 q 846 490 846 306 q 765 774 846 675 q 535 874 683 874 q 308 774 389 874 q 226 490 226 675 q 308 206 226 306 q 535 106 389 106 m 396 1100 q 351 1076 376 1076 q 322 1088 335 1076 q 308 1118 308 1100 q 317 1146 308 1132 q 402 1231 344 1200 q 535 1261 460 1261 q 666 1231 608 1261 q 753 1146 724 1201 q 761 1117 761 1129 q 749 1088 761 1100 q 719 1076 736 1076 q 674 1100 693 1076 q 535 1167 625 1167 q 396 1100 444 1167 z "},"Ō":{"ha":1071,"x_min":81,"x_max":990,"o":"m 535 -11 q 294 50 396 -11 q 136 224 192 111 q 81 489 81 336 q 135 756 81 643 q 293 930 190 869 q 535 990 396 990 q 778 930 675 990 q 935 756 881 869 q 990 490 990 643 q 935 224 990 338 q 778 50 881 111 q 535 -11 675 -11 m 535 106 q 764 206 682 106 q 846 490 846 306 q 765 774 846 675 q 535 874 683 874 q 308 774 389 874 q 226 490 226 675 q 308 206 226 306 q 535 106 389 106 m 367 1121 q 326 1134 342 1121 q 311 1169 311 1147 q 326 1206 311 1193 q 367 1218 342 1218 l 703 1218 q 743 1206 728 1218 q 758 1169 758 1193 q 743 1134 758 1147 q 703 1121 728 1121 l 367 1121 z "},"Ṓ":{"ha":1071,"x_min":81,"x_max":990,"o":"m 535 -11 q 294 50 396 -11 q 136 224 192 111 q 81 489 81 336 q 135 756 81 643 q 293 930 190 869 q 535 990 396 990 q 778 930 675 990 q 935 756 881 869 q 990 490 990 643 q 935 224 990 338 q 778 50 881 111 q 535 -11 675 -11 m 535 106 q 764 206 682 106 q 846 490 846 306 q 765 774 846 675 q 535 874 683 874 q 308 774 389 874 q 226 490 226 675 q 308 206 226 306 q 535 106 389 106 m 367 1121 q 326 1134 342 1121 q 311 1169 311 1147 q 326 1206 311 1193 q 367 1218 342 1218 l 703 1218 q 743 1206 728 1218 q 758 1169 758 1193 q 743 1134 758 1147 q 703 1121 728 1121 l 367 1121 m 556 1283 q 535 1278 546 1278 q 509 1288 519 1278 q 499 1311 499 1297 q 511 1338 499 1325 l 643 1478 q 697 1504 669 1504 q 738 1488 721 1504 q 754 1447 754 1471 q 715 1390 754 1414 l 556 1283 z "},"Ṑ":{"ha":1071,"x_min":81,"x_max":990,"o":"m 535 -11 q 294 50 396 -11 q 136 224 192 111 q 81 489 81 336 q 135 756 81 643 q 293 930 190 869 q 535 990 396 990 q 778 930 675 990 q 935 756 881 869 q 990 490 990 643 q 935 224 990 338 q 778 50 881 111 q 535 -11 675 -11 m 535 106 q 764 206 682 106 q 846 490 846 306 q 765 774 846 675 q 535 874 683 874 q 308 774 389 874 q 226 490 226 675 q 308 206 226 306 q 535 106 389 106 m 367 1121 q 326 1134 342 1121 q 311 1169 311 1147 q 326 1206 311 1193 q 367 1218 342 1218 l 703 1218 q 743 1206 728 1218 q 758 1169 758 1193 q 743 1134 758 1147 q 703 1121 728 1121 l 367 1121 m 354 1390 q 315 1447 315 1414 q 332 1488 315 1471 q 372 1504 349 1504 q 426 1478 400 1504 l 558 1338 q 571 1311 571 1325 q 560 1288 571 1297 q 535 1278 550 1278 q 514 1283 524 1278 l 354 1390 z "},"Ǫ":{"ha":1071,"x_min":81,"x_max":990,"o":"m 676 6 q 576 -103 576 -22 q 599 -164 576 -142 q 661 -186 622 -186 q 728 -171 682 -186 q 742 -168 733 -168 q 764 -178 756 -168 q 772 -204 772 -189 q 750 -242 772 -229 q 642 -269 701 -269 q 522 -228 568 -269 q 475 -122 475 -186 q 518 -11 475 -58 q 286 53 385 -8 q 134 227 188 115 q 81 489 81 339 q 135 756 81 643 q 293 930 190 869 q 535 990 396 990 q 778 930 675 990 q 935 756 881 869 q 990 490 990 643 q 908 176 990 301 q 676 6 826 50 m 535 106 q 764 206 682 106 q 846 490 846 306 q 765 774 846 675 q 535 874 683 874 q 308 774 389 874 q 226 490 226 675 q 308 206 226 306 q 535 106 389 106 z "},"Ø":{"ha":1071,"x_min":81,"x_max":990,"o":"m 833 890 q 950 723 910 825 q 990 490 990 621 q 935 224 990 338 q 778 50 881 111 q 535 -11 675 -11 q 332 31 419 -11 l 300 -25 q 244 -61 278 -61 q 208 -47 224 -61 q 193 -8 193 -32 q 204 29 193 11 l 239 89 q 122 256 163 154 q 81 489 81 358 q 135 756 81 643 q 293 930 190 869 q 535 990 396 990 q 739 949 651 990 l 772 1006 q 825 1040 792 1040 q 863 1025 847 1040 q 879 986 879 1010 q 868 950 879 967 l 833 890 m 226 490 q 307 206 226 306 l 678 843 q 535 874 617 874 q 308 774 389 874 q 226 490 226 675 m 535 106 q 764 206 682 106 q 846 490 846 306 q 765 774 846 674 l 394 136 q 535 106 454 106 z "},"Ǿ":{"ha":1071,"x_min":81,"x_max":990,"o":"m 833 890 q 950 723 910 825 q 990 490 990 621 q 935 224 990 338 q 778 50 881 111 q 535 -11 675 -11 q 332 31 419 -11 l 300 -25 q 244 -61 278 -61 q 208 -47 224 -61 q 193 -8 193 -32 q 204 29 193 11 l 239 89 q 122 256 163 154 q 81 489 81 358 q 135 756 81 643 q 293 930 190 869 q 535 990 396 990 q 739 949 651 990 l 772 1006 q 825 1040 792 1040 q 863 1025 847 1040 q 879 986 879 1010 q 868 950 879 967 l 833 890 m 226 490 q 307 206 226 306 l 678 843 q 535 874 617 874 q 308 774 389 874 q 226 490 226 675 m 535 106 q 764 206 682 106 q 846 490 846 306 q 765 774 846 674 l 394 136 q 535 106 454 106 m 556 1061 q 535 1056 546 1056 q 509 1065 519 1056 q 499 1089 499 1075 q 511 1115 499 1103 l 643 1256 q 697 1282 669 1282 q 738 1265 721 1282 q 754 1225 754 1249 q 715 1168 754 1192 l 556 1061 z "},"Õ":{"ha":1071,"x_min":81,"x_max":990,"o":"m 535 -11 q 294 50 396 -11 q 136 224 192 111 q 81 489 81 336 q 135 756 81 643 q 293 930 190 869 q 535 990 396 990 q 778 930 675 990 q 935 756 881 869 q 990 490 990 643 q 935 224 990 338 q 778 50 881 111 q 535 -11 675 -11 m 535 106 q 764 206 682 106 q 846 490 846 306 q 765 774 846 675 q 535 874 683 874 q 308 774 389 874 q 226 490 226 675 q 308 206 226 306 q 535 106 389 106 m 635 1094 q 585 1102 611 1094 q 525 1124 560 1110 q 436 1147 465 1147 q 403 1139 415 1147 q 379 1115 390 1131 q 370 1106 376 1113 q 358 1097 364 1100 q 344 1093 351 1093 q 319 1104 329 1093 q 310 1132 310 1115 q 326 1184 310 1157 q 370 1229 342 1211 q 435 1247 399 1247 q 484 1240 458 1247 q 544 1218 510 1232 q 633 1194 604 1194 q 667 1203 654 1194 q 690 1225 679 1211 q 708 1242 701 1238 q 725 1247 715 1247 q 750 1237 740 1247 q 760 1210 760 1226 q 744 1158 760 1185 q 699 1113 728 1131 q 635 1094 671 1094 z "},"Ṍ":{"ha":1071,"x_min":81,"x_max":990,"o":"m 535 -11 q 294 50 396 -11 q 136 224 192 111 q 81 489 81 336 q 135 756 81 643 q 293 930 190 869 q 535 990 396 990 q 778 930 675 990 q 935 756 881 869 q 990 490 990 643 q 935 224 990 338 q 778 50 881 111 q 535 -11 675 -11 m 535 106 q 764 206 682 106 q 846 490 846 306 q 765 774 846 675 q 535 874 683 874 q 308 774 389 874 q 226 490 226 675 q 308 206 226 306 q 535 106 389 106 m 635 1094 q 585 1102 611 1094 q 525 1124 560 1110 q 436 1147 465 1147 q 403 1139 415 1147 q 379 1115 390 1131 q 370 1106 376 1113 q 358 1097 364 1100 q 344 1093 351 1093 q 319 1104 329 1093 q 310 1132 310 1115 q 326 1184 310 1157 q 370 1229 342 1211 q 435 1247 399 1247 q 484 1240 458 1247 q 544 1218 510 1232 q 633 1194 604 1194 q 667 1203 654 1194 q 690 1225 679 1211 q 708 1242 701 1238 q 725 1247 715 1247 q 750 1237 740 1247 q 760 1210 760 1226 q 744 1158 760 1185 q 699 1113 728 1131 q 635 1094 671 1094 m 556 1283 q 535 1278 546 1278 q 509 1288 519 1278 q 499 1311 499 1297 q 511 1338 499 1325 l 643 1478 q 697 1504 669 1504 q 738 1488 721 1504 q 754 1447 754 1471 q 715 1390 754 1414 l 556 1283 z "},"Ṏ":{"ha":1071,"x_min":81,"x_max":990,"o":"m 535 -11 q 294 50 396 -11 q 136 224 192 111 q 81 489 81 336 q 135 756 81 643 q 293 930 190 869 q 535 990 396 990 q 778 930 675 990 q 935 756 881 869 q 990 490 990 643 q 935 224 990 338 q 778 50 881 111 q 535 -11 675 -11 m 535 106 q 764 206 682 106 q 846 490 846 306 q 765 774 846 675 q 535 874 683 874 q 308 774 389 874 q 226 490 226 675 q 308 206 226 306 q 535 106 389 106 m 635 1094 q 585 1102 611 1094 q 525 1124 560 1110 q 436 1147 465 1147 q 403 1139 415 1147 q 379 1115 390 1131 q 370 1106 376 1113 q 358 1097 364 1100 q 344 1093 351 1093 q 319 1104 329 1093 q 310 1132 310 1115 q 326 1184 310 1157 q 370 1229 342 1211 q 435 1247 399 1247 q 484 1240 458 1247 q 544 1218 510 1232 q 633 1194 604 1194 q 667 1203 654 1194 q 690 1225 679 1211 q 708 1242 701 1238 q 725 1247 715 1247 q 750 1237 740 1247 q 760 1210 760 1226 q 744 1158 760 1185 q 699 1113 728 1131 q 635 1094 671 1094 m 413 1317 q 356 1338 378 1317 q 333 1392 333 1358 q 356 1447 333 1426 q 413 1468 378 1468 q 469 1447 446 1468 q 492 1392 492 1425 q 469 1338 492 1358 q 413 1317 447 1317 m 657 1317 q 601 1338 624 1317 q 579 1392 579 1358 q 601 1447 579 1425 q 657 1468 624 1468 q 714 1447 692 1468 q 736 1392 736 1426 q 714 1338 736 1358 q 657 1317 692 1317 z "},"Ȭ":{"ha":1071,"x_min":81,"x_max":990,"o":"m 535 -11 q 294 50 396 -11 q 136 224 192 111 q 81 489 81 336 q 135 756 81 643 q 293 930 190 869 q 535 990 396 990 q 778 930 675 990 q 935 756 881 869 q 990 490 990 643 q 935 224 990 338 q 778 50 881 111 q 535 -11 675 -11 m 535 106 q 764 206 682 106 q 846 490 846 306 q 765 774 846 675 q 535 874 683 874 q 308 774 389 874 q 226 490 226 675 q 308 206 226 306 q 535 106 389 106 m 635 1094 q 585 1102 611 1094 q 525 1124 560 1110 q 436 1147 465 1147 q 403 1139 415 1147 q 379 1115 390 1131 q 370 1106 376 1113 q 358 1097 364 1100 q 344 1093 351 1093 q 319 1104 329 1093 q 310 1132 310 1115 q 326 1184 310 1157 q 370 1229 342 1211 q 435 1247 399 1247 q 484 1240 458 1247 q 544 1218 510 1232 q 633 1194 604 1194 q 667 1203 654 1194 q 690 1225 679 1211 q 708 1242 701 1238 q 725 1247 715 1247 q 750 1237 740 1247 q 760 1210 760 1226 q 744 1158 760 1185 q 699 1113 728 1131 q 635 1094 671 1094 m 367 1343 q 326 1356 342 1343 q 311 1392 311 1369 q 326 1428 311 1415 q 367 1440 342 1440 l 703 1440 q 743 1428 728 1440 q 758 1392 758 1415 q 743 1356 758 1369 q 703 1343 728 1343 l 367 1343 z "},"Œ":{"ha":1451,"x_min":81,"x_max":1401,"o":"m 578 0 q 211 128 342 0 q 81 490 81 256 q 210 851 81 724 q 578 979 340 979 l 1335 979 q 1384 964 1367 979 q 1401 921 1401 949 q 1335 864 1401 864 l 892 864 l 892 556 l 1307 556 q 1356 540 1339 556 q 1374 497 1374 525 q 1356 454 1374 469 q 1307 439 1339 439 l 892 439 l 892 115 l 1335 115 q 1401 58 1401 115 q 1384 15 1401 31 q 1335 0 1367 0 l 578 0 m 751 115 l 751 864 l 586 864 q 316 769 406 864 q 226 490 226 674 q 316 211 226 307 q 586 115 406 115 l 751 115 z "},"P":{"ha":906,"x_min":114,"x_max":847,"o":"m 185 -7 q 133 13 153 -7 q 114 65 114 32 l 114 910 q 133 960 114 942 q 185 979 151 979 l 519 979 q 761 903 675 979 q 847 686 847 826 q 761 469 847 547 q 519 392 675 392 l 257 392 l 257 65 q 238 13 257 32 q 185 -7 219 -7 m 504 507 q 710 686 710 507 q 504 864 710 864 l 257 864 l 257 507 l 504 507 z "},"Þ":{"ha":906,"x_min":114,"x_max":847,"o":"m 528 769 q 763 698 679 769 q 847 499 847 626 q 763 299 847 371 q 528 226 678 226 l 256 226 l 256 65 q 236 13 256 32 q 185 -7 217 -7 q 133 13 153 -7 q 114 65 114 32 l 114 914 q 133 967 114 947 q 185 986 153 986 q 236 967 217 986 q 256 914 256 947 l 256 769 l 528 769 m 508 340 q 660 379 610 340 q 710 499 710 418 q 660 617 710 579 q 508 654 611 654 l 256 654 l 256 340 l 508 340 z "},"Q":{"ha":1071,"x_min":81,"x_max":990,"o":"m 885 -160 q 897 -200 897 -181 q 878 -241 897 -225 q 832 -257 858 -257 q 761 -215 788 -257 l 681 -82 q 535 -11 636 -11 q 294 50 396 -11 q 136 224 192 111 q 81 489 81 336 q 135 756 81 643 q 293 930 190 869 q 535 990 396 990 q 778 930 675 990 q 935 756 881 869 q 990 490 990 643 q 921 198 990 319 q 725 25 851 76 q 829 -68 785 6 l 885 -160 m 226 490 q 308 206 226 306 q 535 106 389 106 q 764 206 682 106 q 846 490 846 306 q 765 774 846 675 q 535 874 683 874 q 308 774 389 874 q 226 490 226 675 z "},"R":{"ha":958,"x_min":114,"x_max":890,"o":"m 878 89 q 890 50 890 71 q 870 8 890 25 q 824 -10 850 -10 q 761 25 785 -10 l 575 314 q 507 384 543 364 q 413 404 471 404 l 256 404 l 256 65 q 237 13 256 32 q 185 -7 218 -7 q 133 13 153 -7 q 114 65 114 32 l 114 910 q 133 960 114 942 q 185 979 151 979 l 531 979 q 778 907 693 979 q 864 696 864 835 q 799 509 864 581 q 613 418 733 438 q 678 383 649 408 q 735 314 707 358 l 878 89 m 514 519 q 674 562 622 519 q 726 693 726 604 q 675 823 726 782 q 514 864 624 864 l 254 864 l 254 519 l 514 519 z "},"Ŕ":{"ha":958,"x_min":114,"x_max":890,"o":"m 878 89 q 890 50 890 71 q 870 8 890 25 q 824 -10 850 -10 q 761 25 785 -10 l 575 314 q 507 384 543 364 q 413 404 471 404 l 256 404 l 256 65 q 237 13 256 32 q 185 -7 218 -7 q 133 13 153 -7 q 114 65 114 32 l 114 910 q 133 960 114 942 q 185 979 151 979 l 531 979 q 778 907 693 979 q 864 696 864 835 q 799 509 864 581 q 613 418 733 438 q 678 383 649 408 q 735 314 707 358 l 878 89 m 514 519 q 674 562 622 519 q 726 693 726 604 q 675 823 726 782 q 514 864 624 864 l 254 864 l 254 519 l 514 519 m 499 1061 q 478 1056 489 1056 q 452 1065 463 1056 q 442 1089 442 1075 q 454 1115 442 1103 l 586 1256 q 640 1282 613 1282 q 681 1265 664 1282 q 697 1225 697 1249 q 658 1168 697 1192 l 499 1061 z "},"Ř":{"ha":958,"x_min":114,"x_max":890,"o":"m 878 89 q 890 50 890 71 q 870 8 890 25 q 824 -10 850 -10 q 761 25 785 -10 l 575 314 q 507 384 543 364 q 413 404 471 404 l 256 404 l 256 65 q 237 13 256 32 q 185 -7 218 -7 q 133 13 153 -7 q 114 65 114 32 l 114 910 q 133 960 114 942 q 185 979 151 979 l 531 979 q 778 907 693 979 q 864 696 864 835 q 799 509 864 581 q 613 418 733 438 q 678 383 649 408 q 735 314 707 358 l 878 89 m 514 519 q 674 562 622 519 q 726 693 726 604 q 675 823 726 782 q 514 864 624 864 l 254 864 l 254 519 l 514 519 m 478 1056 q 421 1079 446 1056 l 301 1197 q 283 1235 283 1215 q 297 1267 283 1254 q 329 1281 310 1281 q 367 1264 350 1281 l 478 1144 l 589 1264 q 626 1281 606 1281 q 658 1267 644 1281 q 672 1235 672 1254 q 654 1197 672 1215 l 535 1079 q 478 1056 510 1056 z "},"Ŗ":{"ha":958,"x_min":114,"x_max":890,"o":"m 878 89 q 890 50 890 71 q 870 8 890 25 q 824 -10 850 -10 q 761 25 785 -10 l 575 314 q 507 384 543 364 q 413 404 471 404 l 256 404 l 256 65 q 237 13 256 32 q 185 -7 218 -7 q 133 13 153 -7 q 114 65 114 32 l 114 910 q 133 960 114 942 q 185 979 151 979 l 531 979 q 778 907 693 979 q 864 696 864 835 q 799 509 864 581 q 613 418 733 438 q 678 383 649 408 q 735 314 707 358 l 878 89 m 514 519 q 674 562 622 519 q 726 693 726 604 q 675 823 726 782 q 514 864 624 864 l 254 864 l 254 519 l 514 519 m 476 -90 q 542 -116 518 -90 q 567 -193 567 -142 q 510 -343 567 -279 q 469 -362 492 -362 q 444 -354 454 -362 q 433 -333 433 -346 q 443 -308 433 -322 q 479 -232 475 -269 l 476 -232 q 422 -214 444 -232 q 400 -164 400 -196 q 422 -110 400 -131 q 476 -90 443 -90 z "},"Ȑ":{"ha":958,"x_min":114,"x_max":890,"o":"m 878 89 q 890 50 890 71 q 870 8 890 25 q 824 -10 850 -10 q 761 25 785 -10 l 575 314 q 507 384 543 364 q 413 404 471 404 l 256 404 l 256 65 q 237 13 256 32 q 185 -7 218 -7 q 133 13 153 -7 q 114 65 114 32 l 114 910 q 133 960 114 942 q 185 979 151 979 l 531 979 q 778 907 693 979 q 864 696 864 835 q 799 509 864 581 q 613 418 733 438 q 678 383 649 408 q 735 314 707 358 l 878 89 m 514 519 q 674 562 622 519 q 726 693 726 604 q 675 823 726 782 q 514 864 624 864 l 254 864 l 254 519 l 514 519 m 264 1188 q 246 1229 246 1207 q 263 1266 246 1250 q 300 1282 279 1282 q 350 1244 335 1282 l 418 1104 q 422 1086 422 1094 q 413 1064 422 1072 q 392 1056 404 1056 q 364 1069 376 1056 l 264 1188 m 439 1188 q 421 1229 421 1207 q 437 1266 421 1250 q 474 1282 453 1282 q 525 1244 507 1282 l 593 1104 q 597 1088 597 1096 q 588 1065 597 1074 q 567 1056 579 1056 q 538 1069 550 1056 l 439 1188 z "},"Ṛ":{"ha":958,"x_min":114,"x_max":890,"o":"m 878 89 q 890 50 890 71 q 870 8 890 25 q 824 -10 850 -10 q 761 25 785 -10 l 575 314 q 507 384 543 364 q 413 404 471 404 l 256 404 l 256 65 q 237 13 256 32 q 185 -7 218 -7 q 133 13 153 -7 q 114 65 114 32 l 114 910 q 133 960 114 942 q 185 979 151 979 l 531 979 q 778 907 693 979 q 864 696 864 835 q 799 509 864 581 q 613 418 733 438 q 678 383 649 408 q 735 314 707 358 l 878 89 m 514 519 q 674 562 622 519 q 726 693 726 604 q 675 823 726 782 q 514 864 624 864 l 254 864 l 254 519 l 514 519 m 478 -267 q 419 -245 442 -267 q 397 -189 397 -224 q 419 -133 397 -154 q 478 -112 442 -112 q 535 -134 513 -112 q 558 -189 558 -156 q 536 -245 558 -224 q 478 -267 514 -267 z "},"Ȓ":{"ha":958,"x_min":114,"x_max":890,"o":"m 878 89 q 890 50 890 71 q 870 8 890 25 q 824 -10 850 -10 q 761 25 785 -10 l 575 314 q 507 384 543 364 q 413 404 471 404 l 256 404 l 256 65 q 237 13 256 32 q 185 -7 218 -7 q 133 13 153 -7 q 114 65 114 32 l 114 910 q 133 960 114 942 q 185 979 151 979 l 531 979 q 778 907 693 979 q 864 696 864 835 q 799 509 864 581 q 613 418 733 438 q 678 383 649 408 q 735 314 707 358 l 878 89 m 514 519 q 674 562 622 519 q 726 693 726 604 q 675 823 726 782 q 514 864 624 864 l 254 864 l 254 519 l 514 519 m 339 1100 q 294 1076 319 1076 q 265 1088 278 1076 q 251 1118 251 1100 q 260 1146 251 1132 q 345 1231 288 1200 q 478 1261 403 1261 q 609 1231 551 1261 q 696 1146 667 1201 q 704 1117 704 1129 q 692 1088 704 1100 q 663 1076 679 1076 q 617 1100 636 1076 q 478 1167 568 1167 q 339 1100 388 1167 z "},"Ṟ":{"ha":958,"x_min":114,"x_max":890,"o":"m 878 89 q 890 50 890 71 q 870 8 890 25 q 824 -10 850 -10 q 761 25 785 -10 l 575 314 q 507 384 543 364 q 413 404 471 404 l 256 404 l 256 65 q 237 13 256 32 q 185 -7 218 -7 q 133 13 153 -7 q 114 65 114 32 l 114 910 q 133 960 114 942 q 185 979 151 979 l 531 979 q 778 907 693 979 q 864 696 864 835 q 799 509 864 581 q 613 418 733 438 q 678 383 649 408 q 735 314 707 358 l 878 89 m 514 519 q 674 562 622 519 q 726 693 726 604 q 675 823 726 782 q 514 864 624 864 l 254 864 l 254 519 l 514 519 m 310 -236 q 269 -224 285 -236 q 254 -190 254 -212 q 269 -156 254 -168 q 310 -143 285 -143 l 646 -143 q 686 -156 671 -143 q 701 -190 701 -168 q 686 -224 701 -212 q 646 -236 671 -236 l 310 -236 z "},"S":{"ha":871,"x_min":58,"x_max":808,"o":"m 438 -11 q 237 18 332 -11 q 85 99 142 47 q 58 156 58 121 q 72 198 58 181 q 106 215 86 215 q 153 197 125 215 q 435 106 276 106 q 606 147 546 106 q 665 267 665 189 q 610 358 665 328 q 432 417 554 389 q 240 474 315 442 q 123 560 165 506 q 81 700 81 615 q 127 851 81 785 q 257 953 174 917 q 447 990 340 990 q 629 963 546 990 q 771 881 713 935 q 799 824 799 857 q 784 782 799 800 q 750 764 769 764 q 704 782 732 764 q 584 852 640 831 q 449 874 528 874 q 282 830 342 874 q 222 708 222 786 q 275 608 222 642 q 444 546 328 574 q 642 488 567 518 q 763 406 718 458 q 808 272 808 354 q 762 124 808 189 q 631 24 715 60 q 438 -11 547 -11 z "},"Ś":{"ha":871,"x_min":58,"x_max":808,"o":"m 438 -11 q 237 18 332 -11 q 85 99 142 47 q 58 156 58 121 q 72 198 58 181 q 106 215 86 215 q 153 197 125 215 q 435 106 276 106 q 606 147 546 106 q 665 267 665 189 q 610 358 665 328 q 432 417 554 389 q 240 474 315 442 q 123 560 165 506 q 81 700 81 615 q 127 851 81 785 q 257 953 174 917 q 447 990 340 990 q 629 963 546 990 q 771 881 713 935 q 799 824 799 857 q 784 782 799 800 q 750 764 769 764 q 704 782 732 764 q 584 852 640 831 q 449 874 528 874 q 282 830 342 874 q 222 708 222 786 q 275 608 222 642 q 444 546 328 574 q 642 488 567 518 q 763 406 718 458 q 808 272 808 354 q 762 124 808 189 q 631 24 715 60 q 438 -11 547 -11 m 458 1061 q 438 1056 449 1056 q 412 1065 422 1056 q 401 1089 401 1075 q 414 1115 401 1103 l 546 1256 q 600 1282 572 1282 q 640 1265 624 1282 q 657 1225 657 1249 q 618 1168 657 1192 l 458 1061 z "},"Ṥ":{"ha":871,"x_min":58,"x_max":808,"o":"m 438 -11 q 237 18 332 -11 q 85 99 142 47 q 58 156 58 121 q 72 198 58 181 q 106 215 86 215 q 153 197 125 215 q 435 106 276 106 q 606 147 546 106 q 665 267 665 189 q 610 358 665 328 q 432 417 554 389 q 240 474 315 442 q 123 560 165 506 q 81 700 81 615 q 127 851 81 785 q 257 953 174 917 q 447 990 340 990 q 629 963 546 990 q 771 881 713 935 q 799 824 799 857 q 784 782 799 800 q 750 764 769 764 q 704 782 732 764 q 584 852 640 831 q 449 874 528 874 q 282 830 342 874 q 222 708 222 786 q 275 608 222 642 q 444 546 328 574 q 642 488 567 518 q 763 406 718 458 q 808 272 808 354 q 762 124 808 189 q 631 24 715 60 q 438 -11 547 -11 m 475 1061 q 454 1056 465 1056 q 428 1065 439 1056 q 418 1089 418 1075 q 431 1115 418 1103 l 563 1256 q 617 1282 589 1282 q 657 1265 640 1282 q 674 1225 674 1249 q 635 1168 674 1192 l 475 1061 m 276 1119 q 213 1142 236 1119 q 189 1200 189 1164 q 213 1259 189 1238 q 276 1281 236 1281 q 340 1259 315 1281 q 364 1200 364 1238 q 340 1142 364 1164 q 276 1119 317 1119 z "},"Š":{"ha":871,"x_min":58,"x_max":808,"o":"m 438 -11 q 237 18 332 -11 q 85 99 142 47 q 58 156 58 121 q 72 198 58 181 q 106 215 86 215 q 153 197 125 215 q 435 106 276 106 q 606 147 546 106 q 665 267 665 189 q 610 358 665 328 q 432 417 554 389 q 240 474 315 442 q 123 560 165 506 q 81 700 81 615 q 127 851 81 785 q 257 953 174 917 q 447 990 340 990 q 629 963 546 990 q 771 881 713 935 q 799 824 799 857 q 784 782 799 800 q 750 764 769 764 q 704 782 732 764 q 584 852 640 831 q 449 874 528 874 q 282 830 342 874 q 222 708 222 786 q 275 608 222 642 q 444 546 328 574 q 642 488 567 518 q 763 406 718 458 q 808 272 808 354 q 762 124 808 189 q 631 24 715 60 q 438 -11 547 -11 m 438 1056 q 381 1079 406 1056 l 261 1197 q 243 1235 243 1215 q 256 1267 243 1254 q 289 1281 269 1281 q 326 1264 310 1281 l 438 1144 l 549 1264 q 586 1281 565 1281 q 618 1267 604 1281 q 632 1235 632 1254 q 614 1197 632 1215 l 494 1079 q 438 1056 469 1056 z "},"Ṧ":{"ha":871,"x_min":58,"x_max":808,"o":"m 438 -11 q 237 18 332 -11 q 85 99 142 47 q 58 156 58 121 q 72 198 58 181 q 106 215 86 215 q 153 197 125 215 q 435 106 276 106 q 606 147 546 106 q 665 267 665 189 q 610 358 665 328 q 432 417 554 389 q 240 474 315 442 q 123 560 165 506 q 81 700 81 615 q 127 851 81 785 q 257 953 174 917 q 447 990 340 990 q 629 963 546 990 q 771 881 713 935 q 799 824 799 857 q 784 782 799 800 q 750 764 769 764 q 704 782 732 764 q 584 852 640 831 q 449 874 528 874 q 282 830 342 874 q 222 708 222 786 q 275 608 222 642 q 444 546 328 574 q 642 488 567 518 q 763 406 718 458 q 808 272 808 354 q 762 124 808 189 q 631 24 715 60 q 438 -11 547 -11 m 438 1056 q 381 1079 406 1056 l 261 1197 q 243 1235 243 1215 q 256 1267 243 1254 q 289 1281 269 1281 q 326 1264 310 1281 l 438 1144 l 549 1264 q 586 1281 565 1281 q 618 1267 604 1281 q 632 1235 632 1254 q 614 1197 632 1215 l 494 1079 q 438 1056 469 1056 m 438 1311 q 374 1333 397 1311 q 350 1392 350 1356 q 374 1451 350 1429 q 438 1472 397 1472 q 501 1451 476 1472 q 525 1392 525 1429 q 501 1333 525 1356 q 438 1311 478 1311 z "},"Ş":{"ha":871,"x_min":58,"x_max":808,"o":"m 808 272 q 766 131 808 193 q 647 31 724 68 q 468 -10 569 -6 l 461 -61 q 496 -57 481 -57 q 569 -82 539 -57 q 599 -153 599 -107 q 554 -237 599 -204 q 428 -269 510 -269 q 332 -254 374 -269 q 307 -219 307 -244 q 319 -192 307 -203 q 350 -186 331 -181 q 428 -197 392 -197 q 483 -186 464 -197 q 503 -153 503 -175 q 492 -127 503 -136 q 463 -118 482 -118 q 425 -124 449 -118 q 396 -129 401 -129 q 376 -122 385 -129 q 368 -101 367 -114 l 379 -8 q 211 27 289 -1 q 85 99 133 56 q 58 156 58 121 q 72 198 58 181 q 106 215 86 215 q 153 197 125 215 q 435 106 276 106 q 606 147 546 106 q 665 267 665 189 q 610 358 665 328 q 432 417 554 389 q 240 474 315 442 q 123 560 165 506 q 81 700 81 615 q 127 851 81 785 q 257 953 174 917 q 447 990 340 990 q 629 963 546 990 q 771 881 713 935 q 799 824 799 857 q 784 782 799 800 q 750 764 769 764 q 704 782 732 764 q 584 852 640 831 q 449 874 528 874 q 282 830 342 874 q 222 708 222 786 q 275 608 222 642 q 444 546 328 574 q 642 488 567 518 q 763 406 718 458 q 808 272 808 354 z "},"Ŝ":{"ha":871,"x_min":58,"x_max":808,"o":"m 438 -11 q 237 18 332 -11 q 85 99 142 47 q 58 156 58 121 q 72 198 58 181 q 106 215 86 215 q 153 197 125 215 q 435 106 276 106 q 606 147 546 106 q 665 267 665 189 q 610 358 665 328 q 432 417 554 389 q 240 474 315 442 q 123 560 165 506 q 81 700 81 615 q 127 851 81 785 q 257 953 174 917 q 447 990 340 990 q 629 963 546 990 q 771 881 713 935 q 799 824 799 857 q 784 782 799 800 q 750 764 769 764 q 704 782 732 764 q 584 852 640 831 q 449 874 528 874 q 282 830 342 874 q 222 708 222 786 q 275 608 222 642 q 444 546 328 574 q 642 488 567 518 q 763 406 718 458 q 808 272 808 354 q 762 124 808 189 q 631 24 715 60 q 438 -11 547 -11 m 326 1072 q 289 1056 310 1056 q 256 1069 269 1056 q 243 1101 243 1083 q 261 1139 243 1121 l 381 1257 q 438 1281 406 1281 q 494 1257 469 1281 l 614 1139 q 632 1101 632 1121 q 618 1069 632 1083 q 585 1056 604 1056 q 549 1072 565 1056 l 438 1192 l 326 1072 z "},"Ș":{"ha":871,"x_min":58,"x_max":808,"o":"m 438 -11 q 237 18 332 -11 q 85 99 142 47 q 58 156 58 121 q 72 198 58 181 q 106 215 86 215 q 153 197 125 215 q 435 106 276 106 q 606 147 546 106 q 665 267 665 189 q 610 358 665 328 q 432 417 554 389 q 240 474 315 442 q 123 560 165 506 q 81 700 81 615 q 127 851 81 785 q 257 953 174 917 q 447 990 340 990 q 629 963 546 990 q 771 881 713 935 q 799 824 799 857 q 784 782 799 800 q 750 764 769 764 q 704 782 732 764 q 584 852 640 831 q 449 874 528 874 q 282 830 342 874 q 222 708 222 786 q 275 608 222 642 q 444 546 328 574 q 642 488 567 518 q 763 406 718 458 q 808 272 808 354 q 762 124 808 189 q 631 24 715 60 q 438 -11 547 -11 m 436 -90 q 502 -116 478 -90 q 526 -193 526 -142 q 469 -343 526 -279 q 429 -362 451 -362 q 403 -354 414 -362 q 393 -333 393 -346 q 403 -308 393 -322 q 439 -232 435 -269 l 436 -232 q 382 -214 404 -232 q 360 -164 360 -196 q 381 -110 360 -131 q 436 -90 403 -90 z "},"Ṡ":{"ha":871,"x_min":58,"x_max":808,"o":"m 438 -11 q 237 18 332 -11 q 85 99 142 47 q 58 156 58 121 q 72 198 58 181 q 106 215 86 215 q 153 197 125 215 q 435 106 276 106 q 606 147 546 106 q 665 267 665 189 q 610 358 665 328 q 432 417 554 389 q 240 474 315 442 q 123 560 165 506 q 81 700 81 615 q 127 851 81 785 q 257 953 174 917 q 447 990 340 990 q 629 963 546 990 q 771 881 713 935 q 799 824 799 857 q 784 782 799 800 q 750 764 769 764 q 704 782 732 764 q 584 852 640 831 q 449 874 528 874 q 282 830 342 874 q 222 708 222 786 q 275 608 222 642 q 444 546 328 574 q 642 488 567 518 q 763 406 718 458 q 808 272 808 354 q 762 124 808 189 q 631 24 715 60 q 438 -11 547 -11 m 438 1089 q 374 1111 397 1089 q 350 1169 350 1133 q 374 1228 350 1207 q 438 1250 397 1250 q 501 1228 476 1250 q 525 1169 525 1207 q 501 1111 525 1133 q 438 1089 478 1089 z "},"Ṣ":{"ha":871,"x_min":58,"x_max":808,"o":"m 438 -11 q 237 18 332 -11 q 85 99 142 47 q 58 156 58 121 q 72 198 58 181 q 106 215 86 215 q 153 197 125 215 q 435 106 276 106 q 606 147 546 106 q 665 267 665 189 q 610 358 665 328 q 432 417 554 389 q 240 474 315 442 q 123 560 165 506 q 81 700 81 615 q 127 851 81 785 q 257 953 174 917 q 447 990 340 990 q 629 963 546 990 q 771 881 713 935 q 799 824 799 857 q 784 782 799 800 q 750 764 769 764 q 704 782 732 764 q 584 852 640 831 q 449 874 528 874 q 282 830 342 874 q 222 708 222 786 q 275 608 222 642 q 444 546 328 574 q 642 488 567 518 q 763 406 718 458 q 808 272 808 354 q 762 124 808 189 q 631 24 715 60 q 438 -11 547 -11 m 438 -267 q 379 -245 401 -267 q 357 -189 357 -224 q 379 -133 357 -154 q 438 -112 401 -112 q 495 -134 472 -112 q 518 -189 518 -156 q 496 -245 518 -224 q 438 -267 474 -267 z "},"Ṩ":{"ha":871,"x_min":58,"x_max":808,"o":"m 438 -11 q 237 18 332 -11 q 85 99 142 47 q 58 156 58 121 q 72 198 58 181 q 106 215 86 215 q 153 197 125 215 q 435 106 276 106 q 606 147 546 106 q 665 267 665 189 q 610 358 665 328 q 432 417 554 389 q 240 474 315 442 q 123 560 165 506 q 81 700 81 615 q 127 851 81 785 q 257 953 174 917 q 447 990 340 990 q 629 963 546 990 q 771 881 713 935 q 799 824 799 857 q 784 782 799 800 q 750 764 769 764 q 704 782 732 764 q 584 852 640 831 q 449 874 528 874 q 282 830 342 874 q 222 708 222 786 q 275 608 222 642 q 444 546 328 574 q 642 488 567 518 q 763 406 718 458 q 808 272 808 354 q 762 124 808 189 q 631 24 715 60 q 438 -11 547 -11 m 438 -267 q 379 -245 401 -267 q 357 -189 357 -224 q 379 -133 357 -154 q 438 -112 401 -112 q 495 -134 472 -112 q 518 -189 518 -156 q 496 -245 518 -224 q 438 -267 474 -267 m 438 1089 q 374 1111 397 1089 q 350 1169 350 1133 q 374 1228 350 1207 q 438 1250 397 1250 q 501 1228 476 1250 q 525 1169 525 1207 q 501 1111 525 1133 q 438 1089 478 1089 z "},"ẞ":{"ha":965,"x_min":114,"x_max":892,"o":"m 688 511 q 838 428 785 490 q 892 271 892 365 q 853 126 892 189 q 745 28 814 63 q 588 -7 676 -7 q 375 51 456 -7 q 340 85 350 69 q 329 119 329 100 q 342 159 329 143 q 374 175 354 175 q 425 154 392 175 q 501 117 465 129 q 578 104 538 104 q 706 149 660 104 q 753 275 753 194 q 699 397 753 357 q 535 438 646 438 l 417 438 q 372 455 388 438 q 356 497 356 472 q 372 538 356 521 q 417 556 388 556 l 497 556 q 637 597 588 556 q 686 714 686 638 q 635 829 686 788 q 493 871 583 871 q 315 810 374 871 q 256 625 256 749 l 256 64 q 236 11 256 31 q 185 -8 217 -8 q 133 11 153 -8 q 114 64 114 31 l 114 628 q 212 897 114 804 q 496 989 310 989 q 735 917 646 989 q 824 722 824 844 q 788 593 824 649 q 688 511 751 538 z "},"Ə":{"ha":1040,"x_min":81,"x_max":960,"o":"m 489 990 q 740 930 633 990 q 903 757 846 869 q 960 490 960 644 q 906 226 960 340 q 753 51 853 113 q 522 -11 654 -11 q 288 48 388 -11 q 134 219 188 107 q 81 482 81 331 q 99 535 81 517 q 150 554 117 554 l 814 554 q 715 791 800 710 q 483 872 629 872 q 353 852 413 872 q 221 782 293 832 q 196 768 206 772 q 174 764 186 764 q 141 781 154 764 q 128 824 128 799 q 154 879 128 858 q 302 962 215 933 q 489 990 389 990 m 522 106 q 730 191 654 106 q 815 438 806 276 l 226 438 q 313 192 236 278 q 522 106 390 106 z "},"T":{"ha":840,"x_min":3,"x_max":836,"o":"m 419 -7 q 367 13 388 -7 q 347 65 347 33 l 347 860 l 69 860 q 3 919 3 860 q 20 964 3 949 q 69 979 38 979 l 769 979 q 819 964 801 979 q 836 919 836 949 q 769 860 836 860 l 492 860 l 492 65 q 472 13 492 33 q 419 -7 453 -7 z "},"Ŧ":{"ha":840,"x_min":3,"x_max":836,"o":"m 769 979 q 819 964 801 979 q 836 919 836 949 q 769 860 836 860 l 492 860 l 492 553 l 638 553 q 683 538 667 553 q 700 496 700 522 q 683 455 700 469 q 638 440 667 440 l 492 440 l 492 65 q 472 13 492 33 q 419 -7 453 -7 q 367 13 388 -7 q 347 65 347 33 l 347 440 l 204 440 q 156 455 174 440 q 139 496 139 469 q 156 538 139 522 q 204 553 174 553 l 347 553 l 347 860 l 69 860 q 3 919 3 860 q 20 964 3 949 q 69 979 38 979 l 769 979 z "},"Ť":{"ha":840,"x_min":3,"x_max":836,"o":"m 419 -7 q 367 13 388 -7 q 347 65 347 33 l 347 860 l 69 860 q 3 919 3 860 q 20 964 3 949 q 69 979 38 979 l 769 979 q 819 964 801 979 q 836 919 836 949 q 769 860 836 860 l 492 860 l 492 65 q 472 13 492 33 q 419 -7 453 -7 m 419 1056 q 363 1079 388 1056 l 243 1197 q 225 1235 225 1215 q 238 1267 225 1254 q 271 1281 251 1281 q 308 1264 292 1281 l 419 1144 l 531 1264 q 568 1281 547 1281 q 600 1267 586 1281 q 614 1235 614 1254 q 596 1197 614 1215 l 476 1079 q 419 1056 451 1056 z "},"Ţ":{"ha":840,"x_min":3,"x_max":836,"o":"m 769 979 q 819 964 801 979 q 836 919 836 949 q 769 860 836 860 l 492 860 l 492 65 q 450 -1 492 17 l 443 -61 q 478 -57 463 -57 q 551 -82 521 -57 q 581 -153 581 -107 q 536 -237 581 -204 q 410 -269 492 -269 q 314 -254 356 -269 q 289 -219 289 -244 q 301 -192 289 -203 q 332 -186 313 -181 q 410 -197 374 -197 q 465 -186 446 -197 q 485 -153 485 -175 q 474 -127 485 -136 q 444 -118 464 -118 q 407 -124 431 -118 q 378 -129 383 -129 q 358 -122 367 -129 q 350 -101 349 -114 l 364 17 q 347 65 347 36 l 347 860 l 69 860 q 3 919 3 860 q 20 964 3 949 q 69 979 38 979 l 769 979 z "},"Ț":{"ha":840,"x_min":3,"x_max":836,"o":"m 419 -7 q 367 13 388 -7 q 347 65 347 33 l 347 860 l 69 860 q 3 919 3 860 q 20 964 3 949 q 69 979 38 979 l 769 979 q 819 964 801 979 q 836 919 836 949 q 769 860 836 860 l 492 860 l 492 65 q 472 13 492 33 q 419 -7 453 -7 m 418 -90 q 484 -116 460 -90 q 508 -193 508 -142 q 451 -343 508 -279 q 411 -362 433 -362 q 385 -354 396 -362 q 375 -333 375 -346 q 385 -308 375 -322 q 421 -232 417 -269 l 418 -232 q 364 -214 386 -232 q 342 -164 342 -196 q 363 -110 342 -131 q 418 -90 385 -90 z "},"Ṭ":{"ha":840,"x_min":3,"x_max":836,"o":"m 419 -7 q 367 13 388 -7 q 347 65 347 33 l 347 860 l 69 860 q 3 919 3 860 q 20 964 3 949 q 69 979 38 979 l 769 979 q 819 964 801 979 q 836 919 836 949 q 769 860 836 860 l 492 860 l 492 65 q 472 13 492 33 q 419 -7 453 -7 m 419 -267 q 361 -245 383 -267 q 339 -189 339 -224 q 361 -133 339 -154 q 419 -112 383 -112 q 477 -134 454 -112 q 500 -189 500 -156 q 478 -245 500 -224 q 419 -267 456 -267 z "},"Ṯ":{"ha":840,"x_min":3,"x_max":836,"o":"m 419 -7 q 367 13 388 -7 q 347 65 347 33 l 347 860 l 69 860 q 3 919 3 860 q 20 964 3 949 q 69 979 38 979 l 769 979 q 819 964 801 979 q 836 919 836 949 q 769 860 836 860 l 492 860 l 492 65 q 472 13 492 33 q 419 -7 453 -7 m 251 -236 q 211 -224 226 -236 q 196 -190 196 -212 q 211 -156 196 -168 q 251 -143 226 -143 l 588 -143 q 628 -156 613 -143 q 643 -190 643 -168 q 628 -224 643 -212 q 588 -236 613 -236 l 251 -236 z "},"U":{"ha":1011,"x_min":107,"x_max":904,"o":"m 506 -11 q 208 90 310 -11 q 107 389 107 192 l 107 914 q 126 967 107 947 q 178 986 146 986 q 229 967 210 986 q 249 914 249 947 l 249 379 q 313 175 249 244 q 506 106 378 106 q 697 175 632 106 q 763 379 763 244 l 763 914 q 782 966 763 946 q 833 986 801 986 q 885 967 865 986 q 904 914 904 947 l 904 389 q 802 91 904 193 q 506 -11 700 -11 z "},"Ú":{"ha":1011,"x_min":107,"x_max":904,"o":"m 506 -11 q 208 90 310 -11 q 107 389 107 192 l 107 914 q 126 967 107 947 q 178 986 146 986 q 229 967 210 986 q 249 914 249 947 l 249 379 q 313 175 249 244 q 506 106 378 106 q 697 175 632 106 q 763 379 763 244 l 763 914 q 782 966 763 946 q 833 986 801 986 q 885 967 865 986 q 904 914 904 947 l 904 389 q 802 91 904 193 q 506 -11 700 -11 m 526 1061 q 506 1056 517 1056 q 480 1065 490 1056 q 469 1089 469 1075 q 482 1115 469 1103 l 614 1256 q 668 1282 640 1282 q 708 1265 692 1282 q 725 1225 725 1249 q 686 1168 725 1192 l 526 1061 z "},"Ŭ":{"ha":1011,"x_min":107,"x_max":904,"o":"m 506 -11 q 208 90 310 -11 q 107 389 107 192 l 107 914 q 126 967 107 947 q 178 986 146 986 q 229 967 210 986 q 249 914 249 947 l 249 379 q 313 175 249 244 q 506 106 378 106 q 697 175 632 106 q 763 379 763 244 l 763 914 q 782 966 763 946 q 833 986 801 986 q 885 967 865 986 q 904 914 904 947 l 904 389 q 802 91 904 193 q 506 -11 700 -11 m 506 1078 q 374 1108 431 1078 q 288 1193 317 1138 q 279 1221 279 1208 q 292 1249 279 1238 q 321 1261 304 1261 q 367 1238 347 1261 q 506 1171 415 1171 q 644 1238 596 1171 q 689 1261 664 1261 q 719 1249 706 1261 q 732 1221 732 1238 q 724 1193 732 1208 q 638 1108 696 1139 q 506 1078 581 1078 z "},"Û":{"ha":1011,"x_min":107,"x_max":904,"o":"m 506 -11 q 208 90 310 -11 q 107 389 107 192 l 107 914 q 126 967 107 947 q 178 986 146 986 q 229 967 210 986 q 249 914 249 947 l 249 379 q 313 175 249 244 q 506 106 378 106 q 697 175 632 106 q 763 379 763 244 l 763 914 q 782 966 763 946 q 833 986 801 986 q 885 967 865 986 q 904 914 904 947 l 904 389 q 802 91 904 193 q 506 -11 700 -11 m 394 1072 q 357 1056 378 1056 q 324 1069 338 1056 q 311 1101 311 1083 q 329 1139 311 1121 l 449 1257 q 506 1281 474 1281 q 563 1257 538 1281 l 682 1139 q 700 1101 700 1121 q 686 1069 700 1083 q 653 1056 672 1056 q 617 1072 633 1056 l 506 1192 l 394 1072 z "},"Ȕ":{"ha":1011,"x_min":107,"x_max":904,"o":"m 506 -11 q 208 90 310 -11 q 107 389 107 192 l 107 914 q 126 967 107 947 q 178 986 146 986 q 229 967 210 986 q 249 914 249 947 l 249 379 q 313 175 249 244 q 506 106 378 106 q 697 175 632 106 q 763 379 763 244 l 763 914 q 782 966 763 946 q 833 986 801 986 q 885 967 865 986 q 904 914 904 947 l 904 389 q 802 91 904 193 q 506 -11 700 -11 m 292 1188 q 274 1229 274 1207 q 290 1266 274 1250 q 328 1282 307 1282 q 378 1244 363 1282 l 446 1104 q 450 1086 450 1094 q 441 1064 450 1072 q 419 1056 432 1056 q 392 1069 404 1056 l 292 1188 m 467 1188 q 449 1229 449 1207 q 465 1266 449 1250 q 501 1282 481 1282 q 553 1244 535 1282 l 621 1104 q 625 1088 625 1096 q 616 1065 625 1074 q 594 1056 607 1056 q 565 1069 578 1056 l 467 1188 z "},"Ü":{"ha":1011,"x_min":107,"x_max":904,"o":"m 506 -11 q 208 90 310 -11 q 107 389 107 192 l 107 914 q 126 967 107 947 q 178 986 146 986 q 229 967 210 986 q 249 914 249 947 l 249 379 q 313 175 249 244 q 506 106 378 106 q 697 175 632 106 q 763 379 763 244 l 763 914 q 782 966 763 946 q 833 986 801 986 q 885 967 865 986 q 904 914 904 947 l 904 389 q 802 91 904 193 q 506 -11 700 -11 m 383 1094 q 326 1115 349 1094 q 304 1169 304 1136 q 326 1225 304 1204 q 383 1246 349 1246 q 440 1224 417 1246 q 463 1169 463 1203 q 440 1115 463 1136 q 383 1094 418 1094 m 628 1094 q 572 1115 594 1094 q 550 1169 550 1136 q 572 1224 550 1203 q 628 1246 594 1246 q 685 1225 663 1246 q 707 1169 707 1204 q 685 1115 707 1136 q 628 1094 663 1094 z "},"Ụ":{"ha":1011,"x_min":107,"x_max":904,"o":"m 506 -11 q 208 90 310 -11 q 107 389 107 192 l 107 914 q 126 967 107 947 q 178 986 146 986 q 229 967 210 986 q 249 914 249 947 l 249 379 q 313 175 249 244 q 506 106 378 106 q 697 175 632 106 q 763 379 763 244 l 763 914 q 782 966 763 946 q 833 986 801 986 q 885 967 865 986 q 904 914 904 947 l 904 389 q 802 91 904 193 q 506 -11 700 -11 m 506 -267 q 447 -245 469 -267 q 425 -189 425 -224 q 447 -133 425 -154 q 506 -112 469 -112 q 563 -134 540 -112 q 586 -189 586 -156 q 564 -245 586 -224 q 506 -267 542 -267 z "},"Ù":{"ha":1011,"x_min":107,"x_max":904,"o":"m 506 -11 q 208 90 310 -11 q 107 389 107 192 l 107 914 q 126 967 107 947 q 178 986 146 986 q 229 967 210 986 q 249 914 249 947 l 249 379 q 313 175 249 244 q 506 106 378 106 q 697 175 632 106 q 763 379 763 244 l 763 914 q 782 966 763 946 q 833 986 801 986 q 885 967 865 986 q 904 914 904 947 l 904 389 q 802 91 904 193 q 506 -11 700 -11 m 325 1168 q 286 1225 286 1192 q 303 1265 286 1249 q 343 1282 319 1282 q 397 1256 371 1282 l 529 1115 q 542 1089 542 1103 q 531 1065 542 1075 q 506 1056 521 1056 q 485 1061 494 1056 l 325 1168 z "},"Ủ":{"ha":1011,"x_min":107,"x_max":904,"o":"m 506 -11 q 208 90 310 -11 q 107 389 107 192 l 107 914 q 126 967 107 947 q 178 986 146 986 q 229 967 210 986 q 249 914 249 947 l 249 379 q 313 175 249 244 q 506 106 378 106 q 697 175 632 106 q 763 379 763 244 l 763 914 q 782 966 763 946 q 833 986 801 986 q 885 967 865 986 q 904 914 904 947 l 904 389 q 802 91 904 193 q 506 -11 700 -11 m 549 1082 q 536 1063 547 1069 q 510 1056 525 1056 q 480 1065 493 1056 q 467 1093 467 1075 q 481 1130 467 1117 q 524 1156 496 1143 q 550 1171 543 1165 q 557 1185 557 1176 q 543 1203 557 1196 q 504 1210 529 1210 q 433 1199 474 1210 q 403 1206 415 1194 q 390 1232 390 1217 q 397 1251 390 1242 q 414 1264 403 1260 q 513 1281 454 1281 q 618 1256 579 1281 q 657 1193 657 1232 q 641 1149 657 1164 q 594 1121 625 1135 q 561 1102 571 1110 q 549 1082 551 1094 z "},"Ư":{"ha":1011,"x_min":107,"x_max":1065,"o":"m 1065 1101 q 1022 970 1065 1025 q 904 906 978 915 l 904 389 q 802 91 904 193 q 506 -11 700 -11 q 208 90 310 -11 q 107 389 107 192 l 107 914 q 126 967 107 947 q 178 986 146 986 q 229 967 210 986 q 249 914 249 947 l 249 379 q 313 175 249 244 q 506 106 378 106 q 697 175 632 106 q 763 379 763 244 l 763 914 q 781 966 763 946 q 829 986 800 986 q 909 1013 885 988 q 938 1103 933 1038 q 1006 1175 943 1175 q 1065 1101 1065 1175 z "},"Ứ":{"ha":1011,"x_min":107,"x_max":1065,"o":"m 1065 1101 q 1022 970 1065 1025 q 904 906 978 915 l 904 389 q 802 91 904 193 q 506 -11 700 -11 q 208 90 310 -11 q 107 389 107 192 l 107 914 q 126 967 107 947 q 178 986 146 986 q 229 967 210 986 q 249 914 249 947 l 249 379 q 313 175 249 244 q 506 106 378 106 q 697 175 632 106 q 763 379 763 244 l 763 914 q 781 966 763 946 q 829 986 800 986 q 909 1013 885 988 q 938 1103 933 1038 q 1006 1175 943 1175 q 1065 1101 1065 1175 m 526 1061 q 506 1056 517 1056 q 480 1065 490 1056 q 469 1089 469 1075 q 482 1115 469 1103 l 614 1256 q 668 1282 640 1282 q 708 1265 692 1282 q 725 1225 725 1249 q 686 1168 725 1192 l 526 1061 z "},"Ự":{"ha":1011,"x_min":107,"x_max":1065,"o":"m 1065 1101 q 1022 970 1065 1025 q 904 906 978 915 l 904 389 q 802 91 904 193 q 506 -11 700 -11 q 208 90 310 -11 q 107 389 107 192 l 107 914 q 126 967 107 947 q 178 986 146 986 q 229 967 210 986 q 249 914 249 947 l 249 379 q 313 175 249 244 q 506 106 378 106 q 697 175 632 106 q 763 379 763 244 l 763 914 q 781 966 763 946 q 829 986 800 986 q 909 1013 885 988 q 938 1103 933 1038 q 1006 1175 943 1175 q 1065 1101 1065 1175 m 506 -267 q 447 -245 469 -267 q 425 -189 425 -224 q 447 -133 425 -154 q 506 -112 469 -112 q 563 -134 540 -112 q 586 -189 586 -156 q 564 -245 586 -224 q 506 -267 542 -267 z "},"Ừ":{"ha":1011,"x_min":107,"x_max":1065,"o":"m 1065 1101 q 1022 970 1065 1025 q 904 906 978 915 l 904 389 q 802 91 904 193 q 506 -11 700 -11 q 208 90 310 -11 q 107 389 107 192 l 107 914 q 126 967 107 947 q 178 986 146 986 q 229 967 210 986 q 249 914 249 947 l 249 379 q 313 175 249 244 q 506 106 378 106 q 697 175 632 106 q 763 379 763 244 l 763 914 q 781 966 763 946 q 829 986 800 986 q 909 1013 885 988 q 938 1103 933 1038 q 1006 1175 943 1175 q 1065 1101 1065 1175 m 325 1168 q 286 1225 286 1192 q 303 1265 286 1249 q 343 1282 319 1282 q 397 1256 371 1282 l 529 1115 q 542 1089 542 1103 q 531 1065 542 1075 q 506 1056 521 1056 q 485 1061 494 1056 l 325 1168 z "},"Ử":{"ha":1011,"x_min":107,"x_max":1065,"o":"m 1065 1101 q 1022 970 1065 1025 q 904 906 978 915 l 904 389 q 802 91 904 193 q 506 -11 700 -11 q 208 90 310 -11 q 107 389 107 192 l 107 914 q 126 967 107 947 q 178 986 146 986 q 229 967 210 986 q 249 914 249 947 l 249 379 q 313 175 249 244 q 506 106 378 106 q 697 175 632 106 q 763 379 763 244 l 763 914 q 781 966 763 946 q 829 986 800 986 q 909 1013 885 988 q 938 1103 933 1038 q 1006 1175 943 1175 q 1065 1101 1065 1175 m 549 1082 q 536 1063 547 1069 q 510 1056 525 1056 q 480 1065 493 1056 q 467 1093 467 1075 q 481 1130 467 1117 q 524 1156 496 1143 q 550 1171 543 1165 q 557 1185 557 1176 q 543 1203 557 1196 q 504 1210 529 1210 q 433 1199 474 1210 q 403 1206 415 1194 q 390 1232 390 1217 q 397 1251 390 1242 q 414 1264 403 1260 q 513 1281 454 1281 q 618 1256 579 1281 q 657 1193 657 1232 q 641 1149 657 1164 q 594 1121 625 1135 q 561 1102 571 1110 q 549 1082 551 1094 z "},"Ữ":{"ha":1011,"x_min":107,"x_max":1065,"o":"m 1065 1101 q 1022 970 1065 1025 q 904 906 978 915 l 904 389 q 802 91 904 193 q 506 -11 700 -11 q 208 90 310 -11 q 107 389 107 192 l 107 914 q 126 967 107 947 q 178 986 146 986 q 229 967 210 986 q 249 914 249 947 l 249 379 q 313 175 249 244 q 506 106 378 106 q 697 175 632 106 q 763 379 763 244 l 763 914 q 781 966 763 946 q 829 986 800 986 q 909 1013 885 988 q 938 1103 933 1038 q 1006 1175 943 1175 q 1065 1101 1065 1175 m 606 1094 q 556 1102 582 1094 q 496 1124 531 1110 q 407 1147 436 1147 q 374 1139 386 1147 q 350 1115 361 1131 q 341 1106 347 1113 q 328 1097 335 1100 q 315 1093 322 1093 q 290 1104 300 1093 q 281 1132 281 1115 q 297 1184 281 1157 q 341 1229 313 1211 q 406 1247 369 1247 q 455 1240 429 1247 q 515 1218 481 1232 q 604 1194 575 1194 q 638 1203 625 1194 q 661 1225 650 1211 q 679 1242 672 1238 q 696 1247 686 1247 q 721 1237 711 1247 q 731 1210 731 1226 q 715 1158 731 1185 q 670 1113 699 1131 q 606 1094 642 1094 z "},"Ű":{"ha":1011,"x_min":107,"x_max":904,"o":"m 506 -11 q 208 90 310 -11 q 107 389 107 192 l 107 914 q 126 967 107 947 q 178 986 146 986 q 229 967 210 986 q 249 914 249 947 l 249 379 q 313 175 249 244 q 506 106 378 106 q 697 175 632 106 q 763 379 763 244 l 763 914 q 782 966 763 946 q 833 986 801 986 q 885 967 865 986 q 904 914 904 947 l 904 389 q 802 91 904 193 q 506 -11 700 -11 m 446 1069 q 417 1056 433 1056 q 395 1065 404 1056 q 386 1088 386 1074 q 390 1104 386 1096 l 458 1244 q 508 1282 476 1282 q 546 1266 529 1282 q 563 1229 563 1250 q 544 1188 563 1207 l 446 1069 m 619 1069 q 592 1056 607 1056 q 570 1065 579 1056 q 561 1088 561 1074 q 565 1104 561 1096 l 633 1244 q 683 1282 651 1282 q 721 1266 704 1282 q 738 1229 738 1250 q 719 1188 738 1207 l 619 1069 z "},"Ȗ":{"ha":1011,"x_min":107,"x_max":904,"o":"m 506 -11 q 208 90 310 -11 q 107 389 107 192 l 107 914 q 126 967 107 947 q 178 986 146 986 q 229 967 210 986 q 249 914 249 947 l 249 379 q 313 175 249 244 q 506 106 378 106 q 697 175 632 106 q 763 379 763 244 l 763 914 q 782 966 763 946 q 833 986 801 986 q 885 967 865 986 q 904 914 904 947 l 904 389 q 802 91 904 193 q 506 -11 700 -11 m 367 1100 q 322 1076 347 1076 q 292 1088 306 1076 q 279 1118 279 1100 q 288 1146 279 1132 q 373 1231 315 1200 q 506 1261 431 1261 q 637 1231 579 1261 q 724 1146 694 1201 q 732 1117 732 1129 q 719 1088 732 1100 q 690 1076 707 1076 q 644 1100 664 1076 q 506 1167 596 1167 q 367 1100 415 1167 z "},"Ū":{"ha":1011,"x_min":107,"x_max":904,"o":"m 506 -11 q 208 90 310 -11 q 107 389 107 192 l 107 914 q 126 967 107 947 q 178 986 146 986 q 229 967 210 986 q 249 914 249 947 l 249 379 q 313 175 249 244 q 506 106 378 106 q 697 175 632 106 q 763 379 763 244 l 763 914 q 782 966 763 946 q 833 986 801 986 q 885 967 865 986 q 904 914 904 947 l 904 389 q 802 91 904 193 q 506 -11 700 -11 m 338 1121 q 297 1134 313 1121 q 282 1169 282 1147 q 297 1206 282 1193 q 338 1218 313 1218 l 674 1218 q 714 1206 699 1218 q 729 1169 729 1193 q 714 1134 729 1147 q 674 1121 699 1121 l 338 1121 z "},"Ṻ":{"ha":1011,"x_min":107,"x_max":904,"o":"m 506 -11 q 208 90 310 -11 q 107 389 107 192 l 107 914 q 126 967 107 947 q 178 986 146 986 q 229 967 210 986 q 249 914 249 947 l 249 379 q 313 175 249 244 q 506 106 378 106 q 697 175 632 106 q 763 379 763 244 l 763 914 q 782 966 763 946 q 833 986 801 986 q 885 967 865 986 q 904 914 904 947 l 904 389 q 802 91 904 193 q 506 -11 700 -11 m 338 1121 q 297 1134 313 1121 q 282 1169 282 1147 q 297 1206 282 1193 q 338 1218 313 1218 l 674 1218 q 714 1206 699 1218 q 729 1169 729 1193 q 714 1134 729 1147 q 674 1121 699 1121 l 338 1121 m 383 1317 q 326 1338 349 1317 q 304 1392 304 1358 q 326 1447 304 1426 q 383 1468 349 1468 q 440 1447 417 1468 q 463 1392 463 1425 q 440 1338 463 1358 q 383 1317 418 1317 m 628 1317 q 572 1338 594 1317 q 550 1392 550 1358 q 572 1447 550 1425 q 628 1468 594 1468 q 685 1447 663 1468 q 707 1392 707 1426 q 685 1338 707 1358 q 628 1317 663 1317 z "},"Ų":{"ha":1011,"x_min":107,"x_max":904,"o":"m 833 986 q 885 967 865 986 q 904 914 904 947 l 904 389 q 842 140 904 236 q 661 10 781 44 q 554 -103 554 -24 q 577 -164 554 -142 q 639 -186 600 -186 q 706 -171 668 -186 q 721 -168 711 -168 q 743 -178 735 -168 q 751 -204 751 -189 q 729 -242 751 -229 q 621 -269 678 -269 q 501 -228 547 -269 q 454 -122 454 -187 q 503 -11 454 -56 q 208 92 308 -10 q 107 389 107 193 l 107 914 q 126 967 107 947 q 178 986 146 986 q 229 967 210 986 q 249 914 249 947 l 249 379 q 313 175 249 244 q 506 106 378 106 q 697 175 632 106 q 763 379 763 244 l 763 914 q 782 966 763 946 q 833 986 801 986 z "},"Ů":{"ha":1011,"x_min":107,"x_max":904,"o":"m 506 -11 q 208 90 310 -11 q 107 389 107 192 l 107 914 q 126 967 107 947 q 178 986 146 986 q 229 967 210 986 q 249 914 249 947 l 249 379 q 313 175 249 244 q 506 106 378 106 q 697 175 632 106 q 763 379 763 244 l 763 914 q 782 966 763 946 q 833 986 801 986 q 885 967 865 986 q 904 914 904 947 l 904 389 q 802 91 904 193 q 506 -11 700 -11 m 506 1056 q 403 1097 446 1056 q 361 1197 361 1138 q 403 1297 361 1256 q 506 1338 446 1338 q 608 1297 565 1338 q 650 1197 650 1256 q 608 1097 650 1138 q 506 1056 565 1056 m 506 1129 q 552 1149 533 1129 q 571 1197 571 1168 q 552 1244 571 1225 q 506 1264 533 1264 q 459 1244 478 1264 q 440 1197 440 1225 q 459 1149 440 1168 q 506 1129 478 1129 z "},"Ũ":{"ha":1011,"x_min":107,"x_max":904,"o":"m 506 -11 q 208 90 310 -11 q 107 389 107 192 l 107 914 q 126 967 107 947 q 178 986 146 986 q 229 967 210 986 q 249 914 249 947 l 249 379 q 313 175 249 244 q 506 106 378 106 q 697 175 632 106 q 763 379 763 244 l 763 914 q 782 966 763 946 q 833 986 801 986 q 885 967 865 986 q 904 914 904 947 l 904 389 q 802 91 904 193 q 506 -11 700 -11 m 606 1094 q 556 1102 582 1094 q 496 1124 531 1110 q 407 1147 436 1147 q 374 1139 386 1147 q 350 1115 361 1131 q 341 1106 347 1113 q 328 1097 335 1100 q 315 1093 322 1093 q 290 1104 300 1093 q 281 1132 281 1115 q 297 1184 281 1157 q 341 1229 313 1211 q 406 1247 369 1247 q 455 1240 429 1247 q 515 1218 481 1232 q 604 1194 575 1194 q 638 1203 625 1194 q 661 1225 650 1211 q 679 1242 672 1238 q 696 1247 686 1247 q 721 1237 711 1247 q 731 1210 731 1226 q 715 1158 731 1185 q 670 1113 699 1131 q 606 1094 642 1094 z "},"Ṹ":{"ha":1011,"x_min":107,"x_max":904,"o":"m 506 -11 q 208 90 310 -11 q 107 389 107 192 l 107 914 q 126 967 107 947 q 178 986 146 986 q 229 967 210 986 q 249 914 249 947 l 249 379 q 313 175 249 244 q 506 106 378 106 q 697 175 632 106 q 763 379 763 244 l 763 914 q 782 966 763 946 q 833 986 801 986 q 885 967 865 986 q 904 914 904 947 l 904 389 q 802 91 904 193 q 506 -11 700 -11 m 606 1094 q 556 1102 582 1094 q 496 1124 531 1110 q 407 1147 436 1147 q 374 1139 386 1147 q 350 1115 361 1131 q 341 1106 347 1113 q 328 1097 335 1100 q 315 1093 322 1093 q 290 1104 300 1093 q 281 1132 281 1115 q 297 1184 281 1157 q 341 1229 313 1211 q 406 1247 369 1247 q 455 1240 429 1247 q 515 1218 481 1232 q 604 1194 575 1194 q 638 1203 625 1194 q 661 1225 650 1211 q 679 1242 672 1238 q 696 1247 686 1247 q 721 1237 711 1247 q 731 1210 731 1226 q 715 1158 731 1185 q 670 1113 699 1131 q 606 1094 642 1094 m 526 1283 q 506 1278 517 1278 q 480 1288 490 1278 q 469 1311 469 1297 q 482 1338 469 1325 l 614 1478 q 668 1504 640 1504 q 708 1488 692 1504 q 725 1447 725 1471 q 686 1390 725 1414 l 526 1283 z "},"V":{"ha":974,"x_min":14,"x_max":961,"o":"m 829 949 q 889 988 847 988 q 939 969 917 988 q 961 924 961 950 q 954 897 961 914 l 563 39 q 532 4 553 17 q 488 -8 511 -8 q 442 4 464 -8 q 411 39 421 17 l 21 897 q 14 924 14 914 q 37 969 14 951 q 88 988 60 988 q 149 949 131 988 l 489 186 l 829 949 z "},"W":{"ha":1535,"x_min":50,"x_max":1485,"o":"m 1356 943 q 1381 976 1364 965 q 1418 988 1397 988 q 1465 970 1444 988 q 1485 925 1485 953 q 1479 897 1485 910 l 1172 39 q 1142 3 1163 15 q 1096 -10 1121 -10 q 1051 3 1072 -10 q 1022 39 1031 15 l 769 756 l 511 39 q 482 3 503 15 q 438 -10 461 -10 q 392 3 413 -10 q 363 39 372 15 l 56 897 q 50 925 50 910 q 71 970 50 953 q 121 988 92 988 q 159 976 142 988 q 185 943 176 965 l 442 204 l 703 936 q 730 972 711 960 q 771 985 749 985 q 811 972 793 985 q 839 935 829 958 l 1094 197 l 1356 943 z "},"Ẃ":{"ha":1535,"x_min":50,"x_max":1485,"o":"m 1356 943 q 1381 976 1364 965 q 1418 988 1397 988 q 1465 970 1444 988 q 1485 925 1485 953 q 1479 897 1485 910 l 1172 39 q 1142 3 1163 15 q 1096 -10 1121 -10 q 1051 3 1072 -10 q 1022 39 1031 15 l 769 756 l 511 39 q 482 3 503 15 q 438 -10 461 -10 q 392 3 413 -10 q 363 39 372 15 l 56 897 q 50 925 50 910 q 71 970 50 953 q 121 988 92 988 q 159 976 142 988 q 185 943 176 965 l 442 204 l 703 936 q 730 972 711 960 q 771 985 749 985 q 811 972 793 985 q 839 935 829 958 l 1094 197 l 1356 943 m 788 1061 q 767 1056 778 1056 q 741 1065 751 1056 q 731 1089 731 1075 q 743 1115 731 1103 l 875 1256 q 929 1282 901 1282 q 969 1265 953 1282 q 986 1225 986 1249 q 947 1168 986 1192 l 788 1061 z "},"Ŵ":{"ha":1535,"x_min":50,"x_max":1485,"o":"m 1356 943 q 1381 976 1364 965 q 1418 988 1397 988 q 1465 970 1444 988 q 1485 925 1485 953 q 1479 897 1485 910 l 1172 39 q 1142 3 1163 15 q 1096 -10 1121 -10 q 1051 3 1072 -10 q 1022 39 1031 15 l 769 756 l 511 39 q 482 3 503 15 q 438 -10 461 -10 q 392 3 413 -10 q 363 39 372 15 l 56 897 q 50 925 50 910 q 71 970 50 953 q 121 988 92 988 q 159 976 142 988 q 185 943 176 965 l 442 204 l 703 936 q 730 972 711 960 q 771 985 749 985 q 811 972 793 985 q 839 935 829 958 l 1094 197 l 1356 943 m 656 1072 q 618 1056 639 1056 q 585 1069 599 1056 q 572 1101 572 1083 q 590 1139 572 1121 l 710 1257 q 767 1281 735 1281 q 824 1257 799 1281 l 943 1139 q 961 1101 961 1121 q 947 1069 961 1083 q 914 1056 933 1056 q 878 1072 894 1056 l 767 1192 l 656 1072 z "},"Ẅ":{"ha":1535,"x_min":50,"x_max":1485,"o":"m 1356 943 q 1381 976 1364 965 q 1418 988 1397 988 q 1465 970 1444 988 q 1485 925 1485 953 q 1479 897 1485 910 l 1172 39 q 1142 3 1163 15 q 1096 -10 1121 -10 q 1051 3 1072 -10 q 1022 39 1031 15 l 769 756 l 511 39 q 482 3 503 15 q 438 -10 461 -10 q 392 3 413 -10 q 363 39 372 15 l 56 897 q 50 925 50 910 q 71 970 50 953 q 121 988 92 988 q 159 976 142 988 q 185 943 176 965 l 442 204 l 703 936 q 730 972 711 960 q 771 985 749 985 q 811 972 793 985 q 839 935 829 958 l 1094 197 l 1356 943 m 644 1094 q 588 1115 610 1094 q 565 1169 565 1136 q 588 1225 565 1204 q 644 1246 610 1246 q 701 1224 678 1246 q 724 1169 724 1203 q 701 1115 724 1136 q 644 1094 679 1094 m 889 1094 q 833 1115 856 1094 q 811 1169 811 1136 q 833 1224 811 1203 q 889 1246 856 1246 q 946 1225 924 1246 q 968 1169 968 1204 q 946 1115 968 1136 q 889 1094 924 1094 z "},"Ẁ":{"ha":1535,"x_min":50,"x_max":1485,"o":"m 1356 943 q 1381 976 1364 965 q 1418 988 1397 988 q 1465 970 1444 988 q 1485 925 1485 953 q 1479 897 1485 910 l 1172 39 q 1142 3 1163 15 q 1096 -10 1121 -10 q 1051 3 1072 -10 q 1022 39 1031 15 l 769 756 l 511 39 q 482 3 503 15 q 438 -10 461 -10 q 392 3 413 -10 q 363 39 372 15 l 56 897 q 50 925 50 910 q 71 970 50 953 q 121 988 92 988 q 159 976 142 988 q 185 943 176 965 l 442 204 l 703 936 q 730 972 711 960 q 771 985 749 985 q 811 972 793 985 q 839 935 829 958 l 1094 197 l 1356 943 m 586 1168 q 547 1225 547 1192 q 564 1265 547 1249 q 604 1282 581 1282 q 658 1256 632 1282 l 790 1115 q 803 1089 803 1103 q 792 1065 803 1075 q 767 1056 782 1056 q 746 1061 756 1056 l 586 1168 z "},"X":{"ha":908,"x_min":35,"x_max":874,"o":"m 856 103 q 874 60 874 83 q 853 13 874 33 q 806 -7 832 -7 q 756 18 776 -7 l 454 397 l 151 18 q 103 -7 131 -7 q 56 13 76 -7 q 35 60 35 33 q 51 103 35 82 l 371 499 l 67 876 q 50 919 50 894 q 70 966 50 946 q 117 986 90 986 q 167 961 146 986 l 454 599 l 742 961 q 792 986 761 986 q 839 966 818 986 q 860 919 860 946 q 842 876 860 896 l 538 499 l 856 103 z "},"Y":{"ha":849,"x_min":8,"x_max":840,"o":"m 726 961 q 775 986 746 986 q 820 966 800 986 q 840 919 840 946 q 824 876 840 894 l 496 468 l 496 65 q 476 12 496 31 q 424 -7 456 -7 q 372 12 392 -7 q 353 65 353 31 l 353 468 l 25 876 q 8 921 8 894 q 28 967 8 947 q 74 986 47 986 q 122 961 101 986 l 425 581 l 726 961 z "},"Ý":{"ha":849,"x_min":8,"x_max":840,"o":"m 726 961 q 775 986 746 986 q 820 966 800 986 q 840 919 840 946 q 824 876 840 894 l 496 468 l 496 65 q 476 12 496 31 q 424 -7 456 -7 q 372 12 392 -7 q 353 65 353 31 l 353 468 l 25 876 q 8 921 8 894 q 28 967 8 947 q 74 986 47 986 q 122 961 101 986 l 425 581 l 726 961 m 444 1061 q 424 1056 435 1056 q 398 1065 408 1056 q 388 1089 388 1075 q 400 1115 388 1103 l 532 1256 q 586 1282 558 1282 q 626 1265 610 1282 q 643 1225 643 1249 q 604 1168 643 1192 l 444 1061 z "},"Ŷ":{"ha":849,"x_min":8,"x_max":840,"o":"m 726 961 q 775 986 746 986 q 820 966 800 986 q 840 919 840 946 q 824 876 840 894 l 496 468 l 496 65 q 476 12 496 31 q 424 -7 456 -7 q 372 12 392 -7 q 353 65 353 31 l 353 468 l 25 876 q 8 921 8 894 q 28 967 8 947 q 74 986 47 986 q 122 961 101 986 l 425 581 l 726 961 m 313 1072 q 275 1056 296 1056 q 242 1069 256 1056 q 229 1101 229 1083 q 247 1139 229 1121 l 367 1257 q 424 1281 392 1281 q 481 1257 456 1281 l 600 1139 q 618 1101 618 1121 q 604 1069 618 1083 q 571 1056 590 1056 q 535 1072 551 1056 l 424 1192 l 313 1072 z "},"Ÿ":{"ha":849,"x_min":8,"x_max":840,"o":"m 726 961 q 775 986 746 986 q 820 966 800 986 q 840 919 840 946 q 824 876 840 894 l 496 468 l 496 65 q 476 12 496 31 q 424 -7 456 -7 q 372 12 392 -7 q 353 65 353 31 l 353 468 l 25 876 q 8 921 8 894 q 28 967 8 947 q 74 986 47 986 q 122 961 101 986 l 425 581 l 726 961 m 301 1094 q 244 1115 267 1094 q 222 1169 222 1136 q 244 1225 222 1204 q 301 1246 267 1246 q 358 1224 335 1246 q 381 1169 381 1203 q 358 1115 381 1136 q 301 1094 336 1094 m 546 1094 q 490 1115 513 1094 q 468 1169 468 1136 q 490 1224 468 1203 q 546 1246 513 1246 q 603 1225 581 1246 q 625 1169 625 1204 q 603 1115 625 1136 q 546 1094 581 1094 z "},"Ẏ":{"ha":849,"x_min":8,"x_max":840,"o":"m 726 961 q 775 986 746 986 q 820 966 800 986 q 840 919 840 946 q 824 876 840 894 l 496 468 l 496 65 q 476 12 496 31 q 424 -7 456 -7 q 372 12 392 -7 q 353 65 353 31 l 353 468 l 25 876 q 8 921 8 894 q 28 967 8 947 q 74 986 47 986 q 122 961 101 986 l 425 581 l 726 961 m 424 1089 q 360 1111 383 1089 q 336 1169 336 1133 q 360 1228 336 1207 q 424 1250 383 1250 q 487 1228 463 1250 q 511 1169 511 1207 q 488 1111 511 1133 q 424 1089 464 1089 z "},"Ỵ":{"ha":849,"x_min":8,"x_max":840,"o":"m 726 961 q 775 986 746 986 q 820 966 800 986 q 840 919 840 946 q 824 876 840 894 l 496 468 l 496 65 q 476 12 496 31 q 424 -7 456 -7 q 372 12 392 -7 q 353 65 353 31 l 353 468 l 25 876 q 8 921 8 894 q 28 967 8 947 q 74 986 47 986 q 122 961 101 986 l 425 581 l 726 961 m 424 -267 q 365 -245 388 -267 q 343 -189 343 -224 q 365 -133 343 -154 q 424 -112 388 -112 q 481 -134 458 -112 q 504 -189 504 -156 q 482 -245 504 -224 q 424 -267 460 -267 z "},"Ỳ":{"ha":849,"x_min":8,"x_max":840,"o":"m 726 961 q 775 986 746 986 q 820 966 800 986 q 840 919 840 946 q 824 876 840 894 l 496 468 l 496 65 q 476 12 496 31 q 424 -7 456 -7 q 372 12 392 -7 q 353 65 353 31 l 353 468 l 25 876 q 8 921 8 894 q 28 967 8 947 q 74 986 47 986 q 122 961 101 986 l 425 581 l 726 961 m 243 1168 q 204 1225 204 1192 q 221 1265 204 1249 q 261 1282 238 1282 q 315 1256 289 1282 l 447 1115 q 460 1089 460 1103 q 449 1065 460 1075 q 424 1056 439 1056 q 403 1061 413 1056 l 243 1168 z "},"Ỷ":{"ha":849,"x_min":8,"x_max":840,"o":"m 726 961 q 775 986 746 986 q 820 966 800 986 q 840 919 840 946 q 824 876 840 894 l 496 468 l 496 65 q 476 12 496 31 q 424 -7 456 -7 q 372 12 392 -7 q 353 65 353 31 l 353 468 l 25 876 q 8 921 8 894 q 28 967 8 947 q 74 986 47 986 q 122 961 101 986 l 425 581 l 726 961 m 467 1082 q 454 1063 465 1069 q 428 1056 443 1056 q 398 1065 411 1056 q 385 1093 385 1075 q 399 1130 385 1117 q 442 1156 414 1143 q 468 1171 461 1165 q 475 1185 475 1176 q 461 1203 475 1196 q 422 1210 447 1210 q 351 1199 392 1210 q 321 1206 333 1194 q 308 1232 308 1217 q 315 1251 308 1242 q 332 1264 321 1260 q 431 1281 372 1281 q 536 1256 497 1281 q 575 1193 575 1232 q 559 1149 575 1164 q 513 1121 543 1135 q 479 1102 489 1110 q 467 1082 469 1094 z "},"Ȳ":{"ha":849,"x_min":8,"x_max":840,"o":"m 726 961 q 775 986 746 986 q 820 966 800 986 q 840 919 840 946 q 824 876 840 894 l 496 468 l 496 65 q 476 12 496 31 q 424 -7 456 -7 q 372 12 392 -7 q 353 65 353 31 l 353 468 l 25 876 q 8 921 8 894 q 28 967 8 947 q 74 986 47 986 q 122 961 101 986 l 425 581 l 726 961 m 256 1121 q 215 1134 231 1121 q 200 1169 200 1147 q 215 1206 200 1193 q 256 1218 231 1218 l 592 1218 q 632 1206 617 1218 q 647 1169 647 1193 q 632 1134 647 1147 q 592 1121 617 1121 l 256 1121 z "},"Ỹ":{"ha":849,"x_min":8,"x_max":840,"o":"m 726 961 q 775 986 746 986 q 820 966 800 986 q 840 919 840 946 q 824 876 840 894 l 496 468 l 496 65 q 476 12 496 31 q 424 -7 456 -7 q 372 12 392 -7 q 353 65 353 31 l 353 468 l 25 876 q 8 921 8 894 q 28 967 8 947 q 74 986 47 986 q 122 961 101 986 l 425 581 l 726 961 m 524 1094 q 474 1102 500 1094 q 414 1124 449 1110 q 325 1147 354 1147 q 292 1139 304 1147 q 268 1115 279 1131 q 259 1106 265 1113 q 247 1097 253 1100 q 233 1093 240 1093 q 208 1104 218 1093 q 199 1132 199 1115 q 215 1184 199 1157 q 259 1229 231 1211 q 324 1247 288 1247 q 373 1240 347 1247 q 433 1218 399 1232 q 522 1194 493 1194 q 556 1203 543 1194 q 579 1225 568 1211 q 597 1242 590 1238 q 614 1247 604 1247 q 639 1237 629 1247 q 649 1210 649 1226 q 633 1158 649 1185 q 588 1113 617 1131 q 524 1094 560 1094 z "},"Z":{"ha":826,"x_min":51,"x_max":790,"o":"m 724 117 q 790 58 790 117 q 724 0 790 0 l 115 0 q 69 17 86 0 q 51 60 51 33 q 69 114 51 88 l 599 863 l 119 863 q 53 921 53 863 q 119 979 53 979 l 710 979 q 758 962 740 979 q 775 918 775 944 q 757 867 775 890 l 226 117 l 724 117 z "},"Ź":{"ha":826,"x_min":51,"x_max":790,"o":"m 724 117 q 790 58 790 117 q 724 0 790 0 l 115 0 q 69 17 86 0 q 51 60 51 33 q 69 114 51 88 l 599 863 l 119 863 q 53 921 53 863 q 119 979 53 979 l 710 979 q 758 962 740 979 q 775 918 775 944 q 757 867 775 890 l 226 117 l 724 117 m 435 1061 q 414 1056 425 1056 q 388 1065 399 1056 q 378 1089 378 1075 q 390 1115 378 1103 l 522 1256 q 576 1282 549 1282 q 617 1265 600 1282 q 633 1225 633 1249 q 594 1168 633 1192 l 435 1061 z "},"Ž":{"ha":826,"x_min":51,"x_max":790,"o":"m 724 117 q 790 58 790 117 q 724 0 790 0 l 115 0 q 69 17 86 0 q 51 60 51 33 q 69 114 51 88 l 599 863 l 119 863 q 53 921 53 863 q 119 979 53 979 l 710 979 q 758 962 740 979 q 775 918 775 944 q 757 867 775 890 l 226 117 l 724 117 m 414 1056 q 357 1079 382 1056 l 238 1197 q 219 1235 219 1215 q 233 1267 219 1254 q 265 1281 246 1281 q 303 1264 286 1281 l 414 1144 l 525 1264 q 563 1281 542 1281 q 594 1267 581 1281 q 608 1235 608 1254 q 590 1197 608 1215 l 471 1079 q 414 1056 446 1056 z "},"Ż":{"ha":826,"x_min":51,"x_max":790,"o":"m 724 117 q 790 58 790 117 q 724 0 790 0 l 115 0 q 69 17 86 0 q 51 60 51 33 q 69 114 51 88 l 599 863 l 119 863 q 53 921 53 863 q 119 979 53 979 l 710 979 q 758 962 740 979 q 775 918 775 944 q 757 867 775 890 l 226 117 l 724 117 m 414 1089 q 350 1111 374 1089 q 326 1169 326 1133 q 350 1228 326 1207 q 414 1250 374 1250 q 477 1228 453 1250 q 501 1169 501 1207 q 478 1111 501 1133 q 414 1089 454 1089 z "},"Ẓ":{"ha":826,"x_min":51,"x_max":790,"o":"m 724 117 q 790 58 790 117 q 724 0 790 0 l 115 0 q 69 17 86 0 q 51 60 51 33 q 69 114 51 88 l 599 863 l 119 863 q 53 921 53 863 q 119 979 53 979 l 710 979 q 758 962 740 979 q 775 918 775 944 q 757 867 775 890 l 226 117 l 724 117 m 417 -267 q 358 -245 381 -267 q 336 -189 336 -224 q 358 -133 336 -154 q 417 -112 381 -112 q 474 -134 451 -112 q 497 -189 497 -156 q 475 -245 497 -224 q 417 -267 453 -267 z "},"a":{"ha":743,"x_min":74,"x_max":649,"o":"m 382 694 q 583 626 517 694 q 649 419 649 558 l 649 60 q 631 10 649 28 q 581 -7 613 -7 q 532 11 550 -7 q 514 60 514 29 l 514 111 q 435 22 488 53 q 314 -10 383 -10 q 192 17 247 -10 q 105 93 136 44 q 74 201 74 142 q 112 317 74 275 q 238 378 150 360 q 481 396 326 396 l 513 396 l 513 436 q 481 549 513 514 q 378 583 449 583 q 286 571 329 583 q 192 535 243 558 q 139 514 154 514 q 105 529 118 514 q 92 568 92 544 q 103 605 92 589 q 142 636 115 621 q 256 678 190 663 q 382 694 321 694 m 339 94 q 464 147 415 94 q 513 281 513 199 l 513 317 l 488 317 q 321 307 379 317 q 238 274 263 297 q 213 208 213 251 q 249 126 213 158 q 339 94 285 94 z "},"á":{"ha":743,"x_min":74,"x_max":649,"o":"m 382 694 q 583 626 517 694 q 649 419 649 558 l 649 60 q 631 10 649 28 q 581 -7 613 -7 q 532 11 550 -7 q 514 60 514 29 l 514 111 q 435 22 488 53 q 314 -10 383 -10 q 192 17 247 -10 q 105 93 136 44 q 74 201 74 142 q 112 317 74 275 q 238 378 150 360 q 481 396 326 396 l 513 396 l 513 436 q 481 549 513 514 q 378 583 449 583 q 286 571 329 583 q 192 535 243 558 q 139 514 154 514 q 105 529 118 514 q 92 568 92 544 q 103 605 92 589 q 142 636 115 621 q 256 678 190 663 q 382 694 321 694 m 339 94 q 464 147 415 94 q 513 281 513 199 l 513 317 l 488 317 q 321 307 379 317 q 238 274 263 297 q 213 208 213 251 q 249 126 213 158 q 339 94 285 94 m 411 769 q 385 760 400 760 q 358 771 369 760 q 346 797 346 782 q 356 822 346 811 l 506 1018 q 569 1056 533 1056 q 614 1038 596 1056 q 632 994 632 1019 q 599 935 632 963 l 411 769 z "},"ă":{"ha":743,"x_min":74,"x_max":649,"o":"m 382 694 q 583 626 517 694 q 649 419 649 558 l 649 60 q 631 10 649 28 q 581 -7 613 -7 q 532 11 550 -7 q 514 60 514 29 l 514 111 q 435 22 488 53 q 314 -10 383 -10 q 192 17 247 -10 q 105 93 136 44 q 74 201 74 142 q 112 317 74 275 q 238 378 150 360 q 481 396 326 396 l 513 396 l 513 436 q 481 549 513 514 q 378 583 449 583 q 286 571 329 583 q 192 535 243 558 q 139 514 154 514 q 105 529 118 514 q 92 568 92 544 q 103 605 92 589 q 142 636 115 621 q 256 678 190 663 q 382 694 321 694 m 339 94 q 464 147 415 94 q 513 281 513 199 l 513 317 l 488 317 q 321 307 379 317 q 238 274 263 297 q 213 208 213 251 q 249 126 213 158 q 339 94 285 94 m 382 803 q 247 842 307 803 q 160 947 186 881 q 156 969 156 960 q 169 1002 156 989 q 201 1015 183 1015 q 246 986 231 1015 q 382 901 290 901 q 518 986 474 901 q 564 1015 533 1015 q 595 1003 582 1015 q 608 969 608 990 q 604 947 608 960 q 517 842 578 881 q 382 803 457 803 z "},"ắ":{"ha":743,"x_min":74,"x_max":649,"o":"m 382 694 q 583 626 517 694 q 649 419 649 558 l 649 60 q 631 10 649 28 q 581 -7 613 -7 q 532 11 550 -7 q 514 60 514 29 l 514 111 q 435 22 488 53 q 314 -10 383 -10 q 192 17 247 -10 q 105 93 136 44 q 74 201 74 142 q 112 317 74 275 q 238 378 150 360 q 481 396 326 396 l 513 396 l 513 436 q 481 549 513 514 q 378 583 449 583 q 286 571 329 583 q 192 535 243 558 q 139 514 154 514 q 105 529 118 514 q 92 568 92 544 q 103 605 92 589 q 142 636 115 621 q 256 678 190 663 q 382 694 321 694 m 339 94 q 464 147 415 94 q 513 281 513 199 l 513 317 l 488 317 q 321 307 379 317 q 238 274 263 297 q 213 208 213 251 q 249 126 213 158 q 339 94 285 94 m 399 910 q 379 904 389 904 q 356 913 365 904 q 347 935 347 922 q 363 965 347 951 l 486 1090 q 538 1114 511 1114 q 573 1099 558 1114 q 588 1064 588 1085 q 551 1008 588 1029 l 399 910 m 382 760 q 251 790 308 760 q 164 875 193 819 q 156 904 156 892 q 166 931 156 921 q 193 942 176 942 q 236 919 215 942 q 382 846 290 846 q 528 919 474 846 q 571 942 546 942 q 597 931 586 942 q 608 904 608 921 q 600 875 608 892 q 515 790 572 821 q 382 760 457 760 z "},"ặ":{"ha":743,"x_min":74,"x_max":649,"o":"m 382 694 q 583 626 517 694 q 649 419 649 558 l 649 60 q 631 10 649 28 q 581 -7 613 -7 q 532 11 550 -7 q 514 60 514 29 l 514 111 q 435 22 488 53 q 314 -10 383 -10 q 192 17 247 -10 q 105 93 136 44 q 74 201 74 142 q 112 317 74 275 q 238 378 150 360 q 481 396 326 396 l 513 396 l 513 436 q 481 549 513 514 q 378 583 449 583 q 286 571 329 583 q 192 535 243 558 q 139 514 154 514 q 105 529 118 514 q 92 568 92 544 q 103 605 92 589 q 142 636 115 621 q 256 678 190 663 q 382 694 321 694 m 339 94 q 464 147 415 94 q 513 281 513 199 l 513 317 l 488 317 q 321 307 379 317 q 238 274 263 297 q 213 208 213 251 q 249 126 213 158 q 339 94 285 94 m 378 -267 q 319 -245 342 -267 q 297 -189 297 -224 q 319 -133 297 -154 q 378 -112 342 -112 q 435 -134 413 -112 q 458 -189 458 -156 q 436 -245 458 -224 q 378 -267 414 -267 m 382 803 q 247 842 307 803 q 160 947 186 881 q 156 969 156 960 q 169 1002 156 989 q 201 1015 183 1015 q 246 986 231 1015 q 382 901 290 901 q 518 986 474 901 q 564 1015 533 1015 q 595 1003 582 1015 q 608 969 608 990 q 604 947 608 960 q 517 842 578 881 q 382 803 457 803 z "},"ằ":{"ha":743,"x_min":74,"x_max":649,"o":"m 382 694 q 583 626 517 694 q 649 419 649 558 l 649 60 q 631 10 649 28 q 581 -7 613 -7 q 532 11 550 -7 q 514 60 514 29 l 514 111 q 435 22 488 53 q 314 -10 383 -10 q 192 17 247 -10 q 105 93 136 44 q 74 201 74 142 q 112 317 74 275 q 238 378 150 360 q 481 396 326 396 l 513 396 l 513 436 q 481 549 513 514 q 378 583 449 583 q 286 571 329 583 q 192 535 243 558 q 139 514 154 514 q 105 529 118 514 q 92 568 92 544 q 103 605 92 589 q 142 636 115 621 q 256 678 190 663 q 382 694 321 694 m 339 94 q 464 147 415 94 q 513 281 513 199 l 513 317 l 488 317 q 321 307 379 317 q 238 274 263 297 q 213 208 213 251 q 249 126 213 158 q 339 94 285 94 m 213 1008 q 176 1064 176 1031 q 191 1099 176 1083 q 226 1114 206 1114 q 278 1090 253 1114 l 401 965 q 417 935 417 951 q 408 913 417 922 q 385 904 399 904 q 365 910 375 904 l 213 1008 m 382 760 q 251 790 308 760 q 164 875 193 819 q 156 904 156 892 q 167 931 156 921 q 193 942 178 942 q 236 919 215 942 q 382 846 290 846 q 528 919 474 846 q 571 942 549 942 q 597 931 586 942 q 608 904 608 921 q 600 875 608 892 q 515 790 572 821 q 382 760 457 760 z "},"ẳ":{"ha":743,"x_min":74,"x_max":649,"o":"m 382 694 q 583 626 517 694 q 649 419 649 558 l 649 60 q 631 10 649 28 q 581 -7 613 -7 q 532 11 550 -7 q 514 60 514 29 l 514 111 q 435 22 488 53 q 314 -10 383 -10 q 192 17 247 -10 q 105 93 136 44 q 74 201 74 142 q 112 317 74 275 q 238 378 150 360 q 481 396 326 396 l 513 396 l 513 436 q 481 549 513 514 q 378 583 449 583 q 286 571 329 583 q 192 535 243 558 q 139 514 154 514 q 105 529 118 514 q 92 568 92 544 q 103 605 92 589 q 142 636 115 621 q 256 678 190 663 q 382 694 321 694 m 339 94 q 464 147 415 94 q 513 281 513 199 l 513 317 l 488 317 q 321 307 379 317 q 238 274 263 297 q 213 208 213 251 q 249 126 213 158 q 339 94 285 94 m 424 929 q 410 912 422 918 q 385 906 399 906 q 356 914 368 906 q 344 940 344 922 q 360 976 344 964 q 404 1000 376 988 q 436 1024 436 1013 q 422 1040 436 1035 q 381 1046 407 1046 q 310 1036 353 1046 q 278 1044 290 1035 q 267 1068 267 1054 q 290 1099 267 1090 q 389 1115 331 1115 q 494 1092 456 1115 q 533 1032 533 1068 q 517 991 533 1004 q 469 964 500 978 q 437 947 447 954 q 424 929 426 940 m 382 760 q 251 790 308 760 q 164 875 193 819 q 156 904 156 892 q 167 931 156 921 q 193 942 178 942 q 236 919 215 942 q 382 846 290 846 q 528 919 474 846 q 571 942 549 942 q 597 931 586 942 q 608 904 608 921 q 600 875 608 892 q 515 790 572 821 q 382 760 457 760 z "},"ẵ":{"ha":743,"x_min":74,"x_max":649,"o":"m 382 694 q 583 626 517 694 q 649 419 649 558 l 649 60 q 631 10 649 28 q 581 -7 613 -7 q 532 11 550 -7 q 514 60 514 29 l 514 111 q 435 22 488 53 q 314 -10 383 -10 q 192 17 247 -10 q 105 93 136 44 q 74 201 74 142 q 112 317 74 275 q 238 378 150 360 q 481 396 326 396 l 513 396 l 513 436 q 481 549 513 514 q 378 583 449 583 q 286 571 329 583 q 192 535 243 558 q 139 514 154 514 q 105 529 118 514 q 92 568 92 544 q 103 605 92 589 q 142 636 115 621 q 256 678 190 663 q 382 694 321 694 m 339 94 q 464 147 415 94 q 513 281 513 199 l 513 317 l 488 317 q 321 307 379 317 q 238 274 263 297 q 213 208 213 251 q 249 126 213 158 q 339 94 285 94 m 482 975 q 431 983 457 975 q 367 1004 406 990 q 321 1021 343 1014 q 283 1028 299 1028 q 250 1019 263 1028 q 226 996 238 1011 q 217 987 224 993 q 205 977 211 981 q 192 974 199 974 q 167 983 176 974 q 157 1008 157 993 q 173 1054 157 1029 q 217 1096 189 1079 q 282 1113 246 1113 q 333 1105 307 1113 q 397 1083 358 1097 q 443 1067 421 1074 q 481 1060 465 1060 q 514 1068 501 1060 q 538 1092 526 1076 q 547 1101 540 1094 q 559 1110 553 1107 q 572 1114 565 1114 q 597 1103 588 1114 q 607 1078 607 1093 q 591 1033 607 1057 q 547 992 575 1008 q 482 975 518 975 m 382 760 q 251 790 308 760 q 164 875 193 819 q 157 901 157 888 q 169 928 157 918 q 197 939 181 939 q 236 919 221 939 q 382 846 290 846 q 528 919 474 846 q 568 939 543 939 q 597 929 585 939 q 608 903 608 919 q 600 875 608 890 q 515 790 572 821 q 382 760 457 760 z "},"ǎ":{"ha":743,"x_min":74,"x_max":649,"o":"m 382 694 q 583 626 517 694 q 649 419 649 558 l 649 60 q 631 10 649 28 q 581 -7 613 -7 q 532 11 550 -7 q 514 60 514 29 l 514 111 q 435 22 488 53 q 314 -10 383 -10 q 192 17 247 -10 q 105 93 136 44 q 74 201 74 142 q 112 317 74 275 q 238 378 150 360 q 481 396 326 396 l 513 396 l 513 436 q 481 549 513 514 q 378 583 449 583 q 286 571 329 583 q 192 535 243 558 q 139 514 154 514 q 105 529 118 514 q 92 568 92 544 q 103 605 92 589 q 142 636 115 621 q 256 678 190 663 q 382 694 321 694 m 339 94 q 464 147 415 94 q 513 281 513 199 l 513 317 l 488 317 q 321 307 379 317 q 238 274 263 297 q 213 208 213 251 q 249 126 213 158 q 339 94 285 94 m 382 760 q 349 769 363 760 q 321 797 336 778 l 196 975 q 185 1007 185 990 q 200 1040 185 1026 q 235 1054 215 1054 q 278 1028 260 1054 l 382 861 l 486 1028 q 529 1054 504 1054 q 564 1040 549 1054 q 579 1007 579 1026 q 568 975 579 990 l 443 796 q 415 769 429 778 q 382 760 401 760 z "},"â":{"ha":743,"x_min":74,"x_max":649,"o":"m 382 694 q 583 626 517 694 q 649 419 649 558 l 649 60 q 631 10 649 28 q 581 -7 613 -7 q 532 11 550 -7 q 514 60 514 29 l 514 111 q 435 22 488 53 q 314 -10 383 -10 q 192 17 247 -10 q 105 93 136 44 q 74 201 74 142 q 112 317 74 275 q 238 378 150 360 q 481 396 326 396 l 513 396 l 513 436 q 481 549 513 514 q 378 583 449 583 q 286 571 329 583 q 192 535 243 558 q 139 514 154 514 q 105 529 118 514 q 92 568 92 544 q 103 605 92 589 q 142 636 115 621 q 256 678 190 663 q 382 694 321 694 m 339 94 q 464 147 415 94 q 513 281 513 199 l 513 317 l 488 317 q 321 307 379 317 q 238 274 263 297 q 213 208 213 251 q 249 126 213 158 q 339 94 285 94 m 276 786 q 233 761 261 761 q 199 775 214 761 q 185 808 185 789 q 196 839 185 824 l 321 1018 q 349 1045 335 1036 q 382 1054 363 1054 q 415 1046 401 1054 q 443 1018 429 1038 l 568 839 q 579 808 579 824 q 565 775 579 789 q 531 761 550 761 q 488 786 504 761 l 382 953 l 276 786 z "},"ấ":{"ha":743,"x_min":74,"x_max":725,"o":"m 382 694 q 583 626 517 694 q 649 419 649 558 l 649 60 q 631 10 649 28 q 581 -7 613 -7 q 532 11 550 -7 q 514 60 514 29 l 514 111 q 435 22 488 53 q 314 -10 383 -10 q 192 17 247 -10 q 105 93 136 44 q 74 201 74 142 q 112 317 74 275 q 238 378 150 360 q 481 396 326 396 l 513 396 l 513 436 q 481 549 513 514 q 378 583 449 583 q 286 571 329 583 q 192 535 243 558 q 139 514 154 514 q 105 529 118 514 q 92 568 92 544 q 103 605 92 589 q 142 636 115 621 q 256 678 190 663 q 382 694 321 694 m 339 94 q 464 147 415 94 q 513 281 513 199 l 513 317 l 488 317 q 321 307 379 317 q 238 274 263 297 q 213 208 213 251 q 249 126 213 158 q 339 94 285 94 m 565 911 q 544 906 556 906 q 520 915 531 906 q 510 939 510 925 q 519 964 510 953 l 615 1088 q 667 1117 639 1117 q 708 1099 690 1117 q 725 1058 725 1082 q 689 1001 725 1024 l 565 911 m 267 774 q 235 761 254 761 q 201 775 215 761 q 188 807 188 789 q 210 847 188 831 l 325 953 q 382 975 353 975 q 439 953 408 975 l 554 847 q 578 806 578 829 q 563 774 578 788 q 529 760 549 760 q 499 772 514 760 l 382 888 l 267 774 z "},"ậ":{"ha":743,"x_min":74,"x_max":649,"o":"m 382 694 q 583 626 517 694 q 649 419 649 558 l 649 60 q 631 10 649 28 q 581 -7 613 -7 q 532 11 550 -7 q 514 60 514 29 l 514 111 q 435 22 488 53 q 314 -10 383 -10 q 192 17 247 -10 q 105 93 136 44 q 74 201 74 142 q 112 317 74 275 q 238 378 150 360 q 481 396 326 396 l 513 396 l 513 436 q 481 549 513 514 q 378 583 449 583 q 286 571 329 583 q 192 535 243 558 q 139 514 154 514 q 105 529 118 514 q 92 568 92 544 q 103 605 92 589 q 142 636 115 621 q 256 678 190 663 q 382 694 321 694 m 339 94 q 464 147 415 94 q 513 281 513 199 l 513 317 l 488 317 q 321 307 379 317 q 238 274 263 297 q 213 208 213 251 q 249 126 213 158 q 339 94 285 94 m 378 -267 q 319 -245 342 -267 q 297 -189 297 -224 q 319 -133 297 -154 q 378 -112 342 -112 q 435 -134 413 -112 q 458 -189 458 -156 q 436 -245 458 -224 q 378 -267 414 -267 m 276 786 q 233 761 261 761 q 199 775 214 761 q 185 808 185 789 q 196 839 185 824 l 321 1018 q 349 1045 335 1036 q 382 1054 363 1054 q 415 1046 401 1054 q 443 1018 429 1038 l 568 839 q 579 808 579 824 q 565 775 579 789 q 531 761 550 761 q 488 786 504 761 l 382 953 l 276 786 z "},"ầ":{"ha":743,"x_min":74,"x_max":649,"o":"m 382 694 q 583 626 517 694 q 649 419 649 558 l 649 60 q 631 10 649 28 q 581 -7 613 -7 q 532 11 550 -7 q 514 60 514 29 l 514 111 q 435 22 488 53 q 314 -10 383 -10 q 192 17 247 -10 q 105 93 136 44 q 74 201 74 142 q 112 317 74 275 q 238 378 150 360 q 481 396 326 396 l 513 396 l 513 436 q 481 549 513 514 q 378 583 449 583 q 286 571 329 583 q 192 535 243 558 q 139 514 154 514 q 105 529 118 514 q 92 568 92 544 q 103 605 92 589 q 142 636 115 621 q 256 678 190 663 q 382 694 321 694 m 339 94 q 464 147 415 94 q 513 281 513 199 l 513 317 l 488 317 q 321 307 379 317 q 238 274 263 297 q 213 208 213 251 q 249 126 213 158 q 339 94 285 94 m 478 1022 q 460 1064 460 1042 q 478 1103 460 1088 q 521 1119 497 1119 q 574 1081 558 1119 l 625 954 q 628 938 628 949 q 618 915 628 924 q 594 906 608 906 q 563 919 576 906 l 478 1022 m 267 774 q 235 761 254 761 q 201 775 215 761 q 188 807 188 789 q 210 847 188 831 l 325 953 q 382 975 353 975 q 439 953 408 975 l 554 847 q 578 806 578 829 q 563 774 578 788 q 529 760 549 760 q 499 772 514 760 l 382 888 l 267 774 z "},"ẩ":{"ha":743,"x_min":74,"x_max":694,"o":"m 382 694 q 583 626 517 694 q 649 419 649 558 l 649 60 q 631 10 649 28 q 581 -7 613 -7 q 532 11 550 -7 q 514 60 514 29 l 514 111 q 435 22 488 53 q 314 -10 383 -10 q 192 17 247 -10 q 105 93 136 44 q 74 201 74 142 q 112 317 74 275 q 238 378 150 360 q 481 396 326 396 l 513 396 l 513 436 q 481 549 513 514 q 378 583 449 583 q 286 571 329 583 q 192 535 243 558 q 139 514 154 514 q 105 529 118 514 q 92 568 92 544 q 103 605 92 589 q 142 636 115 621 q 256 678 190 663 q 382 694 321 694 m 339 94 q 464 147 415 94 q 513 281 513 199 l 513 317 l 488 317 q 321 307 379 317 q 238 274 263 297 q 213 208 213 251 q 249 126 213 158 q 339 94 285 94 m 585 928 q 572 910 583 917 q 547 904 561 904 q 518 913 531 904 q 506 940 506 922 q 522 976 506 964 q 565 1000 538 988 q 597 1024 597 1013 q 542 1044 597 1044 q 471 1036 521 1044 q 440 1043 451 1033 q 428 1067 428 1053 q 451 1099 428 1089 q 550 1115 497 1115 q 656 1092 617 1115 q 694 1031 694 1068 q 678 990 694 1004 q 631 964 661 976 q 598 947 608 954 q 585 928 588 940 m 267 774 q 235 761 254 761 q 201 775 215 761 q 188 807 188 789 q 210 847 188 831 l 325 953 q 382 975 353 975 q 439 953 408 975 l 554 847 q 578 806 578 829 q 563 774 578 788 q 529 760 549 760 q 499 772 514 760 l 382 888 l 267 774 z "},"ẫ":{"ha":743,"x_min":74,"x_max":649,"o":"m 382 694 q 583 626 517 694 q 649 419 649 558 l 649 60 q 631 10 649 28 q 581 -7 613 -7 q 532 11 550 -7 q 514 60 514 29 l 514 111 q 435 22 488 53 q 314 -10 383 -10 q 192 17 247 -10 q 105 93 136 44 q 74 201 74 142 q 112 317 74 275 q 238 378 150 360 q 481 396 326 396 l 513 396 l 513 436 q 481 549 513 514 q 378 583 449 583 q 286 571 329 583 q 192 535 243 558 q 139 514 154 514 q 105 529 118 514 q 92 568 92 544 q 103 605 92 589 q 142 636 115 621 q 256 678 190 663 q 382 694 321 694 m 339 94 q 464 147 415 94 q 513 281 513 199 l 513 317 l 488 317 q 321 307 379 317 q 238 274 263 297 q 213 208 213 251 q 249 126 213 158 q 339 94 285 94 m 482 992 q 433 1000 461 992 q 376 1018 404 1008 q 283 1042 314 1042 q 250 1033 263 1042 q 226 1011 238 1025 q 208 995 215 1000 q 192 990 201 990 q 167 1000 176 990 q 157 1025 157 1010 q 173 1070 157 1046 q 217 1110 189 1094 q 282 1126 246 1126 q 327 1120 304 1126 q 370 1108 350 1114 q 397 1099 390 1101 q 432 1086 404 1096 q 481 1076 460 1076 q 514 1085 501 1076 q 538 1107 526 1093 q 556 1123 549 1118 q 572 1128 563 1128 q 597 1118 588 1128 q 607 1093 607 1108 q 591 1048 607 1072 q 547 1008 575 1024 q 482 992 518 992 m 267 774 q 235 761 254 761 q 201 775 215 761 q 188 807 188 789 q 210 847 188 831 l 325 953 q 382 975 353 975 q 439 953 408 975 l 554 847 q 578 806 578 829 q 563 774 578 788 q 529 760 549 760 q 499 772 514 760 l 382 888 l 267 774 z "},"ȁ":{"ha":743,"x_min":74,"x_max":649,"o":"m 382 694 q 583 626 517 694 q 649 419 649 558 l 649 60 q 631 10 649 28 q 581 -7 613 -7 q 532 11 550 -7 q 514 60 514 29 l 514 111 q 435 22 488 53 q 314 -10 383 -10 q 192 17 247 -10 q 105 93 136 44 q 74 201 74 142 q 112 317 74 275 q 238 378 150 360 q 481 396 326 396 l 513 396 l 513 436 q 481 549 513 514 q 378 583 449 583 q 286 571 329 583 q 192 535 243 558 q 139 514 154 514 q 105 529 118 514 q 92 568 92 544 q 103 605 92 589 q 142 636 115 621 q 256 678 190 663 q 382 694 321 694 m 339 94 q 464 147 415 94 q 513 281 513 199 l 513 317 l 488 317 q 321 307 379 317 q 238 274 263 297 q 213 208 213 251 q 249 126 213 158 q 339 94 285 94 m 167 968 q 157 1006 157 988 q 173 1043 157 1029 q 210 1057 189 1057 q 247 1043 231 1057 q 271 1001 264 1029 l 325 800 q 319 770 329 782 q 294 758 310 758 q 264 778 274 758 l 167 968 m 342 968 q 332 1006 332 988 q 348 1043 332 1029 q 385 1057 364 1057 q 422 1043 406 1057 q 446 1001 439 1029 l 500 800 q 494 770 504 782 q 469 758 485 758 q 439 778 449 758 l 342 968 z "},"ä":{"ha":743,"x_min":74,"x_max":649,"o":"m 382 694 q 583 626 517 694 q 649 419 649 558 l 649 60 q 631 10 649 28 q 581 -7 613 -7 q 532 11 550 -7 q 514 60 514 29 l 514 111 q 435 22 488 53 q 314 -10 383 -10 q 192 17 247 -10 q 105 93 136 44 q 74 201 74 142 q 112 317 74 275 q 238 378 150 360 q 481 396 326 396 l 513 396 l 513 436 q 481 549 513 514 q 378 583 449 583 q 286 571 329 583 q 192 535 243 558 q 139 514 154 514 q 105 529 118 514 q 92 568 92 544 q 103 605 92 589 q 142 636 115 621 q 256 678 190 663 q 382 694 321 694 m 339 94 q 464 147 415 94 q 513 281 513 199 l 513 317 l 488 317 q 321 307 379 317 q 238 274 263 297 q 213 208 213 251 q 249 126 213 158 q 339 94 285 94 m 260 832 q 203 853 225 832 q 181 908 181 874 q 203 963 181 942 q 260 983 225 983 q 316 963 293 983 q 339 908 339 942 q 317 853 339 874 q 260 832 294 832 m 504 832 q 449 853 471 832 q 426 908 426 875 q 449 963 426 942 q 504 983 471 983 q 561 963 539 983 q 583 908 583 942 q 561 853 583 874 q 504 832 539 832 z "},"ȧ":{"ha":743,"x_min":74,"x_max":649,"o":"m 382 694 q 583 626 517 694 q 649 419 649 558 l 649 60 q 631 10 649 28 q 581 -7 613 -7 q 532 11 550 -7 q 514 60 514 29 l 514 111 q 435 22 488 53 q 314 -10 383 -10 q 192 17 247 -10 q 105 93 136 44 q 74 201 74 142 q 112 317 74 275 q 238 378 150 360 q 481 396 326 396 l 513 396 l 513 436 q 481 549 513 514 q 378 583 449 583 q 286 571 329 583 q 192 535 243 558 q 139 514 154 514 q 105 529 118 514 q 92 568 92 544 q 103 605 92 589 q 142 636 115 621 q 256 678 190 663 q 382 694 321 694 m 339 94 q 464 147 415 94 q 513 281 513 199 l 513 317 l 488 317 q 321 307 379 317 q 238 274 263 297 q 213 208 213 251 q 249 126 213 158 q 339 94 285 94 m 382 828 q 318 850 342 828 q 294 908 294 872 q 318 966 294 944 q 382 988 342 988 q 445 966 421 988 q 469 908 469 944 q 446 850 469 872 q 382 828 422 828 z "},"ạ":{"ha":743,"x_min":74,"x_max":649,"o":"m 382 694 q 583 626 517 694 q 649 419 649 558 l 649 60 q 631 10 649 28 q 581 -7 613 -7 q 532 11 550 -7 q 514 60 514 29 l 514 111 q 435 22 488 53 q 314 -10 383 -10 q 192 17 247 -10 q 105 93 136 44 q 74 201 74 142 q 112 317 74 275 q 238 378 150 360 q 481 396 326 396 l 513 396 l 513 436 q 481 549 513 514 q 378 583 449 583 q 286 571 329 583 q 192 535 243 558 q 139 514 154 514 q 105 529 118 514 q 92 568 92 544 q 103 605 92 589 q 142 636 115 621 q 256 678 190 663 q 382 694 321 694 m 339 94 q 464 147 415 94 q 513 281 513 199 l 513 317 l 488 317 q 321 307 379 317 q 238 274 263 297 q 213 208 213 251 q 249 126 213 158 q 339 94 285 94 m 378 -267 q 319 -245 342 -267 q 297 -189 297 -224 q 319 -133 297 -154 q 378 -112 342 -112 q 435 -134 413 -112 q 458 -189 458 -156 q 436 -245 458 -224 q 378 -267 414 -267 z "},"à":{"ha":743,"x_min":74,"x_max":649,"o":"m 382 694 q 583 626 517 694 q 649 419 649 558 l 649 60 q 631 10 649 28 q 581 -7 613 -7 q 532 11 550 -7 q 514 60 514 29 l 514 111 q 435 22 488 53 q 314 -10 383 -10 q 192 17 247 -10 q 105 93 136 44 q 74 201 74 142 q 112 317 74 275 q 238 378 150 360 q 481 396 326 396 l 513 396 l 513 436 q 481 549 513 514 q 378 583 449 583 q 286 571 329 583 q 192 535 243 558 q 139 514 154 514 q 105 529 118 514 q 92 568 92 544 q 103 605 92 589 q 142 636 115 621 q 256 678 190 663 q 382 694 321 694 m 339 94 q 464 147 415 94 q 513 281 513 199 l 513 317 l 488 317 q 321 307 379 317 q 238 274 263 297 q 213 208 213 251 q 249 126 213 158 q 339 94 285 94 m 165 935 q 132 994 132 963 q 150 1037 132 1019 q 194 1054 168 1054 q 258 1018 232 1054 l 408 822 q 418 797 418 811 q 406 771 418 782 q 379 760 394 760 q 353 769 364 760 l 165 935 z "},"ả":{"ha":743,"x_min":74,"x_max":649,"o":"m 382 694 q 583 626 517 694 q 649 419 649 558 l 649 60 q 631 10 649 28 q 581 -7 613 -7 q 532 11 550 -7 q 514 60 514 29 l 514 111 q 435 22 488 53 q 314 -10 383 -10 q 192 17 247 -10 q 105 93 136 44 q 74 201 74 142 q 112 317 74 275 q 238 378 150 360 q 481 396 326 396 l 513 396 l 513 436 q 481 549 513 514 q 378 583 449 583 q 286 571 329 583 q 192 535 243 558 q 139 514 154 514 q 105 529 118 514 q 92 568 92 544 q 103 605 92 589 q 142 636 115 621 q 256 678 190 663 q 382 694 321 694 m 339 94 q 464 147 415 94 q 513 281 513 199 l 513 317 l 488 317 q 321 307 379 317 q 238 274 263 297 q 213 208 213 251 q 249 126 213 158 q 339 94 285 94 m 425 797 q 411 769 424 779 q 383 760 399 760 q 355 772 367 760 q 343 804 343 783 q 357 852 343 832 q 396 894 371 872 q 421 921 413 910 q 429 944 429 932 q 415 969 429 960 q 376 978 401 978 q 310 965 347 978 q 278 971 290 960 q 267 999 267 982 q 274 1019 267 1010 q 293 1035 281 1029 q 386 1053 335 1053 q 494 1025 456 1053 q 533 956 533 997 q 519 906 533 925 q 475 861 504 886 q 440 830 451 843 q 425 797 428 817 z "},"ȃ":{"ha":743,"x_min":74,"x_max":649,"o":"m 382 694 q 583 626 517 694 q 649 419 649 558 l 649 60 q 631 10 649 28 q 581 -7 613 -7 q 532 11 550 -7 q 514 60 514 29 l 514 111 q 435 22 488 53 q 314 -10 383 -10 q 192 17 247 -10 q 105 93 136 44 q 74 201 74 142 q 112 317 74 275 q 238 378 150 360 q 481 396 326 396 l 513 396 l 513 436 q 481 549 513 514 q 378 583 449 583 q 286 571 329 583 q 192 535 243 558 q 139 514 154 514 q 105 529 118 514 q 92 568 92 544 q 103 605 92 589 q 142 636 115 621 q 256 678 190 663 q 382 694 321 694 m 339 94 q 464 147 415 94 q 513 281 513 199 l 513 317 l 488 317 q 321 307 379 317 q 238 274 263 297 q 213 208 213 251 q 249 126 213 158 q 339 94 285 94 m 246 835 q 200 806 231 806 q 169 818 182 806 q 156 850 156 831 q 160 872 156 860 q 246 979 185 940 q 382 1018 307 1018 q 517 979 457 1018 q 604 872 578 940 q 608 850 608 860 q 595 818 608 831 q 564 806 582 806 q 518 835 533 806 q 382 919 474 919 q 246 835 290 919 z "},"ā":{"ha":743,"x_min":74,"x_max":649,"o":"m 382 694 q 583 626 517 694 q 649 419 649 558 l 649 60 q 631 10 649 28 q 581 -7 613 -7 q 532 11 550 -7 q 514 60 514 29 l 514 111 q 435 22 488 53 q 314 -10 383 -10 q 192 17 247 -10 q 105 93 136 44 q 74 201 74 142 q 112 317 74 275 q 238 378 150 360 q 481 396 326 396 l 513 396 l 513 436 q 481 549 513 514 q 378 583 449 583 q 286 571 329 583 q 192 535 243 558 q 139 514 154 514 q 105 529 118 514 q 92 568 92 544 q 103 605 92 589 q 142 636 115 621 q 256 678 190 663 q 382 694 321 694 m 339 94 q 464 147 415 94 q 513 281 513 199 l 513 317 l 488 317 q 321 307 379 317 q 238 274 263 297 q 213 208 213 251 q 249 126 213 158 q 339 94 285 94 m 214 858 q 174 872 189 858 q 158 907 158 885 q 174 943 158 931 q 214 956 189 956 l 550 956 q 590 943 575 956 q 606 907 606 931 q 590 872 606 885 q 550 858 575 858 l 214 858 z "},"ą":{"ha":743,"x_min":74,"x_max":714,"o":"m 668 -171 q 682 -168 674 -168 q 705 -179 696 -168 q 714 -204 714 -190 q 692 -242 714 -229 q 582 -269 639 -269 q 462 -228 508 -269 q 415 -119 415 -186 q 442 -31 415 -71 q 518 33 469 8 q 514 60 514 46 l 514 111 q 436 22 488 53 q 315 -10 385 -10 q 192 17 247 -10 q 106 93 138 44 q 74 201 74 142 q 113 317 74 275 q 239 377 151 358 q 481 396 326 396 l 513 396 l 513 436 q 481 549 513 514 q 378 583 449 583 q 286 571 329 583 q 192 535 243 558 q 162 520 175 526 q 139 514 149 514 q 105 529 118 514 q 92 568 92 544 q 103 605 92 589 q 142 636 115 621 q 256 678 190 663 q 382 694 321 694 q 583 626 517 694 q 649 419 649 558 l 649 60 q 638 22 649 38 q 610 0 628 6 q 517 -103 517 -29 q 540 -164 517 -142 q 601 -186 563 -186 q 668 -171 622 -186 m 339 94 q 464 147 415 94 q 513 281 513 199 l 513 317 l 488 317 q 321 307 379 317 q 238 274 263 297 q 213 208 213 251 q 249 126 213 158 q 339 94 285 94 z "},"å":{"ha":743,"x_min":74,"x_max":649,"o":"m 382 694 q 583 626 517 694 q 649 419 649 558 l 649 60 q 631 10 649 28 q 581 -7 613 -7 q 532 11 550 -7 q 514 60 514 29 l 514 111 q 435 22 488 53 q 314 -10 383 -10 q 192 17 247 -10 q 105 93 136 44 q 74 201 74 142 q 112 317 74 275 q 238 378 150 360 q 481 396 326 396 l 513 396 l 513 436 q 481 549 513 514 q 378 583 449 583 q 286 571 329 583 q 192 535 243 558 q 139 514 154 514 q 105 529 118 514 q 92 568 92 544 q 103 605 92 589 q 142 636 115 621 q 256 678 190 663 q 382 694 321 694 m 339 94 q 464 147 415 94 q 513 281 513 199 l 513 317 l 488 317 q 321 307 379 317 q 238 274 263 297 q 213 208 213 251 q 249 126 213 158 q 339 94 285 94 m 382 768 q 280 809 322 768 q 238 908 238 850 q 280 1009 238 968 q 382 1050 322 1050 q 484 1009 442 1050 q 526 908 526 968 q 484 809 526 850 q 382 768 442 768 m 382 840 q 428 860 410 840 q 447 908 447 881 q 428 956 447 936 q 382 976 410 976 q 335 956 354 976 q 317 908 317 936 q 335 860 317 881 q 382 840 354 840 z "},"ǻ":{"ha":743,"x_min":74,"x_max":692,"o":"m 578 1164 q 631 1189 601 1189 q 674 1170 656 1189 q 692 1128 692 1151 q 654 1072 692 1094 l 507 979 q 526 908 526 947 q 484 809 526 850 q 382 768 442 768 q 281 808 322 768 q 239 908 239 849 q 281 1009 239 968 q 382 1050 322 1050 q 456 1031 424 1050 l 578 1164 m 382 840 q 428 860 410 840 q 447 908 447 881 q 428 956 447 936 q 382 976 410 976 q 335 956 354 976 q 317 908 317 936 q 335 860 317 881 q 382 840 354 840 m 382 694 q 583 626 517 694 q 649 419 649 558 l 649 60 q 631 10 649 28 q 581 -7 613 -7 q 532 11 550 -7 q 514 60 514 29 l 514 111 q 435 22 488 53 q 314 -10 383 -10 q 192 17 247 -10 q 105 93 136 44 q 74 201 74 142 q 112 317 74 275 q 238 378 150 360 q 481 396 326 396 l 513 396 l 513 436 q 481 549 513 514 q 378 583 449 583 q 286 571 329 583 q 192 535 243 558 q 139 514 154 514 q 105 529 118 514 q 92 568 92 544 q 103 605 92 589 q 142 636 115 621 q 256 678 190 663 q 382 694 321 694 m 339 94 q 464 147 415 94 q 513 281 513 199 l 513 317 l 488 317 q 321 307 379 317 q 238 274 263 297 q 213 208 213 251 q 249 126 213 158 q 339 94 285 94 z "},"ã":{"ha":743,"x_min":74,"x_max":649,"o":"m 382 694 q 583 626 517 694 q 649 419 649 558 l 649 60 q 631 10 649 28 q 581 -7 613 -7 q 532 11 550 -7 q 514 60 514 29 l 514 111 q 435 22 488 53 q 314 -10 383 -10 q 192 17 247 -10 q 105 93 136 44 q 74 201 74 142 q 112 317 74 275 q 238 378 150 360 q 481 396 326 396 l 513 396 l 513 436 q 481 549 513 514 q 378 583 449 583 q 286 571 329 583 q 192 535 243 558 q 139 514 154 514 q 105 529 118 514 q 92 568 92 544 q 103 605 92 589 q 142 636 115 621 q 256 678 190 663 q 382 694 321 694 m 339 94 q 464 147 415 94 q 513 281 513 199 l 513 317 l 488 317 q 321 307 379 317 q 238 274 263 297 q 213 208 213 251 q 249 126 213 158 q 339 94 285 94 m 482 817 q 431 828 456 817 q 371 863 406 840 q 324 890 343 881 q 289 899 306 899 q 252 887 265 899 q 226 854 239 875 q 209 831 217 839 q 190 822 201 822 q 166 833 175 822 q 157 863 157 844 q 173 922 157 889 q 217 977 189 954 q 282 1000 246 1000 q 334 988 308 1000 q 393 953 360 975 q 444 924 428 932 q 475 917 460 917 q 512 928 499 917 q 538 961 525 940 q 555 985 547 976 q 574 993 563 993 q 598 982 589 993 q 607 953 607 971 q 591 895 607 928 q 547 840 575 863 q 482 817 518 817 z "},"æ":{"ha":1178,"x_min":74,"x_max":1122,"o":"m 1072 171 q 1104 156 1092 171 q 1117 117 1117 140 q 1067 49 1117 75 q 964 6 1021 21 q 854 -10 907 -10 q 683 31 754 -10 q 572 150 611 72 q 481 32 544 74 q 329 -10 418 -10 q 199 17 257 -10 q 107 92 140 44 q 74 201 74 140 q 113 317 74 275 q 240 378 151 360 q 482 396 328 396 l 515 396 l 515 433 q 483 548 515 513 q 379 583 451 583 q 274 569 317 583 q 188 533 232 556 q 136 514 151 514 q 104 529 117 514 q 92 568 92 544 q 142 636 92 607 q 381 694 246 694 q 606 585 547 694 q 707 666 647 638 q 839 694 767 694 q 988 654 924 694 q 1087 541 1051 614 q 1122 371 1122 468 q 1072 315 1122 315 l 651 315 q 856 100 667 100 q 941 113 904 100 q 1018 149 978 126 q 1048 165 1033 158 q 1072 171 1063 171 m 836 592 q 709 540 757 592 q 651 396 661 489 l 1000 396 q 955 541 997 490 q 836 592 913 592 m 346 94 q 467 148 418 94 q 515 283 515 201 l 515 317 l 489 317 q 322 307 381 317 q 238 274 263 297 q 213 208 213 251 q 250 126 213 157 q 346 94 288 94 z "},"ǽ":{"ha":1178,"x_min":74,"x_max":1122,"o":"m 1072 171 q 1104 156 1092 171 q 1117 117 1117 140 q 1067 49 1117 75 q 964 6 1021 21 q 854 -10 907 -10 q 683 31 754 -10 q 572 150 611 72 q 481 32 544 74 q 329 -10 418 -10 q 199 17 257 -10 q 107 92 140 44 q 74 201 74 140 q 113 317 74 275 q 240 378 151 360 q 482 396 328 396 l 515 396 l 515 433 q 483 548 515 513 q 379 583 451 583 q 274 569 317 583 q 188 533 232 556 q 136 514 151 514 q 104 529 117 514 q 92 568 92 544 q 142 636 92 607 q 381 694 246 694 q 606 585 547 694 q 707 666 647 638 q 839 694 767 694 q 988 654 924 694 q 1087 541 1051 614 q 1122 371 1122 468 q 1072 315 1122 315 l 651 315 q 856 100 667 100 q 941 113 904 100 q 1018 149 978 126 q 1048 165 1033 158 q 1072 171 1063 171 m 836 592 q 709 540 757 592 q 651 396 661 489 l 1000 396 q 955 541 997 490 q 836 592 913 592 m 346 94 q 467 148 418 94 q 515 283 515 201 l 515 317 l 489 317 q 322 307 381 317 q 238 274 263 297 q 213 208 213 251 q 250 126 213 157 q 346 94 288 94 m 613 769 q 586 760 601 760 q 559 771 571 760 q 547 797 547 782 q 557 822 547 811 l 707 1018 q 771 1056 735 1056 q 815 1038 797 1056 q 833 994 833 1019 q 800 935 833 963 l 613 769 z "},"b":{"ha":821,"x_min":97,"x_max":763,"o":"m 461 694 q 618 651 550 694 q 724 529 686 608 q 763 344 763 450 q 724 160 763 240 q 617 35 686 79 q 461 -10 549 -10 q 326 23 385 -10 q 238 117 268 56 l 238 61 q 219 12 238 31 q 168 -7 200 -7 q 117 12 136 -7 q 97 61 97 31 l 97 919 q 117 968 97 950 q 169 986 138 986 q 219 969 200 986 q 238 922 238 951 l 238 567 q 326 661 268 628 q 461 694 385 694 m 428 101 q 569 165 518 101 q 619 344 619 229 q 569 520 619 458 q 428 582 519 582 q 287 519 336 582 q 238 342 238 457 q 287 164 238 226 q 428 101 336 101 z "},"c":{"ha":671,"x_min":58,"x_max":643,"o":"m 388 -10 q 215 33 289 -10 q 99 156 140 76 q 58 339 58 235 q 101 525 58 444 q 219 650 143 606 q 394 694 296 694 q 501 679 447 694 q 596 638 554 664 q 640 567 640 607 q 628 527 640 543 q 596 511 615 511 q 571 517 583 511 q 539 536 558 524 q 474 570 504 558 q 403 582 444 582 q 256 518 308 582 q 204 340 204 454 q 256 165 204 226 q 401 103 307 103 q 475 115 443 103 q 540 149 507 128 q 571 165 556 158 q 599 172 586 172 q 631 156 618 172 q 643 117 643 140 q 633 81 643 97 q 597 49 622 65 q 500 6 556 21 q 388 -10 444 -10 z "},"ć":{"ha":671,"x_min":58,"x_max":644,"o":"m 388 -10 q 215 33 289 -10 q 99 156 140 76 q 58 339 58 235 q 101 525 58 444 q 219 650 143 606 q 394 694 296 694 q 501 679 447 694 q 596 638 554 664 q 640 567 640 607 q 628 527 640 543 q 596 511 615 511 q 571 517 583 511 q 539 536 558 524 q 474 570 504 558 q 403 582 444 582 q 256 518 308 582 q 204 340 204 454 q 256 165 204 226 q 401 103 307 103 q 475 115 443 103 q 540 149 507 128 q 571 165 556 158 q 599 172 586 172 q 631 156 618 172 q 643 117 643 140 q 633 81 643 97 q 597 49 622 65 q 500 6 556 21 q 388 -10 444 -10 m 424 769 q 397 760 413 760 q 370 771 382 760 q 358 797 358 782 q 368 822 358 811 l 518 1018 q 582 1056 546 1056 q 626 1038 608 1056 q 644 994 644 1019 q 611 935 644 963 l 424 769 z "},"č":{"ha":671,"x_min":58,"x_max":643,"o":"m 388 -10 q 215 33 289 -10 q 99 156 140 76 q 58 339 58 235 q 101 525 58 444 q 219 650 143 606 q 394 694 296 694 q 501 679 447 694 q 596 638 554 664 q 640 567 640 607 q 628 527 640 543 q 596 511 615 511 q 571 517 583 511 q 539 536 558 524 q 474 570 504 558 q 403 582 444 582 q 256 518 308 582 q 204 340 204 454 q 256 165 204 226 q 401 103 307 103 q 475 115 443 103 q 540 149 507 128 q 571 165 556 158 q 599 172 586 172 q 631 156 618 172 q 643 117 643 140 q 633 81 643 97 q 597 49 622 65 q 500 6 556 21 q 388 -10 444 -10 m 394 760 q 362 769 375 760 q 333 797 349 778 l 208 975 q 197 1007 197 990 q 213 1040 197 1026 q 247 1054 228 1054 q 290 1028 272 1054 l 394 861 l 499 1028 q 542 1054 517 1054 q 576 1040 561 1054 q 592 1007 592 1026 q 581 975 592 990 l 456 796 q 428 769 442 778 q 394 760 414 760 z "},"ç":{"ha":671,"x_min":58,"x_max":643,"o":"m 599 172 q 631 156 618 172 q 643 117 643 140 q 633 81 643 97 q 597 49 622 65 q 514 10 561 25 q 418 -8 467 -6 l 411 -61 q 446 -57 431 -57 q 519 -82 489 -57 q 549 -153 549 -107 q 504 -237 549 -204 q 378 -269 460 -269 q 282 -254 324 -269 q 257 -219 257 -244 q 269 -192 257 -203 q 300 -186 281 -181 q 378 -197 342 -197 q 433 -186 414 -197 q 453 -153 453 -175 q 442 -127 453 -136 q 413 -118 432 -118 q 375 -124 399 -118 q 346 -129 351 -129 q 326 -122 335 -129 q 318 -101 317 -114 l 329 -6 q 131 106 204 14 q 58 339 58 197 q 101 525 58 444 q 219 650 143 606 q 394 694 296 694 q 501 679 447 694 q 596 638 554 664 q 640 567 640 607 q 628 527 640 543 q 596 511 615 511 q 571 517 583 511 q 539 536 558 524 q 474 570 504 558 q 403 582 444 582 q 256 518 308 582 q 204 340 204 454 q 256 165 204 226 q 401 103 307 103 q 475 115 443 103 q 540 149 507 128 q 571 165 556 158 q 599 172 586 172 z "},"ḉ":{"ha":671,"x_min":58,"x_max":644,"o":"m 424 769 q 397 760 413 760 q 370 771 382 760 q 358 797 358 782 q 368 822 358 811 l 518 1018 q 582 1056 546 1056 q 626 1038 608 1056 q 644 994 644 1019 q 611 935 644 963 l 424 769 m 599 172 q 631 156 618 172 q 643 117 643 140 q 633 81 643 97 q 597 49 622 65 q 514 10 561 25 q 418 -8 467 -6 l 411 -61 q 446 -57 431 -57 q 519 -82 489 -57 q 549 -153 549 -107 q 504 -237 549 -204 q 378 -269 460 -269 q 282 -254 324 -269 q 257 -219 257 -244 q 269 -192 257 -203 q 300 -186 281 -181 q 378 -197 342 -197 q 433 -186 414 -197 q 453 -153 453 -175 q 442 -127 453 -136 q 413 -118 432 -118 q 375 -124 399 -118 q 346 -129 351 -129 q 326 -122 335 -129 q 318 -101 317 -114 l 329 -6 q 131 106 204 14 q 58 339 58 197 q 101 525 58 444 q 219 650 143 606 q 394 694 296 694 q 501 679 447 694 q 596 638 554 664 q 640 567 640 607 q 628 527 640 543 q 596 511 615 511 q 571 517 583 511 q 539 536 558 524 q 474 570 504 558 q 403 582 444 582 q 256 518 308 582 q 204 340 204 454 q 256 165 204 226 q 401 103 307 103 q 475 115 443 103 q 540 149 507 128 q 571 165 556 158 q 599 172 586 172 z "},"ĉ":{"ha":671,"x_min":58,"x_max":643,"o":"m 388 -10 q 215 33 289 -10 q 99 156 140 76 q 58 339 58 235 q 101 525 58 444 q 219 650 143 606 q 394 694 296 694 q 501 679 447 694 q 596 638 554 664 q 640 567 640 607 q 628 527 640 543 q 596 511 615 511 q 571 517 583 511 q 539 536 558 524 q 474 570 504 558 q 403 582 444 582 q 256 518 308 582 q 204 340 204 454 q 256 165 204 226 q 401 103 307 103 q 475 115 443 103 q 540 149 507 128 q 571 165 556 158 q 599 172 586 172 q 631 156 618 172 q 643 117 643 140 q 633 81 643 97 q 597 49 622 65 q 500 6 556 21 q 388 -10 444 -10 m 289 786 q 246 761 274 761 q 212 775 226 761 q 197 808 197 789 q 208 839 197 824 l 333 1018 q 361 1045 347 1036 q 394 1054 375 1054 q 428 1046 414 1054 q 456 1018 442 1038 l 581 839 q 592 808 592 824 q 577 775 592 789 q 543 761 563 761 q 500 786 517 761 l 394 953 l 289 786 z "}}}
